SplineFontDB: 3.0
FontName: Cantarell-Regular
FullName: Cantarell Regular
FamilyName: Cantarell
Weight: Regular
Copyright: Copyright (c) 2009-2011, Understanding Limited (dave@understandinglimited.com),\nCopyright (c) 2010-2011, Jakub Steiner (jimmac@gmail.com).\n\nThis Font Software is licensed under the SIL Open Font License, Version 1.1.\nThis license is copied below, and is also available with a FAQ at:\nhttp://scripts.sil.org/OFL
UComments: "Cantarell was originally designed by Dave Crossland and is developed by the GNOME community+AA0ACgAA-dave@understandinglimited.com+AA0ACgAA-http://live.gnome.org/CantarellFonts" 
Version: 0.05
ItalicAngle: 0
UnderlinePosition: -113
UnderlineWidth: 56
Ascent: 739
Descent: 261
LayerCount: 2
Layer: 0 0 "Back"  1
Layer: 1 0 "Fore"  0
NeedsXUIDChange: 1
XUID: [1021 472 1916768597 5236576]
FSType: 0
OS2Version: 0
OS2_WeightWidthSlopeOnly: 0
OS2_UseTypoMetrics: 1
CreationTime: 1236980653
ModificationTime: 1300757631
PfmFamily: 33
TTFWeight: 400
TTFWidth: 5
LineGap: 0
VLineGap: 0
OS2TypoAscent: 1058
OS2TypoAOffset: 0
OS2TypoDescent: -286
OS2TypoDOffset: 0
OS2TypoLinegap: 0
OS2WinAscent: 1058
OS2WinAOffset: 0
OS2WinDescent: 286
OS2WinDOffset: 0
HheadAscent: 1058
HheadAOffset: 0
HheadDescent: -286
HheadDOffset: 0
OS2FamilyClass: 2050
OS2Vendor: 'ABAT'
MarkAttachClasses: 1
DEI: 91125
LangName: 1033 "" "" "" "" "" "" "" "" "" "Dave Crossland" "" "" "http://abattis.org" "This Font Software is licensed under the SIL Open Font License, Version 1.1.+AA0ACgAA-This license is copied below, and is also available with a FAQ at:+AA0ACgAA-http://scripts.sil.org/OFL" "http://scripts.sil.org/OFL" "" "" "" "" "" "" "Cantarell" 
Encoding: UnicodeFull
Compacted: 1
UnicodeInterp: none
NameList: Adobe Glyph List
DisplaySize: -96
AntiAlias: 1
FitToEm: 1
WinInfo: 54 9 6
BeginPrivate: 0
EndPrivate
Grid
-10.2539 694.336 m 25
 798.34 694.336 l 29
-232.91 670.898 m 1
 625.488 670.898 l 1
  Spiro
    -232.91 670.898 {
    625.488 670.898 v
    0 0 z

StartChar: a
Encoding: 97 97 0
Width: 491
VWidth: 1023
Flags: HMW
HStem: 0 73 217 73<197 355> 408 73
VStem: 345 82<91 224 284 384>
LayerCount: 2
Back
SplineSet
367.678 273.926 m 1
 367.189 213.867 l 1
 327.789 212.969 288.299 213.725 249.025 210.449 c 0
 232.652 209.084 216.262 206.742 200.631 201.684 c 0
 184.998 196.625 170.031 188.649 158.693 176.758 c 0
 145.972 163.415 138.285 144.807 140.139 126.465 c 0
 141.225 115.73 145.476 105.434 151.658 96.5908 c 0
 157.841 87.749 165.909 80.3213 174.807 74.2188 c 0
 196.106 59.6094 222.263 52.5742 248.083 53.2227 c 0
 273.903 53.8711 299.372 62.0215 321.291 75.6836 c 0
 358.992 99.1836 385.908 139.037 394.533 182.617 c 1
 425.295 169.434 l 1
 418.467 123.127 395.85 79.2656 361.975 46.9639 c 0
 328.099 14.6621 283.021 -5.96289 236.33 -9.27734 c 0
 198.299 -11.9775 159.305 -3.08789 126.955 17.0898 c 0
 108.452 28.6309 92.123 43.8545 80.2129 62.123 c 0
 68.3047 80.3926 60.916 101.744 60.0605 123.535 c 0
 58.6367 159.803 75.8281 195.696 103.029 219.727 c 0
 126.895 240.811 157.425 253.094 188.459 260.229 c 0
 219.494 267.364 251.402 269.859 283.205 271.484 c 0
 311.34 272.922 339.508 273.6 367.678 273.926 c 1
  Spiro
    367.678 273.926 v
    367.189 213.867 v
    249.025 210.449 o
    158.693 176.758 c
    140.139 126.465 c
    174.807 74.2188 c
    321.291 75.6836 o
    394.533 182.617 v
    425.295 169.434 v
    236.33 -9.27734 o
    126.955 17.0898 c
    60.0605 123.535 c
    103.029 219.727 c
    283.205 271.484 o
    0 0 z
  EndSpiro
90.8223 461.914 m 1
 109.002 468.749 127.604 474.463 146.486 479.004 c 0
 179.166 486.863 212.712 491.338 246.322 491.46 c 0
 279.934 491.582 313.959 487.451 345.217 475.098 c 0
 374.278 463.611 400.645 443.71 416.018 416.504 c 0
 424.145 402.121 429.148 386.092 431.639 369.76 c 0
 434.129 353.428 434.16 336.833 434.084 320.312 c 2
 432.619 0 l 1
 377.443 0 l 1
 353.518 56.1523 l 1
 353.518 299.316 l 2
 353.518 318.965 354.369 338.975 349.123 357.91 c 0
 346.327 368.003 341.683 377.601 335.307 385.909 c 0
 328.931 394.217 320.91 401.213 312.014 406.738 c 0
 289.891 420.48 263.189 425.183 237.146 425.415 c 0
 211.105 425.646 185.186 421.723 159.67 416.504 c 0
 141.604 412.809 123.693 408.369 105.959 403.32 c 1
 90.8223 461.914 l 1
  Spiro
    90.8223 461.914 v
    146.486 479.004 o
    345.217 475.098 o
    416.018 416.504 o
    434.084 320.312 [
    432.619 0 v
    377.443 0 v
    353.518 56.1523 v
    353.518 299.316 ]
    349.123 357.91 o
    312.014 406.738 o
    159.67 416.504 o
    105.959 403.32 v
    0 0 z
  EndSpiro
EndSplineSet
Fore
SplineSet
73 459 m 1
 125 479 179 489 235 489 c 128
 291 489 333 480 360 462 c 128
 411 428 427 392 427 313 c 2
 427 0 l 1
 366 0 l 1
 348 45 l 1
 306 10 251 -12 197 -12 c 0
 160 -12 123 -1 93 23 c 0
 61 49 45 81 45 120 c 128
 45 200 100 246 163 263 c 1
 211 275 271 282 345 284 c 1
 345 288 l 2
 345 323 342 347 336 363 c 0
 322 401 286 420 226 420 c 0
 196 420 161 415 120 406 c 0
 104 402 88 399 73 394 c 1
 73 459 l 1
345 109 m 1
 345 224 l 1
 279 222 237 219 217 215 c 0
 180 207 153 191 137 165 c 128
 130 153 126 142 126 130 c 0
 126 116 131 102 141 88 c 1
 155 67 181 53 216 53 c 0
 225 53 234 54 244 56 c 0
 283 63 316 81 345 109 c 1
EndSplineSet
EndChar

StartChar: d
Encoding: 100 100 1
Width: 576
VWidth: 1023
Flags: HMW
HStem: 0 73 408 73 651 20
VStem: 56 85<138 347> 420 83<79 415 471 671>
LayerCount: 2
Back
SplineSet
407.227 737.793 m 5
 487.305 737.793 l 5
 487.305 0 l 5
 431.641 0 l 5
 407.227 56.1523 l 5
 407.227 737.793 l 5
  Spiro
    407.227 737.793 v
    487.305 737.793 v
    487.305 0 v
    431.641 0 v
    407.227 56.1523 v
    0 0 z
  EndSpiro
317.871 490.723 m 4
 345.368 487.835 372.386 480.747 397.949 470.215 c 4
 412.635 464.164 426.85 456.971 440.43 448.73 c 5
 414.062 402.832 l 5
 398.656 410.052 382.633 415.962 366.211 420.41 c 4
 335.111 428.834 302.273 432.145 270.508 426.758 c 4
 249.643 423.219 229.355 415.787 211.623 404.235 c 4
 193.891 392.684 178.89 377.015 167.969 358.887 c 4
 147.717 325.27 141.606 284.852 141.602 245.605 c 4
 141.597 207.99 147.029 169.516 164.551 136.23 c 4
 178.215 110.273 199.643 88.3984 225.586 74.707 c 4
 254.09 59.6641 287.219 54.4414 319.336 57.1289 c 4
 368.223 61.2188 415.162 82.5176 452.148 114.746 c 5
 470.703 69.3359 l 5
 421.938 23.8525 357.593 -5.4873 291.016 -9.27734 c 4
 255.725 -11.2861 219.805 -5.85742 187.435 8.34277 c 4
 155.064 22.5439 126.682 45.7246 106.445 74.707 c 4
 74.2988 120.746 63.1855 178.712 63.4766 234.863 c 4
 63.6445 267.123 67.4551 299.472 76.3281 330.487 c 4
 85.2002 361.503 99.5508 391.162 120.117 416.016 c 4
 141.887 442.324 170.469 462.843 202.148 475.586 c 4
 238.6 490.249 278.796 494.824 317.871 490.723 c 4
  Spiro
    317.871 490.723 o
    397.949 470.215 o
    440.43 448.73 v
    414.062 402.832 v
    366.211 420.41 o
    270.508 426.758 o
    167.969 358.887 o
    141.602 245.605 o
    164.551 136.23 o
    225.586 74.707 o
    319.336 57.1289 o
    452.148 114.746 v
    470.703 69.3359 v
    291.016 -9.27734 o
    106.445 74.707 o
    63.4766 234.863 o
    120.117 416.016 o
    202.148 475.586 o
    0 0 z
  EndSpiro
EndSplineSet
Fore
SplineSet
297 59 m 0
 346 59 372 70 406 89 c 1
 406 407 l 1
 371 422 336 430 298 430 c 0
 194 430 141 350 141 243 c 0
 141 135 191 59 297 59 c 0
279 -9 m 0
 131 -9 56 92 56 236 c 0
 56 319 79 384 125 430 c 0
 169 473 224 494 290 494 c 0
 329 494 368 487 406 471 c 1
 406 671 l 1
 489 671 l 1
 489 0 l 1
 430 0 l 1
 416 34 l 1
 373 6 327 -9 279 -9 c 0
EndSplineSet
EndChar

StartChar: e
Encoding: 101 101 2
Width: 523
VWidth: 1023
Flags: HMW
HStem: 0 73 217 73 408 73
VStem: 59 75<139 218 281 352> 395 75<281 374>
LayerCount: 2
Back
SplineSet
288.574 421.875 m 4
 261.783 423.777 234.129 418.16 211.426 403.809 c 4
 192.4 391.783 177.476 373.921 166.992 354.004 c 4
 152.503 326.477 145.485 295.265 145.02 264.16 c 5
 396.973 264.16 l 5
 397.535 284.588 396.349 305.111 392.578 325.195 c 4
 388.662 346.055 381.426 366.729 368.164 383.301 c 4
 358.681 395.15 346.299 404.597 332.524 410.971 c 4
 318.751 417.344 303.713 420.8 288.574 421.875 c 4
  Spiro
    288.574 421.875 o
    211.426 403.809 o
    166.992 354.004 o
    145.02 264.16 v
    396.973 264.16 v
    392.578 325.195 o
    368.164 383.301 o
    0 0 z
  EndSpiro
291.992 491.699 m 4
 315.915 492.065 340.012 488.857 362.574 480.9 c 4
 385.139 472.943 406.02 459.999 422.59 442.74 c 4
 448.426 415.83 462.568 379.48 468.949 342.727 c 4
 474.198 312.496 474.609 281.659 474.609 250.977 c 6
 474.609 203.613 l 5
 143.066 203.613 l 5
 145.374 171.953 157.877 141.154 178.111 116.696 c 4
 196.351 94.6514 220.659 77.8633 247.364 67.5928 c 4
 271.318 58.3809 297.09 54.3496 322.754 54.1992 c 4
 335.284 54.125 347.812 54.9346 360.26 56.3652 c 4
 372.777 57.8037 385.221 59.8652 397.553 62.4531 c 4
 409.855 65.0352 422.046 68.1504 434.082 71.7773 c 5
 448.242 17.0898 l 5
 431.678 11.3887 414.824 6.52441 397.766 2.54395 c 4
 380.708 -1.43652 363.44 -4.52734 346.049 -6.60742 c 4
 328.762 -8.6748 311.355 -9.75781 293.945 -9.76562 c 4
 252.619 -9.78418 210.517 -3.76758 173.533 14.6719 c 4
 139.367 31.7051 110.91 59.6895 92.7891 93.291 c 4
 71.8252 132.164 63.9551 177.027 63.4766 221.191 c 4
 62.8623 277.83 73.5664 335.74 102.359 384.519 c 4
 123.482 420.303 154.949 449.998 192.268 468.275 c 4
 223.178 483.416 257.577 491.172 291.992 491.699 c 4
  Spiro
    291.992 491.699 o
    422.589 442.74 o
    468.95 342.726 o
    474.609 250.977 [
    474.609 203.613 v
    143.066 203.613 v
    178.112 116.696 o
    247.364 67.5928 o
    322.754 54.1992 o
    360.26 56.3652 o
    397.552 62.4536 o
    434.082 71.7773 v
    448.242 17.0898 v
    397.765 2.54377 o
    346.049 -6.60708 o
    293.945 -9.76562 o
    173.533 14.6714 o
    92.7891 93.2905 o
    63.4766 221.191 o
    102.359 384.519 o
    192.268 468.276 o
    0 0 z
  EndSpiro
EndSplineSet
Fore
SplineSet
278 490 m 0
 405 490 476 409 476 270 c 2
 476 226 l 1
 471 218 l 1
 143 218 l 1
 146 172 162 134 190 104 c 128
 218 74 263 60 324 60 c 0
 366 60 410 67 457 82 c 1
 457 17 l 1
 408 0 356 -9 302 -9 c 0
 145 -9 59 77 59 233 c 0
 59 305 78 365 115 415 c 1
 154 465 208 490 278 490 c 0
394 281 m 1
 394 360 360 425 285 425 c 128
 195 425 154 358 145 281 c 1
 394 281 l 1
EndSplineSet
EndChar

StartChar: h
Encoding: 104 104 3
Width: 520
VWidth: 1023
Flags: HMW
HStem: 0 73 408 73
VStem: 60 83<0 400 452 670> 390 82<0 395>
LayerCount: 2
Back
SplineSet
111.328 407.715 m 5
 163.195 444.5 221.329 473.907 283.691 486.328 c 4
 321.136 493.784 360.896 494.004 396.565 480.388 c 4
 432.234 466.77 461.886 438.359 477.051 403.32 c 4
 486.854 380.672 491.05 355.958 492.7 331.335 c 4
 494.346 306.712 493.838 282.002 493.652 257.324 c 6
 491.699 0 l 5
 411.621 0 l 5
 411.133 290.527 l 6
 411.109 304.671 410.988 318.881 408.688 332.836 c 4
 406.387 346.791 401.864 360.465 394.531 372.559 c 4
 382.554 392.312 363 407.104 341.021 414.221 c 4
 319.045 421.338 295.245 421.293 272.461 417.48 c 4
 221.074 408.882 173.324 384.945 129.395 356.934 c 5
 111.328 407.715 l 5
  Spiro
    111.328 407.715 v
    283.691 486.328 o
    477.051 403.32 o
    493.652 257.324 [
    491.699 0 v
    411.621 0 v
    411.133 290.527 ]
    394.531 372.559 o
    272.461 417.48 o
    129.395 356.934 v
    0 0 z
  EndSpiro
92.7734 737.793 m 5
 172.852 737.793 l 5
 172.852 0 l 5
 92.7734 0 l 5
 92.7734 737.793 l 5
  Spiro
    92.7734 737.793 v
    172.852 737.793 v
    172.852 0 v
    92.7734 0 v
    0 0 z
  EndSpiro
EndSplineSet
Fore
SplineSet
379 310 m 6
 379 390 352 427 273 427 c 132
 235 427 192 415 143 391 c 5
 143 0 l 5
 60 0 l 5
 60 670 l 5
 143 670 l 5
 143 452 l 5
 201 481 254 496 304 496 c 132
 405 496 460 431 460 329 c 6
 460 0 l 5
 379 0 l 5
 379 310 l 6
EndSplineSet
EndChar

StartChar: i
Encoding: 105 105 4
Width: 202
VWidth: 1023
Flags: HW
HStem: 0 21G<60 142> 463 20G<60 142> 586 83<60 142>
VStem: 60 82<0 483 586 669>
LayerCount: 2
Back
SplineSet
80.5664 693.848 m 5xf0
 175.293 693.848 l 5
 175.293 601.562 l 5
 80.5664 601.562 l 5
 80.5664 693.848 l 5xf0
  Spiro
    80.5664 693.848 v
    175.293 693.848 v
    175.293 601.562 v
    80.5664 601.562 v
    0 0 z
  EndSpiro
87.8906 482.422 m 5xe8
 167.969 482.422 l 5
 167.969 0 l 5
 87.8906 0 l 5
 87.8906 482.422 l 5xe8
  Spiro
    87.8906 482.422 v
    167.969 482.422 v
    167.969 0 v
    87.8906 0 v
    0 0 z
  EndSpiro
EndSplineSet
Fore
SplineSet
60 483 m 1
 142 483 l 1
 142 0 l 1
 60 0 l 1
 60 483 l 1
60 669 m 1
 142 669 l 1
 142 586 l 1
 60 586 l 1
 60 669 l 1
EndSplineSet
EndChar

StartChar: n
Encoding: 110 110 5
Width: 548
VWidth: 1023
Flags: HMW
HStem: 0 73 408 73
VStem: 66 82<0 397> 404 81<0 392>
LayerCount: 2
Back
SplineSet
106.445 407.715 m 5
 158.312 444.5 216.446 473.907 278.809 486.328 c 4
 316.253 493.784 356.014 494.004 391.683 480.388 c 4
 427.352 466.77 457.003 438.359 472.168 403.32 c 4
 481.973 380.672 486.167 355.958 487.817 331.335 c 4
 489.463 306.712 488.955 282.002 488.77 257.324 c 6
 486.816 0 l 5
 406.738 0 l 5
 406.25 290.527 l 6
 406.227 304.671 406.105 318.881 403.805 332.836 c 4
 401.504 346.791 396.981 360.465 389.648 372.559 c 4
 377.671 392.312 358.117 407.104 336.139 414.221 c 4
 314.162 421.338 290.362 421.293 267.578 417.48 c 4
 216.191 408.882 168.441 384.945 124.512 356.934 c 5
 106.445 407.715 l 5
  Spiro
    106.445 407.715 v
    278.809 486.328 o
    472.168 403.32 o
    488.77 257.324 [
    486.816 0 v
    406.738 0 v
    406.25 290.527 ]
    389.648 372.559 o
    267.578 417.48 o
    124.512 356.934 v
    0 0 z
  EndSpiro
87.8906 482.422 m 5
 144.043 482.422 l 5
 167.969 426.27 l 5
 167.969 0 l 5
 87.8906 0 l 5
 87.8906 482.422 l 5
  Spiro
    87.8906 482.422 v
    144.043 482.422 v
    167.969 426.27 v
    167.969 0 v
    87.8906 0 v
    0 0 z
  EndSpiro
EndSplineSet
Fore
SplineSet
383 396 m 128
 367 414 327 423 289 423 c 128
 251 423 191 411 142 388 c 1
 142 0 l 1
 60 0 l 1
 60 480 l 1
 117 480 l 1
 133 444 l 1
 194 476 267 492 318 492 c 128
 369 492 421 477 448 448 c 128
 475 419 488 379 488 327 c 2
 488 0 l 1
 407 0 l 1
 407 307 l 2
 407 348 399 378 383 396 c 128
EndSplineSet
EndChar

StartChar: o
Encoding: 111 111 6
Width: 569
VWidth: 1023
Flags: HW
HStem: -10 65<201.366 356.188> 426 64<201.263 354.656>
VStem: 46 83<136.024 343.789> 427 83<134.537 345.226>
LayerCount: 2
Back
SplineSet
291.504 423.34 m 4
 217.773 423.34 141.602 364.258 141.602 249.512 c 4
 141.602 144.531 204.59 58.5938 299.316 58.5938 c 4
 383.301 58.5938 449.707 128.418 449.707 234.863 c 4
 449.707 358.887 368.164 423.34 291.504 423.34 c 4
298.34 491.699 m 4
 426.758 491.699 527.832 406.25 527.832 250.977 c 4
 527.832 89.3555 428.223 -9.76562 290.527 -9.76562 c 4
 159.668 -9.76562 63.4766 81.543 63.4766 235.84 c 4
 63.4766 393.066 159.18 491.699 298.34 491.699 c 4
EndSplineSet
Fore
SplineSet
278 426 m 0
 181 426 129 342 129 240 c 0
 129 138 180 55 278 55 c 0
 377 55 427 137 427 240 c 0
 427 343 376 426 278 426 c 0
276 -10 m 0
 128 -10 46 90 46 240 c 0
 46 391 131 490 279 490 c 0
 428 490 510 392 510 241 c 0
 510 91 424 -10 276 -10 c 0
EndSplineSet
EndChar

StartChar: s
Encoding: 115 115 7
Width: 497
VWidth: 1023
Flags: HMW
HStem: -10 68<112.539 330.762> 408 67<295.706 414.2>
VStem: 80 85 360 85
LayerCount: 2
Back
SplineSet
288.086 491.699 m 4
 350.586 491.699 375.977 482.422 410.645 472.168 c 5
 390.137 411.133 l 5
 358.398 419.922 323.73 429.199 274.902 429.199 c 4
 173.34 429.199 158.203 375.977 158.203 354.492 c 4
 158.203 268.066 437.5 288.574 437.5 138.184 c 4
 437.5 77.6367 398.926 -9.76562 227.539 -9.76562 c 4
 191.406 -9.76562 133.789 -1.95312 63.4766 26.8555 c 5
 85.9375 87.4023 l 5
 150.391 63.4766 188.965 53.2227 230.957 53.2227 c 4
 289.062 53.2227 350.098 65.918 350.098 128.906 c 4
 350.098 221.191 75.1953 184.57 75.1953 346.191 c 4
 75.1953 400.391 119.629 491.699 288.086 491.699 c 4
EndSplineSet
Fore
SplineSet
249 58 m 0
 302 58 355 77 355 125 c 0
 355 144 346 160 327 173 c 0
 311 184 289 197 262 205 c 2
 190 227 l 1
 148 244 137 249 113 271 c 0
 94 288 83 319 83 350 c 0
 83 369 87 388 95 404 c 0
 112 437 139 455 174 469 c 0
 206 481 241 487 279 487 c 0
 320 487 365 480 414 466 c 1
 414 399 l 1
 366 412 326 419 294 419 c 0
 238 419 208 416 182 392 c 0
 171 382 166 371 166 361 c 0
 166 332 178 323 195 312 c 0
 202 307 217 299 239 291 c 2
 282 275 l 2
 348 251 390 234 408 214 c 0
 429 191 441 159 441 128 c 0
 441 102 433 75 416 54 c 0
 383 12 330 -10 256 -10 c 0
 182 -10 123 -1 79 18 c 1
 79 91 l 1
 133 70 190 58 249 58 c 0
EndSplineSet
EndChar

StartChar: bar
Encoding: 124 124 8
Width: 431
VWidth: 1023
Flags: HW
VStem: 176 80<-150 782>
LayerCount: 2
Fore
SplineSet
256 782 m 5
 256 -150 l 1
176 782 m 1
 256 782 l 1
 256 -150 l 1
 176 -150 l 1
 176 782 l 1
EndSplineSet
EndChar

StartChar: b
Encoding: 98 98 9
Width: 553
VWidth: 1023
Flags: HMW
HStem: 0 73<176.849 341.916> 408 73<151.423 339.129> 651 20
VStem: 65 85<77.1611 89 407 415.828> 413 85<137.983 349.728>
LayerCount: 2
Back
SplineSet
92.7734 737.793 m 1
 172.852 737.793 l 1
 172.852 56.1523 l 1
 148.438 0 l 1
 92.7734 0 l 1
 92.7734 737.793 l 1
  Spiro
    172.852 737.793 v
    172.852 56.1523 v
    148.438 0 v
    92.7734 0 v
    92.7734 737.793 v
    0 0 z
  EndSpiro
287.109 491.699 m 0
 322.421 493.809 358.394 488.486 390.795 474.289 c 0
 423.195 460.093 451.554 436.807 471.68 407.715 c 0
 499.995 366.788 511.777 316.311 514.16 266.602 c 0
 515.854 231.195 513.115 195.452 504.463 161.078 c 0
 495.806 126.703 480.646 93.6836 458.008 66.4062 c 0
 436.202 40.1318 407.646 19.5957 375.977 6.83594 c 0
 339.532 -7.84766 299.33 -12.4111 260.254 -8.30078 c 0
 232.758 -5.4082 205.74 1.67676 180.176 12.207 c 0
 165.489 18.2568 151.273 25.4502 137.695 33.6914 c 1
 164.062 79.5898 l 1
 179.473 72.3799 195.494 66.4688 211.914 62.0117 c 0
 243.012 53.5703 275.857 50.2266 307.617 55.6641 c 0
 328.467 59.2334 348.721 66.7168 366.436 78.2764 c 0
 384.15 89.8359 399.168 105.461 410.156 123.535 c 0
 423.744 145.887 431.102 171.624 434.242 197.594 c 0
 437.383 223.562 436.848 249.924 433.594 275.879 c 0
 430.547 300.183 424.756 324.398 413.574 346.191 c 0
 400.171 372.314 378.576 394.146 352.539 407.715 c 0
 323.973 422.604 290.901 427.854 258.789 425.293 c 0
 209.857 421.393 162.78 400.156 125.977 367.676 c 1
 107.422 413.086 l 1
 156.338 458.37 220.569 487.724 287.109 491.699 c 0
  Spiro
    287.109 491.699 o
    471.68 407.715 o
    514.16 266.602 o
    458.008 66.4062 o
    375.977 6.83594 o
    260.254 -8.30078 o
    180.176 12.207 o
    137.695 33.6914 v
    164.062 79.5898 v
    211.914 62.0117 o
    307.617 55.6641 o
    410.156 123.535 o
    433.594 275.879 o
    413.574 346.191 o
    352.539 407.715 o
    258.789 425.293 o
    125.977 367.676 v
    107.422 413.086 v
    0 0 z
  EndSpiro
EndSplineSet
Fore
SplineSet
257 59 m 0
 208 59 182 70 148 89 c 1
 148 407 l 1
 183 422 218 430 256 430 c 0
 360 430 413 350 413 243 c 0
 413 135 363 59 257 59 c 0
275 -9 m 0
 423 -9 498 92 498 236 c 0
 498 319 475 384 429 430 c 0
 385 473 330 494 264 494 c 0
 225 494 186 487 148 471 c 1
 148 671 l 1
 65 671 l 1
 65 0 l 1
 124 0 l 1
 138 34 l 1
 181 6 227 -9 275 -9 c 0
EndSplineSet
EndChar

StartChar: l
Encoding: 108 108 10
Width: 263
VWidth: 1023
Flags: HMW
HStem: 0 21G<98 178> 651 20G<98 178>
VStem: 60 80<0 671>
LayerCount: 2
Fore
SplineSet
198 65 m 4
 217 65 234 69 256 76 c 5
 256 14 l 5
 239 8 206 -10 159 -10 c 4
 96 -10 56 37 55 105 c 5
 55 671 l 5
 135 671 l 5
 135 134 l 6
 135 97 136 65 198 65 c 4
EndSplineSet
EndChar

StartChar: w
Encoding: 119 119 11
Width: 817
VWidth: 1023
Flags: HW
HStem: 0 21G<195.697 285.598 527.555 622.303> 462 20G<27 118.485 365.614 457.139 699.515 791>
LayerCount: 2
Fore
SplineSet
27 482 m 1
 112 482 l 1
 243 78 l 1
 372 482 l 1
 451 482 l 1
 575 78 l 1
 706 482 l 1
 791 482 l 1
 615 0 l 1
 534 0 l 1
 408 391 l 1
 279 0 l 1
 203 0 l 1
 27 482 l 1
EndSplineSet
EndChar

StartChar: exclam
Encoding: 33 33 12
Width: 317
VWidth: 1023
Flags: HW
HStem: 0 98<110 208> 674 20G<117 200>
VStem: 110 98<0 98> 117 83<224 694>
LayerCount: 2
Fore
SplineSet
117 694 m 1xd0
 200 694 l 1
 200 224 l 1
 117 224 l 1
 117 694 l 1xd0
110 98 m 1xe0
 208 98 l 1
 208 0 l 1
 110 0 l 1
 110 98 l 1xe0
EndSplineSet
EndChar

StartChar: u
Encoding: 117 117 14
Width: 521
VWidth: 1023
Flags: HMW
HStem: 0 73 408 73
VStem: 66 81<88 480> 391 82<83 480>
LayerCount: 2
Back
SplineSet
89.8438 482.422 m 5
 169.922 482.422 l 5
 170.41 191.406 l 6
 170.434 177.263 170.555 163.053 172.855 149.098 c 4
 175.156 135.143 179.679 121.469 187.012 109.375 c 4
 198.989 89.6211 218.543 74.8301 240.521 67.7129 c 4
 262.498 60.5957 286.298 60.6406 309.082 64.4531 c 4
 360.469 73.0518 408.219 96.9883 452.148 125 c 5
 470.215 74.2188 l 5
 418.348 37.4346 360.214 8.02637 297.852 -4.39453 c 4
 260.406 -11.8525 220.646 -12.0723 184.977 1.54492 c 4
 149.309 15.1631 119.656 43.5742 104.492 78.6133 c 4
 94.6904 101.262 90.4922 125.976 88.8438 150.599 c 4
 87.1963 175.222 87.7031 199.932 87.8906 224.609 c 6
 89.8438 482.422 l 5
  Spiro
    89.8438 482.422 v
    169.922 482.422 v
    170.41 191.406 ]
    187.012 109.375 o
    309.082 64.4531 o
    452.148 125 v
    470.215 74.2188 v
    297.852 -4.39453 o
    104.492 78.6133 o
    87.8906 224.609 [
    0 0 z
  EndSpiro
408.691 482.422 m 5
 488.77 482.422 l 5
 488.77 0 l 5
 432.617 0 l 5
 408.691 56.1523 l 5
 408.691 482.422 l 5
  Spiro
    408.691 482.422 v
    488.77 482.422 v
    488.77 0 v
    432.617 0 v
    408.691 56.1523 v
    0 0 z
  EndSpiro
EndSplineSet
Fore
SplineSet
141 173 m 2
 141 93 167 57 245 57 c 128
 283 57 326 69 375 92 c 1
 375 480 l 1
 457 480 l 1
 457 0 l 1
 400 0 l 1
 384 36 l 1
 323 4 267 -12 216 -12 c 128
 114 -12 60 51 60 153 c 2
 60 480 l 1
 141 480 l 1
 141 173 l 2
EndSplineSet
EndChar

StartChar: p
Encoding: 112 112 15
Width: 568
VWidth: 1023
Flags: HMW
HStem: -261 73 -13 64<176 361> 423 68<200 363>
VStem: 87 83<-261 11 66 404> 436 85<134 344>
LayerCount: 2
Back
SplineSet
87.8906 482.422 m 5x60
 143.555 482.422 l 5
 167.969 426.27 l 5
 167.969 -259.277 l 5
 87.8906 -259.277 l 5
 87.8906 482.422 l 5x60
  Spiro
    87.8906 482.422 v
    143.555 482.422 v
    167.969 426.27 v
    167.969 -259.277 v
    87.8906 -259.277 v
    0 0 z
  EndSpiro
284.18 491.211 m 4xa0
 319.49 493.315 355.461 487.986 387.859 473.791 c 4
 420.26 459.594 448.619 436.312 468.75 407.227 c 4
 497.075 366.305 508.877 315.825 511.23 266.113 c 4
 512.905 230.787 510.142 195.127 501.479 160.839 c 4
 492.812 126.55 477.666 93.6201 455.078 66.4062 c 4
 433.271 40.1328 404.717 19.5967 373.047 6.83594 c 4
 336.603 -7.84863 296.4 -12.4121 257.324 -8.30078 c 4
 229.828 -5.4082 202.811 1.67676 177.246 12.207 c 4
 162.56 18.2568 148.344 25.4502 134.766 33.6914 c 5
 161.133 79.5898 l 5
 176.543 72.3799 192.564 66.4688 208.984 62.0117 c 4
 240.082 53.5703 272.928 50.2275 304.688 55.6641 c 4
 325.537 59.2324 345.791 66.7158 363.506 78.2754 c 4
 381.221 89.835 396.239 105.46 407.227 123.535 c 4
 420.771 145.817 428.123 171.467 431.272 197.352 c 4
 434.422 223.236 433.901 249.516 430.664 275.391 c 4
 427.623 299.695 421.828 323.911 410.645 345.703 c 4
 397.239 371.824 375.645 393.656 349.609 407.227 c 4
 321.043 422.116 287.972 427.365 255.859 424.805 c 4
 206.929 420.902 159.852 399.666 123.047 367.188 c 5
 104.492 412.598 l 5
 153.4 457.892 217.638 487.244 284.18 491.211 c 4xa0
  Spiro
    284.18 491.211 o
    468.75 407.227 o
    511.23 266.113 o
    455.078 66.4062 o
    373.047 6.83594 o
    257.324 -8.30078 o
    177.246 12.207 o
    134.766 33.6914 v
    161.133 79.5898 v
    208.984 62.0117 o
    304.688 55.6641 o
    407.227 123.535 o
    430.664 275.391 o
    410.645 345.703 o
    349.609 407.227 o
    255.859 424.805 o
    123.047 367.188 v
    104.492 412.598 v
    0 0 z
  EndSpiro
EndSplineSet
Fore
SplineSet
279 423 m 0
 230 423 204 412 170 393 c 1
 170 75 l 1
 205 60 241 52 278 52 c 0
 381 52 436 132 436 239 c 0
 436 347 384 423 279 423 c 0
170 11 m 1
 170 -261 l 1
 87 -261 l 1
 87 481 l 1
 146 481 l 1
 161 448 l 1
 204 476 249 491 297 491 c 0
 345 491 385 480 419 459 c 0
 486 416 521 346 521 246 c 0
 521 163 497 98 451 53 c 0
 407 10 352 -13 286 -13 c 0
 247 -13 208 -5 170 11 c 1
EndSplineSet
EndChar

StartChar: q
Encoding: 113 113 16
Width: 564
VWidth: 1023
Flags: HMW
HStem: -13 65<208.871 394.861> 423 68<206.084 370.361>
VStem: 49 85<134.785 342.818> 400 83<-261 11 66.7342 403.769>
LayerCount: 2
Back
SplineSet
317.383 489.746 m 4xa0
 345.157 485.537 371.869 475.941 397.461 464.355 c 4
 411.921 457.81 426.082 450.609 439.941 442.871 c 5
 413.574 396.973 l 5
 397.955 403.688 381.989 409.607 365.723 414.551 c 4
 334.756 423.963 302.109 429.994 270.02 425.781 c 4
 248.963 423.018 228.457 415.676 210.762 403.93 c 4
 193.068 392.185 178.323 376.172 167.48 357.91 c 4
 153.788 334.848 146.248 308.497 142.943 281.881 c 4
 139.638 255.266 140.15 228.197 144.043 201.66 c 4
 147.368 178.986 153.448 156.54 164.062 136.23 c 4
 177.653 110.225 199.123 88.3574 225.098 74.707 c 4
 253.623 59.7168 286.732 54.4854 318.848 57.1289 c 4
 367.75 61.1543 414.736 82.4316 451.66 114.746 c 5
 470.215 69.3359 l 5
 421.229 24.1465 357.05 -5.21484 290.527 -9.27734 c 4
 255.207 -11.4346 219.211 -6.15723 186.797 8.03906 c 4
 154.385 22.2363 126.045 45.5762 105.957 74.707 c 4
 78.627 114.342 66.6816 162.9 63.4766 210.938 c 4
 61.0684 247.029 63.2471 283.58 71.8457 318.716 c 4
 80.4434 353.852 96.1719 387.504 119.629 415.039 c 4
 141.74 440.996 170.266 461.303 201.66 474.609 c 4
 237.945 489.99 278.418 495.649 317.383 489.746 c 4xa0
  Spiro
    317.383 489.746 o
    397.461 464.355 o
    439.941 442.871 v
    413.574 396.973 v
    365.723 414.551 o
    270.02 425.781 o
    167.48 357.91 o
    144.043 201.66 o
    164.062 136.23 o
    225.098 74.707 o
    318.848 57.1289 o
    451.66 114.746 v
    470.215 69.3359 v
    290.527 -9.27734 o
    105.957 74.707 o
    63.4766 210.938 o
    119.629 415.039 o
    201.66 474.609 o
    0 0 z
  EndSpiro
430.176 482.422 m 5x60
 486.328 482.422 l 5
 486.328 -259.277 l 5
 406.25 -259.277 l 5
 406.25 416.504 l 5
 430.176 482.422 l 5x60
  Spiro
    430.176 482.422 v
    486.328 482.422 v
    486.328 -259.277 v
    406.25 -259.277 v
    406.25 416.504 v
    0 0 z
  EndSpiro
EndSplineSet
Fore
SplineSet
134 239 m 0
 134 132 188 52 292 52 c 0
 329 52 365 60 400 75 c 1
 400 393 l 1
 366 412 340 423 291 423 c 0
 186 423 134 347 134 239 c 0
400 11 m 1
 362 -5 323 -13 284 -13 c 0
 218 -13 163 10 119 53 c 0
 73 98 49 163 49 246 c 0
 49 346 84 416 151 459 c 0
 185 480 225 491 273 491 c 0
 321 491 366 476 409 448 c 1
 424 481 l 1
 483 481 l 1
 483 -261 l 1
 400 -261 l 1
 400 11 l 1
EndSplineSet
EndChar

StartChar: m
Encoding: 109 109 17
Width: 783
VWidth: 1023
Flags: HMW
HStem: 0 73 408 73
VStem: 60 82<0 400> 349 81<0 382> 642 81<0 390>
LayerCount: 2
Back
SplineSet
590.82 491.211 m 4xdc
 621.904 492.241 653.613 486.396 680.82 471.333 c 4
 708.032 456.27 729.8 431.849 742.188 403.32 c 4
 752.017 380.684 756.216 355.963 757.852 331.339 c 4
 759.492 306.715 758.975 282.003 758.789 257.324 c 6
 756.836 0 l 5
 676.758 0 l 5
 676.27 290.527 l 6
 676.245 304.672 676.128 318.883 673.828 332.839 c 4
 671.533 346.795 667.017 360.475 659.668 372.559 c 4
 651.147 386.563 638.838 398.232 624.385 405.969 c 4
 609.932 413.705 593.535 417.517 577.148 417.969 c 4
 545.303 418.848 514.326 407.777 485.352 394.531 c 4
 460.908 383.357 437.258 370.51 414.062 356.934 c 5
 381.348 407.715 l 5
 401.153 421.898 421.865 434.826 443.359 446.289 c 4
 489.087 470.676 539.023 489.497 590.82 491.211 c 4xdc
  Spiro
    590.82 491.211 o
    742.188 403.32 o
    758.789 257.324 [
    756.836 0 v
    676.758 0 v
    676.27 290.527 ]
    659.668 372.559 o
    577.148 417.969 o
    485.352 394.531 o
    414.062 356.934 v
    381.348 407.715 v
    443.359 446.289 o
    0 0 z
  EndSpiro
301.27 491.211 m 4
 331.676 492.837 362.805 486.654 389.068 471.247 c 4
 415.332 455.84 435.888 431.362 447.754 403.32 c 4
 457.367 380.6 461.576 355.92 463.287 331.309 c 4
 464.997 306.698 464.543 281.994 464.355 257.324 c 6
 462.402 0 l 5
 382.324 0 l 5
 381.836 290.527 l 6
 381.812 304.668 381.677 318.877 379.361 332.828 c 4
 377.047 346.777 372.532 360.446 365.234 372.559 c 4
 357.174 385.937 345.733 397.279 332.201 405.078 c 4
 318.668 412.877 303.192 417.097 287.598 417.969 c 4
 255.733 419.751 224.669 408.139 195.801 394.531 c 4
 171.495 383.074 147.9 370.162 124.512 356.934 c 5
 106.445 407.715 l 5
 126.508 421.518 147.168 434.465 168.457 446.289 c 4
 209.666 469.176 254.199 488.691 301.27 491.211 c 4
  Spiro
    301.27 491.211 o
    447.754 403.32 o
    464.355 257.324 [
    462.402 0 v
    382.324 0 v
    381.836 290.527 ]
    365.234 372.559 o
    287.598 417.969 o
    195.801 394.531 o
    124.512 356.934 v
    106.445 407.715 v
    168.457 446.289 o
    0 0 z
  EndSpiro
87.8906 482.422 m 5xbc
 144.043 482.422 l 5
 167.969 426.27 l 5
 167.969 0 l 5
 87.8906 0 l 5
 87.8906 482.422 l 5xbc
  Spiro
    87.8906 482.422 v
    144.043 482.422 v
    167.969 426.27 v
    167.969 0 v
    87.8906 0 v
    0 0 z
  EndSpiro
EndSplineSet
Fore
SplineSet
425 383 m 1
 429 369 430 350 430 327 c 2
 430 0 l 1
 349 0 l 1
 349 307 l 2
 349 378 325 418 267 425 c 0
 263 425 258 426 254 426 c 0
 223 426 185 413 142 389 c 1
 142 0 l 1
 60 0 l 1
 60 480 l 1
 117 480 l 1
 133 444 l 1
 166 465 193 477 213 483 c 0
 237 490 259 493 280 493 c 0
 310 493 336 486 360 472 c 0
 378 462 392 447 404 430 c 1
 447 459 480 476 502 482 c 0
 527 489 551 493 573 493 c 0
 603 493 630 486 653 472 c 0
 700 444 723 396 723 327 c 2
 723 0 l 1
 642 0 l 1
 642 307 l 2
 642 378 618 418 560 425 c 0
 556 425 551 426 547 426 c 0
 513 426 472 411 425 383 c 1
EndSplineSet
EndChar

StartChar: c
Encoding: 99 99 18
Width: 467
VWidth: 1023
Flags: HMW
HStem: -10 67<209.074 393.763> 408 68<206.038 398.764>
LayerCount: 2
Fore
SplineSet
297 491 m 4
 299 491 300 491 302 491 c 0
 341 491 383 481 427 462 c 5
 407 404 l 5
 370 417 335 423 306 423 c 0
 304 423 302 423 300 423 c 4
 190 418 135 360 135 247 c 0
 135 240 136 233 136 226 c 4
 142 122 192 69 292 57 c 4
 299 56 306 56 314 56 c 0
 341 56 371 61 402 72 c 5
 421 17 l 5
 375 -1 332 -10 290 -10 c 4
 289 -10 286 -10 285 -10 c 0
 138 -10 59 77 57 227 c 4
 57 229 57 231 57 233 c 0
 57 310 77 371 116 418 c 4
 156 466 216 490 297 491 c 4
EndSplineSet
EndChar

StartChar: t
Encoding: 116 116 19
Width: 387
VWidth: 1023
Flags: HW
HStem: -9 68<205.12 345.524> 415 68<25 106 187 347>
VStem: 106 81<82.7104 415 483 603>
LayerCount: 2
Back
SplineSet
39.0625 482.422 m 5
 331.055 482.422 l 5
 331.055 419.434 l 5
 39.0625 419.434 l 5
 39.0625 482.422 l 5
  Spiro
    39.0625 482.422 v
    331.055 482.422 v
    331.055 419.434 v
    39.0625 419.434 v
    0 0 z
  EndSpiro
104.004 620.605 m 5
 184.082 620.605 l 5
 184.082 154.785 l 6
 184.082 133.482 184.768 111.391 194.285 92.332 c 4
 199.045 82.8027 205.865 74.2754 214.311 67.7852 c 4
 222.756 61.2949 232.747 56.9092 243.164 54.6875 c 4
 261.914 50.6885 281.381 53.5 300.293 56.6406 c 4
 312.831 58.7227 325.346 60.9502 337.891 62.9883 c 5
 349.121 8.30078 l 5
 337.292 5.31445 325.411 2.53125 313.477 0 c 4
 275.211 -8.11719 235.188 -14.4756 197.266 -4.88281 c 4
 181.061 -0.783203 165.561 6.31543 152.236 16.4072 c 4
 138.91 26.499 127.859 39.54 119.936 54.2588 c 4
 112.014 68.9775 107.245 85.2676 104.863 101.812 c 4
 102.482 118.357 102.457 135.141 102.539 151.855 c 6
 104.004 452.148 l 5
 104.004 620.605 l 5
  Spiro
    104.004 620.605 v
    184.082 620.605 v
    184.082 154.785 ]
    243.164 54.6875 o
    300.293 56.6406 o
    337.891 62.9883 v
    349.121 8.30078 v
    313.477 0 o
    197.266 -4.88281 o
    102.539 151.855 [
    104.004 452.148 v
    0 0 z
  EndSpiro
EndSplineSet
Fore
SplineSet
241 -9 m 4
 141 -9 106 48 106 150 c 6
 106 415 l 5
 25 415 l 5
 25 483 l 5
 106 483 l 5
 106 603 l 5
 187 607 l 5
 187 483 l 5
 347 483 l 5
 347 415 l 5
 187 415 l 5
 187 156 l 6
 187 92 203 59 265 59 c 4
 294 59 321 63 347 70 c 5
 347 9 l 5
 310 -3 275 -9 241 -9 c 4
EndSplineSet
EndChar

StartChar: r
Encoding: 114 114 20
Width: 391
VWidth: 1023
Flags: HW
HStem: 0 21G<88 171> 402 79<299.077 364> 418 72<207.126 357.922>
VStem: 88 83<0 395.646>
LayerCount: 2
Back
SplineSet
285.645 491.699 m 0xd0
 320.077 493.013 354.791 486.271 386.23 472.168 c 1
 361.816 408.691 l 1
 336.673 418.455 309.688 423.453 282.715 423.34 c 0
 223.879 423.094 165.572 397.562 125.488 354.492 c 1
 105.957 389.975 l 1
 145.062 449.844 214.188 488.975 285.645 491.699 c 0xd0
  Spiro
    285.645 491.699 o
    386.23 472.168 v
    361.816 408.691 v
    282.715 423.34 o
    125.488 354.492 v
    105.957 389.974 v
    0 0 z
  EndSpiro
87.8906 482.422 m 1xb0
 144.043 482.422 l 1
 167.969 425.781 l 1
 167.969 0 l 1
 87.8906 0 l 1
 87.8906 482.422 l 1xb0
  Spiro
    87.8906 482.422 v
    144.043 482.422 v
    167.969 425.781 v
    167.969 0 v
    87.8906 0 v
    0 0 z
  EndSpiro
EndSplineSet
Fore
SplineSet
148 481 m 1xd0
 164 441 l 1
 207 474 251 490 298 490 c 0xb0
 321 490 343 487 364 481 c 1
 364 402 l 1
 354 402 l 1xd0
 329 412 305 418 281 418 c 0xb0
 242 418 206 406 171 383 c 1
 171 0 l 1
 88 0 l 1
 88 481 l 1
 148 481 l 1xd0
EndSplineSet
EndChar

StartChar: v
Encoding: 118 118 21
Width: 492
VWidth: 1023
Flags: HW
HStem: 0 21G<194.562 297.438> 464 20G<22 117.018 378.929 470>
LayerCount: 2
Back
SplineSet
448.242 482.422 m 5
 365.234 482.422 l 5
 219.238 5.85938 l 5
 265.137 5.85938 l 5
 114.746 482.422 l 5
 31.7383 482.422 l 5
 201.66 0 l 5
 279.785 0 l 5
 448.242 482.422 l 5
EndSplineSet
Fore
SplineSet
470 484 m 1
 290 0 l 1
 202 0 l 1
 22 484 l 1
 110 484 l 1
 243 105 l 1
 248 79 l 1
 252 105 l 1
 386 484 l 1
 470 484 l 1
EndSplineSet
EndChar

StartChar: k
Encoding: 107 107 22
Width: 503
VWidth: 1023
Flags: HMW
HStem: 0 73 217 73 408 73 651 20
VStem: 68 80<0 738>
LayerCount: 2
Fore
SplineSet
68 672 m 1
 148 672 l 1
 148 0 l 1
 68 0 l 1
 68 672 l 1
369 492 m 1
 457 492 l 1
 247 275 l 1
 470 0 l 1
 374 0 l 1
 156 267 l 1
 369 492 l 1
EndSplineSet
EndChar

StartChar: j
Encoding: 106 106 23
Width: 237
VWidth: 1023
Flags: HW
HStem: 462 20G<83 163.073> 586 83<82 164>
VStem: 82 82<-157.946 482 586 669>
LayerCount: 2
Fore
SplineSet
165 -64 m 2
 165 -132 159 -143 141 -180 c 0
 121 -221 80 -247 35 -263 c 1
 5 -202 l 1
 58 -177 84 -136 84 -78 c 0
 84 -76 84 -73 84 -71 c 1
 84 -68 l 1
 83 482 l 1
 163 482 l 1
 165 -64 l 2
82 669 m 1
 164 669 l 1
 164 586 l 1
 82 586 l 1
 82 669 l 1
EndSplineSet
EndChar

StartChar: x
Encoding: 120 120 24
Width: 511
VWidth: 1023
Flags: HW
HStem: 0 21G<38 136.591 360.746 468> 462 20G<32 139.241 378.283 478>
LayerCount: 2
Fore
SplineSet
392 482 m 1
 478 482 l 1
 300 236 l 1
 468 0 l 1
 375 0 l 1
 246 181 l 1
 123 0 l 1
 38 0 l 1
 207 237 l 1
 32 482 l 1
 125 482 l 1
 261 291 l 1
 392 482 l 1
EndSplineSet
EndChar

StartChar: z
Encoding: 122 122 25
Width: 526
VWidth: 1023
Flags: HW
HStem: 0 63<177 453> 419 63<73 336>
LayerCount: 2
Fore
SplineSet
73 482 m 1
 441 482 l 1
 441 440 l 1
 177 63 l 1
 453 63 l 1
 453 0 l 1
 73 0 l 1
 73 42 l 1
 336 419 l 1
 73 419 l 1
 73 482 l 1
EndSplineSet
EndChar

StartChar: y
Encoding: 121 121 26
Width: 507
VWidth: 1023
Flags: HW
HStem: 462 20G<22 110.384 397.616 481>
LayerCount: 2
Fore
SplineSet
405 482 m 1
 481 482 l 1
 205 -259 l 1
 120 -259 l 1
 219 -19 l 1
 22 482 l 1
 103 482 l 1
 254 73 l 1
 405 482 l 1
EndSplineSet
EndChar

StartChar: f
Encoding: 102 102 27
Width: 372
VWidth: 1023
Flags: HW
HStem: 0 21G<95.9523 177> 419 63<25 95 176 337>
VStem: 95 81<0 419 482 598.575>
LayerCount: 2
Fore
SplineSet
311 693 m 4
 332 690 352 685 372 679 c 5
 359 619 l 5
 328 627 303 631 281 631 c 0
 266 631 254 630 243 626 c 4
 193 609 176 584 176 528 c 6
 176 482 l 5
 337 482 l 5
 337 419 l 5
 176 419 l 5
 177 0 l 5
 96 0 l 5
 95 419 l 5
 25 419 l 5
 25 482 l 5
 95 482 l 5
 95 531 l 6
 95 573 100 604 110 622 c 4
 139 672 188 698 256 698 c 0
 273 698 291 696 311 693 c 4
EndSplineSet
EndChar

StartChar: G
Encoding: 71 71 28
Width: 758
VWidth: 1023
Flags: HMW
HStem: -9 73<347.505 562.505> 298 68<415.505 612.505> 625 73
VStem: 95 83<235 463> 613 78<103 298>
LayerCount: 2
Fore
SplineSet
576 601 m 0
 528 618 482 627 441 627 c 0
 390 627 344 614 303 587 c 0
 222 534 180 456 178 354 c 0
 178 352 177 350 177 348 c 0
 177 233 239 145 315 101 c 0
 358 76 409 64 467 64 c 0
 525 64 574 83 613 121 c 1
 613 298 l 1
 416 298 l 1
 416 366 l 1
 694 366 l 1
 691 94 l 1
 636 31 554 -9 435 -9 c 0
 432 -9 430 -9 427 -9 c 0
 286 -7 192 64 139 164 c 0
 110 218 95 282 95 346 c 0
 95 410 110 473 139 527 c 0
 168 581 208 624 259 654 c 0
 311 685 368 699 433 699 c 0
 459 699 488 697 516 692 c 0
 567 683 615 666 662 640 c 1
 629 578 l 1
 612 587 594 594 576 601 c 0
EndSplineSet
EndChar

StartChar: H
Encoding: 72 72 29
Width: 740
VWidth: 1023
Flags: HW
HStem: 0 21G<90 177 562 650> 311 75<177 562>
VStem: 90 87<0 311 386 692> 562 88<0 311 386 692>
LayerCount: 2
Back
SplineSet
174.316 394.531 m 5xea
 644.043 394.531 l 5
 644.043 321.289 l 5
 174.316 321.289 l 5
 174.316 394.531 l 5xea
595.703 693.848 m 5xe4
 678.711 693.848 l 5
 678.711 0 l 5
 595.703 0 l 5
 595.703 693.848 l 5xe4
141.602 693.848 m 5xf0
 224.609 693.848 l 5
 224.609 0 l 5
 141.602 0 l 5
 141.602 693.848 l 5xf0
EndSplineSet
Fore
SplineSet
562 692 m 1
 650 692 l 1
 650 0 l 1
 562 0 l 1
 562 311 l 1
 177 311 l 1
 177 0 l 1
 90 0 l 1
 90 692 l 1
 177 692 l 1
 177 386 l 1
 562 386 l 1
 562 692 l 1
EndSplineSet
EndChar

StartChar: g
Encoding: 103 103 30
Width: 542
VWidth: 1023
Flags: HMW
HStem: -261 73 0 73 408 73
VStem: 406 80<-123 23 74 407>
LayerCount: 2
Fore
SplineSet
202 475 m 0
 228 486 255 491 283 491 c 0
 319 491 357 482 397 464 c 1
 420 454 l 1
 430 482 l 1
 486 482 l 1
 486 -23 l 2
 486 -113 470 -157 422 -203 c 128
 382 -242 319 -264 248 -264 c 0
 213 -264 176 -259 139 -247 c 0
 126 -243 113 -239 100 -233 c 1
 122 -175 l 1
 164 -190 202 -198 237 -198 c 0
 266 -198 292 -193 316 -183 c 0
 368 -162 397 -120 404 -58 c 0
 406 -44 406 -22 406 9 c 2
 406 23 l 1
 368 2 323 -10 279 -10 c 0
 247 -10 216 -4 186 10 c 128
 120 40 70 111 64 201 c 0
 63 212 63 223 63 233 c 0
 63 355 112 437 202 475 c 0
406 83 m 1
 406 400 l 1
 363 418 324 426 291 426 c 0
 260 426 234 419 211 404 c 0
 173 379 150 338 143 283 c 0
 141 269 140 257 140 244 c 0
 140 206 148 171 164 139 c 0
 187 92 234 56 299 56 c 0
 304 56 310 56 316 57 c 128
 349 60 379 68 406 83 c 1
EndSplineSet
EndChar

StartChar: O
Encoding: 79 79 31
Width: 811
VWidth: 1023
Flags: HW
HStem: -8 74<322.31 515.429> 626 74<322.31 515.429>
VStem: 90 94<221.501 470.277> 654 94<221.501 470.11>
LayerCount: 2
Back
SplineSet
425.781 628.418 m 4
 361.807 628.066 298.066 600.322 255.859 552.246 c 4
 231.48 524.478 214.299 490.771 203.924 455.305 c 4
 193.55 419.838 189.581 382.646 190.43 345.703 c 4
 191.991 277.713 210.051 208.352 251.953 154.785 c 4
 273.873 126.764 302.15 103.687 334.205 88.251 c 4
 366.258 72.8145 401.926 64.9824 437.5 65.4297 c 4
 472.126 65.8652 506.67 74.1562 537.563 89.8008 c 4
 568.457 105.445 595.518 128.484 616.211 156.25 c 4
 656.216 209.926 671.797 278.76 671.875 345.703 c 4
 671.943 404.287 660.132 463.989 629.883 514.16 c 4
 608.818 549.102 578.726 578.623 543.081 598.481 c 4
 507.441 618.345 466.58 628.643 425.781 628.418 c 4
  Spiro
    255.859 552.246 o
    190.43 345.703 o
    251.953 154.785 o
    437.5 65.4297 o
    616.211 156.25 o
    671.875 345.703 o
    629.883 514.16 o
    425.781 628.418 o
    0 0 z
  EndSpiro
435.059 701.172 m 4
 479.1 700.747 523.159 692.344 563.857 675.513 c 4
 604.556 658.682 641.724 633.14 671.387 600.586 c 4
 702.319 566.641 724.829 525.391 738.691 481.605 c 4
 752.554 437.822 758.208 391.62 757.324 345.703 c 4
 756.362 295.709 747.705 245.682 729.81 198.988 c 4
 711.919 152.295 684.214 109.1 647.461 75.1953 c 4
 588.594 20.8945 507.822 -7.39258 427.734 -7.32422 c 4
 345.117 -7.25391 261.688 23.2676 203.125 81.543 c 4
 168.952 115.549 143.703 158.05 127.832 203.572 c 4
 111.96 249.094 104.936 297.493 104.98 345.703 c 4
 105.028 396.167 112.801 446.833 130.207 494.199 c 4
 147.611 541.567 175.283 585.439 212.402 619.629 c 4
 271.945 674.473 354.111 701.958 435.059 701.172 c 4
  Spiro
    671.387 600.586 o
    757.324 345.703 o
    647.461 75.1953 o
    427.734 -7.32422 o
    203.125 81.543 o
    104.98 345.703 o
    212.402 619.629 o
    435.059 701.172 o
    0 0 z
  EndSpiro
EndSplineSet
Fore
SplineSet
419 626 m 0
 316 626 249 564 214 490 c 0
 194 448 184 400 184 346 c 0
 184 235 229 147 297 102 c 0
 333 78 374 66 419 66 c 0
 522 66 589 128 624 202 c 0
 644 244 654 292 654 346 c 0
 654 456 609 545 541 590 c 0
 505 614 464 626 419 626 c 0
90 346 m 0
 90 492 150 601 245 656 c 0
 295 685 353 700 419 700 c 0
 560 700 658 630 707 532 c 0
 734 478 748 416 748 346 c 0
 748 200 687 91 592 36 c 0
 542 7 485 -8 419 -8 c 0
 277 -8 180 62 130 160 c 0
 103 213 90 276 90 346 c 0
EndSplineSet
EndChar

StartChar: A
Encoding: 65 65 32
Width: 648
VWidth: 1023
Flags: HW
HStem: 0 21G<30 113.931 527.069 618> 202 72<202 438> 674 20G<269.882 378.118>
LayerCount: 2
Fore
SplineSet
277 694 m 1
 371 694 l 1
 618 0 l 1
 534 0 l 1
 464 202 l 1
 177 202 l 1
 107 0 l 1
 30 0 l 1
 277 694 l 1
321 613 m 1
 202 274 l 1
 438 274 l 1
 321 613 l 1
EndSplineSet
EndChar

StartChar: L
Encoding: 76 76 33
Width: 537
VWidth: 1023
Flags: HW
HStem: 0 73<210.8 521.8> 674 20G<127.8 210.8>
VStem: 128 83<73 694>
LayerCount: 2
Fore
SplineSet
128 694 m 1
 211 694 l 1
 211 73 l 1
 522 73 l 1
 522 0 l 1
 128 0 l 1
 128 694 l 1
EndSplineSet
EndChar

StartChar: E
Encoding: 69 69 34
Width: 556
VWidth: 1023
Flags: HW
HStem: 0 73<173 496> 321 73<173 469> 621 73<173 496>
VStem: 90 83<73 321 394 621>
LayerCount: 2
Fore
SplineSet
90 0 m 1
 90 694 l 1
 496 694 l 1
 496 621 l 1
 173 621 l 1
 173 394 l 1
 469 394 l 1
 469 321 l 1
 173 321 l 1
 173 73 l 1
 496 73 l 1
 496 0 l 1
 90 0 l 1
EndSplineSet
EndChar

StartChar: F
Encoding: 70 70 35
Width: 551
VWidth: 1023
Flags: HW
HStem: 0 21G<90 173> 321 73<173 462> 621 73<173 491>
VStem: 90 83<0 321 394 621>
LayerCount: 2
Fore
SplineSet
173 621 m 1
 173 394 l 1
 462 394 l 1
 462 321 l 1
 173 321 l 1
 173 0 l 1
 90 0 l 1
 90 694 l 1
 491 694 l 1
 491 621 l 1
 173 621 l 1
EndSplineSet
EndChar

StartChar: N
Encoding: 78 78 36
Width: 746
VWidth: 1023
Flags: HW
HStem: 0 21G<90 173 538.01 656> 674 20G<90 208.012 573 656>
VStem: 90 83<0 582> 573 83<113 694>
LayerCount: 2
Fore
SplineSet
90 694 m 1
 195 694 l 1
 573 113 l 1
 573 694 l 1
 656 694 l 1
 656 0 l 1
 551 0 l 1
 173 582 l 1
 173 0 l 1
 90 0 l 1
 90 694 l 1
EndSplineSet
EndChar

StartChar: V
Encoding: 86 86 37
Width: 647
VWidth: 1023
Flags: HW
HStem: 0 21G<265.026 381.974> 674 20G<30 135.535 518.465 617>
LayerCount: 2
Fore
SplineSet
30 694 m 1
 129 694 l 1
 327 88 l 1
 525 694 l 1
 617 694 l 1
 375 0 l 1
 272 0 l 1
 30 694 l 1
EndSplineSet
EndChar

StartChar: Z
Encoding: 90 90 38
Width: 652
VWidth: 1023
Flags: HW
HStem: 0 73<178.4 626.4> 621 73<82.4004 494.4>
LayerCount: 2
Fore
SplineSet
82 694 m 1
 613 694 l 1
 613 641 l 1
 178 73 l 1
 626 73 l 1
 626 0 l 1
 68 0 l 1
 68 54 l 1
 494 621 l 1
 82 621 l 1
 82 694 l 1
EndSplineSet
EndChar

StartChar: T
Encoding: 84 84 39
Width: 585
VWidth: 1023
Flags: HW
HStem: 0 21G<268.8 351.8> 621 73<37.7998 268.8 351.8 583.8>
VStem: 269 83<0 621>
LayerCount: 2
Fore
SplineSet
38 694 m 1
 584 694 l 1
 584 621 l 1
 352 621 l 1
 352 0 l 1
 269 0 l 1
 269 621 l 1
 38 621 l 1
 38 694 l 1
EndSplineSet
EndChar

StartChar: I
Encoding: 73 73 40
Width: 328
VWidth: 1023
Flags: HW
HStem: 0 21G<140.4 223.4> 674 20G<140.4 223.4>
VStem: 140 83<0 694>
LayerCount: 2
Fore
SplineSet
140 694 m 1
 223 694 l 1
 223 0 l 1
 140 0 l 1
 140 694 l 1
EndSplineSet
EndChar

StartChar: X
Encoding: 88 88 41
Width: 660
VWidth: 1023
Flags: HW
HStem: 0 21G<48.5996 163.956 527.243 647.6> 674 20G<77.5996 192.086 512.496 620.6>
LayerCount: 2
Fore
SplineSet
526 694 m 1
 621 694 l 1
 402 364 l 1
 648 0 l 1
 541 0 l 1
 346 292 l 1
 151 0 l 1
 49 0 l 1
 299 362 l 1
 78 694 l 1
 179 694 l 1
 355 433 l 1
 526 694 l 1
EndSplineSet
EndChar

StartChar: Y
Encoding: 89 89 42
Width: 609
VWidth: 1023
Flags: HW
HStem: 0 21G<273.1 356.1> 674 20G<44.0996 154.434 486.556 592.1>
VStem: 273 83<0 329>
LayerCount: 2
Fore
SplineSet
44 694 m 1
 142 694 l 1
 319 407 l 1
 499 694 l 1
 592 694 l 1
 356 329 l 1
 356 0 l 1
 273 0 l 1
 273 329 l 1
 44 694 l 1
EndSplineSet
EndChar

StartChar: K
Encoding: 75 75 43
Width: 673
VWidth: 1023
Flags: HW
HStem: 0 21G<127.8 210.8 514.384 638.8> 674 20G<127.8 210.8 498.403 619.8>
VStem: 128 83<0 694>
LayerCount: 2
Fore
SplineSet
128 694 m 1
 211 694 l 1
 211 0 l 1
 128 0 l 1
 128 694 l 1
516 694 m 1
 620 694 l 1
 327 363 l 1
 639 0 l 1
 532 0 l 1
 222 356 l 1
 516 694 l 1
EndSplineSet
EndChar

StartChar: M
Encoding: 77 77 44
Width: 855
VWidth: 1023
Flags: HW
HStem: 0 21G<90 173 682 765> 674 20G<90 217.546 645.216 765>
VStem: 90 83<0 575> 682 83<0 575>
LayerCount: 2
Fore
SplineSet
90 694 m 1
 207 694 l 1
 429 273 l 1
 656 694 l 1
 765 694 l 1
 765 0 l 1
 682 0 l 1
 682 575 l 1
 469 199 l 1
 386 199 l 1
 173 575 l 1
 173 0 l 1
 90 0 l 1
 90 694 l 1
EndSplineSet
EndChar

StartChar: hyphen
Encoding: 45 45 45
Width: 400
VWidth: 1023
Flags: HW
HStem: 288 67<55 345>
VStem: 55 290<288 355>
LayerCount: 2
Fore
SplineSet
55 355 m 5
 345 355 l 5
 345 288 l 5
 55 288 l 5
 55 355 l 5
EndSplineSet
EndChar

StartChar: J
Encoding: 74 74 46
Width: 449
VWidth: 1023
Flags: HW
HStem: 673 20G<274.6 357.6>
VStem: 275 83<115.756 693>
LayerCount: 2
Fore
SplineSet
275 693 m 1
 358 693 l 1
 358 208 l 2
 358 133 347 91 310 52 c 0
 272 11 209 -8 141 -8 c 0
 111 -8 80 -5 49 3 c 1
 62 73 l 1
 86 67 109 64 131 64 c 0
 201 64 255 94 270 152 c 0
 273 164 275 182 275 204 c 2
 275 693 l 1
EndSplineSet
EndChar

StartChar: R
Encoding: 82 82 47
Width: 634
VWidth: 1023
Flags: HW
HStem: 0 21G<90 173 482.034 588> 289 73<173 307> 621 73<173 410.51>
VStem: 90 83<0 289 362 621>
LayerCount: 2
Fore
SplineSet
548 505 m 0
 548 394 489 318 392 298 c 1
 588 0 l 1
 495 0 l 1
 307 290 l 1
 297 290 277 289 246 289 c 2
 173 289 l 1
 173 0 l 1
 90 0 l 1
 90 694 l 1
 344 694 l 2
 418 694 461 683 497 645 c 0
 530 610 548 563 548 505 c 0
173 362 m 1
 256 362 l 2
 301 362 328 363 339 364 c 0
 396 369 434 393 453 436 c 0
 461 454 465 473 465 492 c 0
 465 509 462 526 456 543 c 0
 433 603 386 621 300 621 c 2
 173 621 l 1
 173 362 l 1
EndSplineSet
EndChar

StartChar: D
Encoding: 68 68 48
Width: 762
VWidth: 1023
Flags: HW
HStem: 0 74<218.9 465.702> 620 73<218.9 465.149>
VStem: 127 92<74 620> 609 96<217.98 482.361>
LayerCount: 2
Back
SplineSet
224.609 620.605 m 1
 224.609 73.2422 l 1
 325.684 73.2422 l 2
 356.339 73.2422 387.133 73.4502 417.41 78.252 c 0
 447.688 83.0547 477.387 92.5332 503.906 107.91 c 0
 540.991 129.412 570.991 162.426 590.332 200.684 c 0
 611.763 243.084 621.069 290.893 622.559 338.379 c 0
 624.404 397.117 613.97 457.562 583.496 507.812 c 0
 560.356 545.967 525.962 577.153 485.84 596.68 c 0
 466.355 606.162 445.521 612.856 424.166 616.523 c 0
 402.809 620.19 381.044 620.605 359.375 620.605 c 2
 224.609 620.605 l 1
  Spiro
    224.609 620.605 v
    224.609 73.2422 v
    325.684 73.2422 ]
    503.906 107.91 o
    590.332 200.684 o
    622.559 338.379 o
    583.496 507.812 o
    485.84 596.68 o
    359.375 620.605 [
    0 0 z
  EndSpiro
141.602 693.848 m 1
 335.449 693.848 l 2
 399.917 693.848 465.699 689.883 525.391 665.527 c 0
 578.403 643.896 625.679 607.183 656.738 559.082 c 0
 697.134 496.523 708.804 419.121 705.566 344.727 c 0
 703.608 299.721 696.514 254.77 682.212 212.053 c 0
 667.91 169.336 645.684 128.937 614.746 96.1914 c 0
 576.328 55.5254 524.971 28.2363 470.703 14.6484 c 0
 412.566 0.0927734 351.924 0 291.992 0 c 2
 141.602 0 l 1
 141.602 693.848 l 1
  Spiro
    141.602 693.848 v
    335.449 693.848 ]
    525.391 665.527 o
    656.738 559.082 o
    705.566 344.727 o
    614.746 96.1914 o
    470.703 14.6484 o
    291.992 0 [
    141.602 0 v
    0 0 z
  EndSpiro
EndSplineSet
Fore
SplineSet
705 347 m 0
 705 114 564 0 324 0 c 2
 127 0 l 1
 127 693 l 1
 356 693 l 2
 578 693 705 570 705 347 c 0
609 354 m 0
 609 534 515 620 335 620 c 2
 219 620 l 1
 219 74 l 1
 336 74 l 2
 522 74 609 167 609 354 c 0
EndSplineSet
EndChar

StartChar: P
Encoding: 80 80 49
Width: 633
VWidth: 1023
Flags: HW
HStem: 0 21G<127.8 210.8> 291 73<210.8 448.009> 621 73<210.8 447.996>
VStem: 128 83<0 291 362.49 621>
LayerCount: 2
Fore
SplineSet
128 694 m 1
 346 694 l 2
 442 694 491 688 536 645 c 1
 570 611 587 567 587 512 c 0
 587 503 587 493 586 483 c 0
 577 393 534 332 459 307 c 0
 418 293 358 288 296 288 c 0
 267 288 239 289 211 291 c 1
 211 0 l 1
 128 0 l 1
 128 694 l 1
211 364 m 1
 244 361 273 360 299 360 c 0
 312 360 325 360 337 361 c 0
 421 366 461 375 489 433 c 0
 499 453 503 473 503 494 c 0
 503 509 501 525 496 540 c 0
 480 586 444 612 388 618 c 0
 375 620 346 621 301 621 c 2
 211 621 l 1
 211 364 l 1
EndSplineSet
EndChar

StartChar: B
Encoding: 66 66 50
Width: 632
VWidth: 1023
Flags: HMW
HStem: 0 73<173 430.5> 333 64<173 369.634> 630 64<173 400.428>
VStem: 90 83<73 333 397 630> 445 80<455.096 589.018> 493 82<129.551 273.926>
LayerCount: 2
Fore
SplineSet
445 523 m 0
 445 595 390 630 306 630 c 2
 173 630 l 1xf8
 173 397 l 1
 261 400 l 1
 384 403 445 444 445 523 c 0
500 202 m 0
 500 298 415 339 313 339 c 0
 307 339 300 339 294 339 c 2
 173 333 l 1
 173 73 l 1
 326 73 l 2
 420 73 500 109 500 202 c 0
435 388 m 1
 514 373 582 301 582 210 c 0
 582 152 560 103 516 63 c 0
 469 21 402 0 315 0 c 2
 90 0 l 1
 90 694 l 1
 334 694 l 2
 443 694 525 632 525 527 c 0
 525 470 476 404 435 388 c 1
EndSplineSet
EndChar

StartChar: U
Encoding: 85 85 51
Width: 709
VWidth: 1023
Flags: HW
HStem: -10 72<253.432 454.377> 674 20G<91 174 535 618>
VStem: 91 83<136.866 694> 535 83<139.491 694>
LayerCount: 2
Fore
SplineSet
619 223 m 0
 616 59 522 -10 354 -10 c 0
 250 -10 177 17 133 73 c 0
 101 113 90 160 90 223 c 0
 90 232 90 246 90 265 c 0
 90 284 91 296 91 303 c 2
 91 694 l 1
 174 694 l 1
 174 244 l 2
 174 182 181 150 212 115 c 0
 242 81 292 62 354 62 c 0
 441 62 509 101 528 172 c 0
 533 191 535 215 535 244 c 2
 535 694 l 1
 618 694 l 1
 618 265 l 2
 618 246 619 232 619 223 c 0
EndSplineSet
EndChar

StartChar: Q
Encoding: 81 81 52
Width: 816
VWidth: 1023
Flags: HW
HStem: -7 72<331.85 533.309> 628 73<320.796 517.256>
VStem: 94 85<226.191 478.985> 662 85<205.95 472.153>
LayerCount: 2
Fore
SplineSet
94 347 m 0
 94 464 138 560 202 620 c 1
 261 674 334 701 423 701 c 0
 425 701 426 701 428 701 c 1
 527 701 609 657 660 601 c 0
 717 537 747 452 747 346 c 0
 747 249 723 169 674 107 c 1
 762 20 l 1
 718 -27 l 1
 626 59 l 1
 572 16 499 -8 423 -8 c 0
 380 -8 336 0 294 16 c 0
 172 63 94 179 94 347 c 0
662 340 m 0
 658 472 614 553 532 599 c 0
 496 619 459 628 422 628 c 0
 270 626 179 512 179 357 c 0
 179 227 233 132 324 90 c 0
 359 74 396 66 433 66 c 0
 484 66 534 81 572 111 c 1
 418 256 l 1
 468 309 l 1
 618 162 l 1
 647 206 662 262 662 328 c 0
 662 332 662 336 662 340 c 0
EndSplineSet
EndChar

StartChar: W
Encoding: 87 87 53
Width: 1005
VWidth: 1023
Flags: HW
HStem: 0 21G<236.718 336.862 677.69 777.994> 674 20G<25 120.003 457.997 554.175 892.168 980>
LayerCount: 2
Fore
SplineSet
25 694 m 1
 114 694 l 1
 289 111 l 1
 464 694 l 1
 548 694 l 1
 728 111 l 1
 898 694 l 1
 980 694 l 1
 772 0 l 1
 684 0 l 1
 501 580 l 1
 331 0 l 1
 243 0 l 1
 25 694 l 1
EndSplineSet
EndChar

StartChar: C
Encoding: 67 67 54
Width: 692
VWidth: 1023
Flags: HW
HStem: -10 75<362.126 608.264> 593 68<582.984 632.268> 623 74<358.734 605.483>
VStem: 109 94<227.273 463.76>
LayerCount: 2
Back
SplineSet
485.352 698.73 m 4
 523.003 698.398 560.562 693.369 597.168 684.57 c 4
 621.914 678.623 646.24 670.938 669.922 661.621 c 5
 644.531 592.773 l 5
 619.253 601.538 593.506 608.975 567.383 614.746 c 4
 536.919 621.479 505.806 625.918 474.609 625.488 c 4
 438.33 624.99 402.018 617.48 369.127 602.163 c 4
 336.236 586.846 306.985 563.95 283.691 536.133 c 4
 239.646 483.533 217.05 414.308 217.285 345.703 c 4
 217.512 279.537 239.38 212.94 281.738 162.109 c 4
 305.852 133.172 336.359 109.612 370.413 93.5117 c 4
 404.466 77.4102 441.875 68.8252 479.492 66.8945 c 4
 512.349 65.208 545.347 68.3916 577.637 74.707 c 4
 603.511 79.7676 628.979 86.8408 653.809 95.7031 c 5
 679.199 34.1797 l 5
 650.796 21.833 621.372 11.8291 591.309 4.39453 c 4
 531.401 -10.4209 468.48 -15.1689 407.715 -4.39453 c 4
 342.98 7.08398 281.307 37.4521 234.863 83.9844 c 4
 200.997 117.916 175.38 159.746 158.811 204.732 c 4
 142.242 249.719 134.355 297.763 134.277 345.703 c 4
 134.133 434.139 161.803 524.365 220.703 590.332 c 4
 253.451 627.007 295.193 655.415 340.955 673.398 c 4
 386.717 691.382 436.186 699.165 485.352 698.73 c 4
  Spiro
    485.352 698.73 o
    597.168 684.57 o
    669.922 661.621 v
    644.531 592.773 v
    567.383 614.746 o
    474.609 625.488 o
    283.691 536.133 o
    217.285 345.703 o
    281.738 162.109 o
    479.492 66.8945 o
    577.637 74.707 o
    653.809 95.7031 v
    679.199 34.1797 v
    591.309 4.39453 o
    407.715 -4.39453 o
    234.863 83.9844 o
    134.277 345.703 o
    220.703 590.332 o
    0 0 z
  EndSpiro
EndSplineSet
Fore
SplineSet
630 593 m 1xd0
 568 614 539 623 461 623 c 0
 383 623 314 586 275 543 c 0
 227 491 203 426 203 346 c 0
 203 228 257 144 335 100 c 0xb0
 377 76 425 65 479 65 c 0
 533 65 587 76 641 98 c 1
 662 32 l 1
 601 4 532 -10 455 -10 c 0
 345 -10 259 31 203 89 c 1
 141 155 109 240 109 345 c 0
 109 452 150 541 205 598 c 0
 257 652 346 697 446 697 c 0xb0
 536 697 587 686 653 661 c 1
 630 593 l 1xd0
EndSplineSet
EndChar

StartChar: S
Encoding: 83 83 55
Width: 599
VWidth: 1023
Flags: HW
HStem: -9 81<162.242 386.841> 622 78<230.37 485.598>
VStem: 74 91<457.824 569.074> 449 90<123.688 240.321>
LayerCount: 2
Fore
SplineSet
283 72 m 0
 365 72 449 106 449 182 c 0
 449 224 424 256 375 278 c 0
 304 310 213 330 149 368 c 0
 109 392 74 436 74 497 c 0
 74 560 108 610 147 640 c 0
 196 678 264 700 354 700 c 0
 401 700 454 691 516 672 c 1
 489 597 l 1
 430 614 379 622 333 622 c 0
 255 622 165 586 165 513 c 0
 165 478 184 451 223 431 c 0
 258 413 295 398 332 387 c 0
 399 367 436 350 481 317 c 0
 520 288 539 247 539 194 c 0
 539 155 526 118 501 84 c 0
 456 25 378 -9 271 -9 c 0
 182 -9 131 10 60 37 c 1
 89 118 l 1
 170 88 235 72 283 72 c 0
EndSplineSet
EndChar

StartChar: at
Encoding: 64 64 56
Width: 1025
VWidth: 1023
Flags: HW
HStem: -169 67<579.952 670> -11 69<446.268 596.665 726.909 827.977> 417 63<459.27 633.792> 616 68<403.194 682.67>
VStem: 77 86<98.3564 373.277> 297 88<124.575 335.179> 635 77<88.3315 407.31> 881 83<145.774 416.849>
LayerCount: 2
Back
SplineSet
645.996 472.656 m 5
 701.172 472.656 l 5
 699.707 123.047 l 6
 699.653 110.273 699.531 97.4766 700.669 84.7549 c 4
 701.807 72.0332 704.302 59.3037 709.595 47.6797 c 4
 714.888 36.0557 723.135 25.6211 733.906 18.75 c 4
 744.673 11.8789 757.812 8.83301 770.508 10.2539 c 4
 787.7 12.1777 803.247 21.8975 815.43 34.1797 c 4
 828.623 47.4795 838.696 63.6211 846.68 80.5664 c 4
 872.974 136.375 877.222 200.03 876.465 261.719 c 4
 875.947 304.16 872.271 346.78 861.777 387.906 c 4
 851.279 429.033 833.081 468.575 805.664 500.977 c 4
 781.143 529.956 749.717 552.769 715.332 568.848 c 4
 661.201 594.16 600.771 604.062 541.016 604.492 c 4
 470.471 604.995 398.461 591.343 337.891 555.176 c 4
 278.573 519.756 233.471 463.037 206.543 399.414 c 4
 181.696 340.708 170.298 276.639 170.41 212.891 c 4
 170.547 135.005 189.568 55.5488 234.863 -7.8125 c 4
 264.729 -49.5918 305.405 -83.4404 351.562 -105.957 c 4
 415.218 -137.01 489.058 -146.763 558.594 -133.301 c 4
 586.465 -127.904 613.628 -118.854 639.16 -106.445 c 5
 669.922 -164.551 l 5
 643.877 -178.023 616.294 -188.514 587.891 -195.801 c 4
 503.315 -217.5 412.363 -210.842 330.078 -181.641 c 4
 264.727 -158.448 204.056 -119.184 162.109 -63.9648 c 4
 134.932 -28.1875 116.017 13.5137 104.591 56.9668 c 4
 93.166 100.42 88.7402 145.502 88.3789 190.43 c 4
 87.7461 269.055 98.2734 348.475 126.465 421.875 c 4
 159.625 508.213 222.166 583.799 303.711 627.441 c 4
 380.87 668.735 470.103 683.218 557.617 683.105 c 4
 618.545 683.027 680.039 675.708 737.305 654.897 c 4
 794.57 634.087 846.821 598.12 883.301 549.316 c 4
 913.525 508.887 932.612 460.918 943.56 411.642 c 4
 954.502 362.364 958.364 311.708 958.496 261.23 c 4
 958.604 220.584 956.143 179.778 948.042 139.947 c 4
 939.946 100.115 925.713 61.0879 902.344 27.832 c 4
 886.26 4.94434 865.903 -15.0605 842.124 -29.7979 c 4
 818.35 -44.5352 791.108 -53.9883 763.184 -55.6641 c 4
 742.866 -56.8828 722.217 -53.9102 703.364 -46.2334 c 4
 684.512 -38.5557 667.593 -26.1045 654.858 -10.2246 c 4
 642.124 5.65625 633.735 24.7959 629.443 44.6934 c 4
 625.151 64.5918 624.937 85.1133 625 105.469 c 6
 625.977 414.551 l 5
 645.996 472.656 l 5
  Spiro
    645.996 472.656 v
    701.172 472.656 v
    699.707 123.047 ]
    770.508 10.2539 o
    815.43 34.1797 o
    846.68 80.5664 o
    876.465 261.719 o
    805.664 500.977 o
    715.332 568.848 o
    541.016 604.492 o
    337.891 555.176 o
    206.543 399.414 o
    170.41 212.891 o
    234.863 -7.8125 o
    351.562 -105.957 o
    558.594 -133.301 o
    639.16 -106.445 v
    669.922 -164.551 v
    587.891 -195.801 o
    330.078 -181.641 o
    162.109 -63.9648 o
    88.3789 190.43 o
    126.465 421.875 o
    303.711 627.441 o
    557.617 683.105 o
    883.301 549.316 o
    958.496 261.23 o
    902.344 27.832 o
    763.184 -55.6641 o
    625 105.469 [
    625.977 414.551 v
    0 0 z
  EndSpiro
540.039 468.75 m 4
 566.196 466.015 591.895 459.246 616.211 449.219 c 4
 630.22 443.44 643.784 436.574 656.738 428.711 c 5
 631.348 385.254 l 5
 616.714 392.059 601.514 397.643 585.938 401.855 c 4
 556.421 409.84 525.239 412.979 495.117 407.715 c 4
 474.732 404.152 454.985 396.633 437.744 385.189 c 4
 420.502 373.747 405.895 358.426 395.02 340.82 c 4
 375.273 308.854 367.802 270.483 367.676 232.91 c 4
 367.555 196.895 374.216 160.174 392.09 128.906 c 4
 406.17 104.277 427.406 83.7725 452.637 70.8008 c 4
 479.802 56.834 511.04 51.5117 541.504 53.7109 c 4
 588.081 57.0723 633.008 77.3867 667.48 108.887 c 5
 685.059 65.4297 l 5
 639.16 21.8086 577.881 -5.97363 514.648 -9.27734 c 4
 480.793 -11.0459 446.401 -5.63379 415.332 7.93262 c 4
 384.262 21.5 356.859 43.3857 336.914 70.8008 c 4
 305.317 114.232 293.04 169.438 293.457 223.145 c 4
 293.695 253.865 297.92 284.629 306.937 313.998 c 4
 315.953 343.367 330.045 371.332 349.609 395.02 c 4
 371.037 420.963 399 441.441 430.176 454.102 c 4
 464.752 468.143 502.925 472.631 540.039 468.75 c 4
  Spiro
    540.039 468.75 o
    616.211 449.219 o
    656.738 428.711 v
    631.348 385.254 v
    585.938 401.855 o
    495.117 407.715 o
    395.02 340.82 o
    367.676 232.91 o
    392.09 128.906 o
    452.637 70.8008 o
    541.504 53.7109 o
    667.48 108.887 v
    685.059 65.4297 v
    514.648 -9.27734 o
    336.914 70.8008 o
    293.457 223.145 o
    349.609 395.02 o
    430.176 454.102 o
    0 0 z
  EndSpiro
EndSplineSet
Fore
SplineSet
712 146 m 2
 712 88 728 56 778 56 c 0
 813 56 834 82 849 109 c 0
 870 147 881 205 881 283 c 0
 881 356 865 419 832 473 c 0
 774 569 677 616 540 616 c 0
 421 616 329 572 268 511 c 0
 209 452 163 355 163 243 c 0
 163 90 221 -13 314 -73 c 0
 369 -109 437 -128 513 -128 c 0
 563 -128 616 -119 670 -102 c 1
 670 -169 l 1
 606 -189 545 -198 489 -198 c 0
 344 -198 228 -137 157 -37 c 0
 104 38 77 128 77 236 c 0
 77 377 133 489 208 561 c 0
 277 627 398 684 523 684 c 0
 667 684 760 655 836 589 c 0
 880 551 913 508 934 450 c 1
 954 399 964 350 964 301 c 0
 964 179 937 95 876 38 c 0
 842 6 805 -11 765 -11 c 0
 710 -11 672 11 650 54 c 1
 612 11 564 -11 506 -11 c 0
 463 -11 426 0 394 20 c 0
 330 61 297 128 297 224 c 0
 297 305 320 369 366 414 c 0
 410 458 466 480 532 480 c 0
 569 480 609 472 652 455 c 1
 660 475 l 1
 712 475 l 1
 712 146 l 2
385 232 m 0
 385 130 427 58 524 58 c 0
 553 58 576 63 595 75 c 0
 614 87 627 99 636 111 c 1
 636 115 635 119 635 123 c 2
 635 400 l 1
 604 412 573 417 541 417 c 0
 440 417 385 336 385 232 c 0
EndSplineSet
EndChar

StartChar: question
Encoding: 63 63 57
Width: 510
VWidth: 1023
Flags: HW
HStem: 0 98<152 250> 632 70<77.4705 293.883>
VStem: 152 98<0 98> 159 83<191 281.203> 347 81<451.131 586.181>
LayerCount: 2
Fore
SplineSet
152 98 m 1xe8
 250 98 l 1
 250 0 l 1
 152 0 l 1
 152 98 l 1xe8
214 702 m 0
 334 702 428 652 428 536 c 0
 428 485 416 443 391 412 c 0
 380 398 367 385 354 373 c 2
 315 339 l 2
 283 312 264 287 255 263 c 0
 246 239 242 215 242 191 c 1
 159 191 l 1xd8
 159 246 171 290 196 324 c 0
 214 348 235 370 258 389 c 0
 304 425 347 454 347 522 c 0
 347 595 291 632 179 632 c 0
 144 632 109 624 74 609 c 1
 49 668 l 1
 94 690 149 702 214 702 c 0
EndSplineSet
EndChar

StartChar: eight
Encoding: 56 56 58
Width: 634
VWidth: 1023
Flags: HMW
HStem: 0 73<230.774 410.633> 340 65 620 73<238.786 398.022>
VStem: 73 85<129.825 268.901> 112 82<480.306 590.868> 442 80<475.656 591.023> 476 86<123.881 267.459>
LayerCount: 2
Fore
SplineSet
306 633 m 0
 252 633 194 589 194 536 c 0
 194 491 227 456 293 432 c 0
 303 428 315 425 329 420 c 2
 341 416 l 1
 384 443 412 464 424 480 c 0
 436 496 442 514 442 534 c 0
 442 578 411 608 378 622 c 0xec
 359 630 334 633 306 633 c 0
320 63 m 0
 406 63 476 112 476 194 c 0
 476 259 436 307 354 338 c 0
 339 344 322 349 303 354 c 1
 232 333 158 279 158 198 c 0xf2
 158 118 236 63 320 63 c 0
318 703 m 0
 438 703 522 648 522 534 c 0xec
 522 506 515 480 499 457 c 0
 483 434 458 411 424 387 c 1
 471 366 506 339 528 307 c 0
 550 275 562 239 562 200 c 0
 562 156 548 116 521 81 c 0
 475 20 408 -10 320 -10 c 0
 224 -10 147 29 106 87 c 0
 84 118 73 152 73 191 c 0xf2
 73 283 143 353 212 386 c 1
 160 412 128 451 116 502 c 0
 113 514 112 528 112 545 c 0xe8
 112 589 140 630 166 653 c 0
 203 686 253 703 318 703 c 0
EndSplineSet
EndChar

StartChar: nine
Encoding: 57 57 59
Width: 634
VWidth: 1023
Flags: HMW
HStem: 0 73<137 174.297> 256 65<239.089 398.008> 620 73
VStem: 470 82<394.829 547.695>
LayerCount: 2
Fore
SplineSet
458 320 m 1
 425 283 367 256 299 256 c 0
 231 257 176 280 135 327 c 0
 101 365 84 416 84 468 c 0
 84 502 91 536 107 569 c 0
 121 598 139 622 161 642 c 0
 208 683 260 704 319 704 c 0
 431 704 504 639 531 557 c 0
 545 514 552 462 552 408 c 0
 552 351 545 292 532 240 c 0
 494 83 373 -7 189 -7 c 0
 184 -7 180 -7 175 -7 c 0
 160 -7 145 -6 131 -4 c 1
 137 68 l 1
 157 66 177 65 195 65 c 0
 341 65 426 129 450 262 c 0
 452 276 455 295 458 320 c 1
427 579 m 1
 402 607 359 635 312 635 c 0
 294 635 276 631 257 622 c 1
 208 600 167 542 164 484 c 0
 164 481 164 478 164 475 c 0
 164 440 175 410 198 381 c 0
 229 344 267 325 312 324 c 0
 313 324 315 324 316 324 c 0
 359 324 396 338 426 367 c 0
 456 397 469 432 469 469 c 0
 469 507 455 546 427 579 c 1
EndSplineSet
EndChar

StartChar: six
Encoding: 54 54 60
Width: 634
VWidth: 1023
Flags: HMW
HStem: 0 73<246.743 392.767> 620 73<312.016 497>
VStem: 83 81<146.101 314.54>
LayerCount: 2
Fore
SplineSet
173 388 m 1
 208 427 264 455 335 455 c 1
 403 454 458 431 499 384 c 0
 532 345 550 290 550 234 c 0
 550 197 543 160 527 126 c 0
 513 96 495 71 473 50 c 0
 428 9 375 -12 316 -12 c 0
 257 -12 209 3 174 32 c 0
 109 85 85 158 83 267 c 0
 83 273 83 278 83 284 c 0
 83 500 158 631 307 679 c 0
 350 693 395 699 443 699 c 0
 463 699 483 698 503 696 c 1
 497 624 l 1
 477 626 459 627 441 627 c 0
 301 627 209 561 182 440 c 0
 179 427 176 409 173 388 c 1
384 371 m 0
 362 382 340 386 318 386 c 0
 275 386 234 368 208 344 c 1
 178 313 165 273 165 232 c 0
 165 189 180 147 207 113 c 0
 238 76 275 56 319 56 c 0
 409 56 470 143 470 229 c 0
 470 265 459 300 436 330 c 0
 422 347 405 361 384 371 c 0
EndSplineSet
EndChar

StartChar: seven
Encoding: 55 55 61
Width: 634
VWidth: 0
Flags: HMW
HStem: 0 20<150 257.093> 620 73<64 469>
LayerCount: 2
Fore
SplineSet
571 694 m 1
 571 642 l 1
 247 0 l 1
 150 0 l 1
 469 616 l 1
 64 616 l 1
 64 694 l 1
 571 694 l 1
EndSplineSet
EndChar

StartChar: five
Encoding: 53 53 62
Width: 634
VWidth: 1023
Flags: HMW
HStem: 0 73<98.4865 320.784> 620 73<194 533>
VStem: 115 80<431 621> 467 88<140.771 289.085>
LayerCount: 2
Fore
SplineSet
115 694 m 1
 533 694 l 1
 533 621 l 1
 194 621 l 1
 195 431 l 1
 233 435 267 438 297 438 c 0
 323 438 346 436 366 432 c 0
 449 417 505 377 535 314 c 1
 549 283 555 252 555 221 c 0
 555 154 525 92 477 52 c 0
 446 27 412 9 372 1 c 0
 336 -7 296 -10 254 -10 c 0
 202 -10 145 -5 84 7 c 1
 100 81 l 1
 145 72 199 65 250 65 c 0
 311 65 370 75 407 102 c 0
 441 127 469 160 469 213 c 0
 469 220 468 228 467 236 c 0
 459 296 400 342 343 355 c 0
 315 361 287 364 258 364 c 0
 211 364 163 357 115 352 c 1
 115 694 l 1
EndSplineSet
EndChar

StartChar: two
Encoding: 50 50 63
Width: 634
VWidth: 0
Flags: HMW
HStem: 0 73<211 553> 620 73<190.926 386.181>
LayerCount: 2
Fore
SplineSet
97 644 m 1
 163 677 242 699 315 699 c 0
 382 699 444 681 490 636 c 0
 523 603 540 565 540 522 c 0
 540 516 540 509 539 502 c 0
 535 469 524 441 504 415 c 0
 484 389 455 361 417 329 c 0
 379 297 357 278 350 272 c 0
 280 210 239 156 211 73 c 1
 553 73 l 1
 553 0 l 1
 110 0 l 1
 110 45 l 1
 132 114 167 179 215 239 c 0
 260 294 308 337 357 376 c 1
 398 410 l 2
 427 435 445 458 450 479 c 0
 452 488 454 497 454 506 c 0
 454 534 442 559 418 582 c 0
 385 614 347 626 304 626 c 0
 270 626 234 619 195 607 c 2
 116 582 l 1
 97 644 l 1
EndSplineSet
EndChar

StartChar: three
Encoding: 51 51 64
Width: 634
VWidth: 1023
Flags: HMW
HStem: 0 73<133.98 367.562> 334 71<230 346.149> 620 73<174.692 372.029>
VStem: 422 84<465.729 582.069> 452 84<126.258 262.359>
LayerCount: 2
Fore
SplineSet
294 702 m 0
 404 702 506 642 506 538 c 0xf0
 506 460 458 402 399 380 c 1
 480 358 536 307 536 213 c 0
 536 143 511 86 460 43 c 0
 409 0 345 -22 267 -22 c 2
 265 -22 l 2
 206 -22 147 -9 86 16 c 1
 109 83 l 1
 177 64 234 55 278 55 c 0
 322 55 362 68 398 94 c 0
 434 120 452 154 452 195 c 0xe8
 452 238 431 274 388 301 c 0
 353 323 304 334 240 334 c 2
 230 334 l 1
 230 405 l 1
 312 408 368 427 398 463 c 0
 414 482 422 504 422 529 c 0
 422 592 352 627 281 627 c 0
 237 627 186 613 127 586 c 1
 100 652 l 1
 167 685 232 702 294 702 c 0
EndSplineSet
EndChar

StartChar: one
Encoding: 49 49 65
Width: 634
VWidth: 0
Flags: HW
HStem: 0 73<143 306 386 547> 674 20G<241.304 386>
VStem: 306 80<73 614>
LayerCount: 2
Fore
SplineSet
290 694 m 1
 386 694 l 1
 386 73 l 1
 547 73 l 1
 547 0 l 1
 143 0 l 1
 143 73 l 1
 306 73 l 1
 306 614 l 1
 153 554 l 1
 122 625 l 1
 290 694 l 1
EndSplineSet
EndChar

StartChar: zero
Encoding: 48 48 66
Width: 634
VWidth: 1023
Flags: HMW
HStem: 0 73<244.479 391.192> 620 73<241.293 393.906>
VStem: 54 82<203.708 498.348> 498 83<201.979 492.75>
LayerCount: 2
Fore
SplineSet
404 599 m 0
 379 618 352 628 323 628 c 0
 322 628 320 628 319 628 c 0
 193 626 136 498 136 359 c 0
 136 355 136 351 136 347 c 0
 139 218 173 132 239 88 c 0
 263 72 291 63 320 63 c 0
 349 63 375 72 399 90 c 0
 463 137 496 221 498 343 c 0
 498 347 498 350 498 354 c 0
 498 470 466 551 404 599 c 0
54 343 m 0
 54 347 54 352 54 356 c 0
 54 465 78 548 126 608 c 0
 175 668 244 704 318 704 c 0
 356 704 395 694 433 673 c 0
 532 618 581 513 581 357 c 0
 581 352 581 348 581 343 c 0
 578 183 526 68 419 14 c 0
 387 -2 352 -10 316 -10 c 0
 280 -10 246 -1 213 16 c 0
 112 68 57 186 54 343 c 0
EndSplineSet
EndChar

StartChar: four
Encoding: 52 52 67
Width: 634
VWidth: 0
Flags: HW
HStem: 0 21G<375 455> 168 73<154 375 455 576> 674 20G<327.11 455>
VStem: 375 80<0 168 241 615>
LayerCount: 2
Fore
SplineSet
339 694 m 1
 455 694 l 1
 455 241 l 1
 576 241 l 1
 576 168 l 1
 455 168 l 1
 455 0 l 1
 375 0 l 1
 375 168 l 1
 59 168 l 1
 59 223 l 1
 339 694 l 1
375 241 m 1
 375 615 l 1
 154 241 l 1
 375 241 l 1
EndSplineSet
EndChar

StartChar: period
Encoding: 46 46 68
Width: 278
VWidth: 1023
Flags: HW
HStem: 0 103<88 190>
VStem: 88 102<0 103>
LayerCount: 2
Fore
SplineSet
88 103 m 1
 190 103 l 1
 190 0 l 1
 88 0 l 1
 88 103 l 1
EndSplineSet
EndChar

StartChar: comma
Encoding: 44 44 69
Width: 278
VWidth: 1023
Flags: HW
HStem: -107 190<98 108>
VStem: 21 165
LayerCount: 2
Fore
SplineSet
98 83 m 1
 186 83 l 1
 108 -107 l 1
 21 -107 l 1
 98 83 l 1
EndSplineSet
EndChar

StartChar: bracketleft
Encoding: 91 91 70
Width: 370
VWidth: 1023
Flags: HW
HStem: -200 73<202 346> 665 73<202 346>
VStem: 122 224<-200 -127 665 738> 122 80<-127 665>
LayerCount: 2
Back
SplineSet
159.668 737.793 m 5xd0
 345.703 737.793 l 5
 345.703 665.039 l 5xe0
 159.668 665.039 l 5
 159.668 737.793 l 5xd0
159.668 -127.441 m 5xd0
 345.703 -127.441 l 5
 345.703 -200.195 l 5xe0
 159.668 -200.195 l 5
 159.668 -127.441 l 5xd0
122.07 737.793 m 5
 202.148 737.793 l 5
 202.148 -200.195 l 5xd0
 122.07 -200.195 l 5
 122.07 737.793 l 5
EndSplineSet
Fore
SplineSet
346 -200 m 1xe0
 122 -200 l 1
 122 738 l 1
 346 738 l 1
 346 665 l 1xe0
 202 665 l 1
 202 -127 l 1xd0
 346 -127 l 1
 346 -200 l 1xe0
EndSplineSet
EndChar

StartChar: bracketright
Encoding: 93 93 71
Width: 370
VWidth: 1023
Flags: HW
HStem: -200 73<24 168> 665 73<24 168>
VStem: 24 224<-200 -127 665 738> 168 80<-127 665>
LayerCount: 2
Fore
SplineSet
248 -200 m 1xe0
 24 -200 l 1
 24 -127 l 1xe0
 168 -127 l 1
 168 665 l 1xd0
 24 665 l 1
 24 738 l 1
 248 738 l 1
 248 -200 l 1xe0
EndSplineSet
EndChar

StartChar: parenleft
Encoding: 40 40 72
Width: 362
VWidth: 1023
Flags: HW
VStem: 107 86<110.326 451.77>
LayerCount: 2
Fore
SplineSet
193 280 m 0
 193 110 251 -41 323 -158 c 1
 260 -199 l 1
 213 -122 175 -42 148 41 c 0
 121 124 107 204 107 281 c 0
 107 466 182 630 259 756 c 1
 323 722 l 1
 280 651 248 577 226 501 c 0
 204 425 193 351 193 280 c 0
EndSplineSet
EndChar

StartChar: parenright
Encoding: 41 41 73
Width: 362
VWidth: 1023
Flags: HW
VStem: 169 86<106.748 451.831>
LayerCount: 2
Fore
SplineSet
104 756 m 1
 150 681 187 603 214 521 c 0
 241 439 255 358 255 281 c 0
 255 204 242 124 214 41 c 0
 186 -42 149 -122 102 -199 c 1
 39 -158 l 1
 126 -15 169 131 169 281 c 0
 169 352 158 425 136 501 c 0
 114 577 82 651 39 722 c 1
 104 756 l 1
EndSplineSet
EndChar

StartChar: slash
Encoding: 47 47 74
Width: 354
VWidth: 1023
Flags: HW
HStem: 674 20G<255.442 345>
VStem: 20 325
LayerCount: 2
Fore
SplineSet
262 694 m 1
 345 694 l 1
 103 -44 l 1
 20 -44 l 1
 262 694 l 1
EndSplineSet
EndChar

StartChar: backslash
Encoding: 92 92 75
Width: 354
VWidth: 1023
Flags: HW
HStem: 674 20G<10 99.5583>
VStem: 10 325
LayerCount: 2
Fore
SplineSet
10 694 m 1
 93 694 l 1
 335 -44 l 1
 252 -44 l 1
 10 694 l 1
EndSplineSet
EndChar

StartChar: plus
Encoding: 43 43 76
Width: 683
VWidth: 1023
Flags: HW
HStem: 288 67<61 306 378 623>
VStem: 306 72<41 288 355 602>
LayerCount: 2
Fore
SplineSet
306 602 m 1
 378 602 l 1
 378 355 l 1
 623 355 l 1
 623 288 l 1
 378 288 l 1
 378 41 l 1
 306 41 l 1
 306 288 l 1
 61 288 l 1
 61 355 l 1
 306 355 l 1
 306 602 l 1
EndSplineSet
EndChar

StartChar: asterisk
Encoding: 42 42 77
Width: 583
VWidth: 1023
Flags: HW
HStem: 673 20G<250 333>
LayerCount: 2
Fore
SplineSet
250 693 m 1
 333 693 l 1
 325 538 l 1
 455 624 l 1
 496 551 l 1
 357 481 l 1
 496 412 l 1
 455 339 l 1
 325 425 l 1
 333 270 l 1
 250 270 l 1
 259 425 l 1
 129 339 l 1
 88 412 l 1
 227 481 l 1
 88 551 l 1
 129 624 l 1
 259 538 l 1
 250 693 l 1
EndSplineSet
EndChar

StartChar: numbersign
Encoding: 35 35 78
Width: 684
VWidth: 1023
Flags: HW
HStem: 185 73<23 177 255 430 508 663> 430 73<22 177 255 430 508 663> 674 20G<177 255 430 508>
VStem: 177 78<-15 185 258 430 503 694> 430 78<-15 185 258 430 503 694>
LayerCount: 2
Fore
SplineSet
177 694 m 1
 255 694 l 1
 255 503 l 1
 430 503 l 1
 430 694 l 1
 508 694 l 1
 508 503 l 1
 663 503 l 1
 663 430 l 1
 508 430 l 1
 508 258 l 1
 663 258 l 1
 663 185 l 1
 508 185 l 1
 508 -15 l 1
 430 -15 l 1
 430 185 l 1
 255 185 l 1
 255 -15 l 1
 177 -15 l 1
 177 185 l 1
 23 185 l 1
 23 258 l 1
 177 258 l 1
 177 430 l 1
 22 430 l 1
 22 503 l 1
 177 503 l 1
 177 694 l 1
255 258 m 1
 430 258 l 1
 430 430 l 1
 255 430 l 1
 255 258 l 1
EndSplineSet
EndChar

StartChar: dollar
Encoding: 36 36 79
Width: 585
VWidth: 1023
Flags: HW
HStem: 110 63<164.097 270> 548 63<329.377 435.944>
VStem: 123 83<440.019 522.684> 270 59<-32 110 611 738> 397 88<199.495 285.46>
LayerCount: 2
Fore
SplineSet
133 207 m 1
 186 185 209 173 272 173 c 0
 319 173 355 179 379 203 c 0
 391 215 397 229 397 245 c 0
 397 298 349 303 310 318 c 0
 277 330 241 337 210 353 c 0
 194 361 179 370 166 380 c 0
 137 401 123 431 123 469 c 0
 123 521 157 556 188 576 c 0
 209 589 236 599 270 605 c 1
 270 738 l 1
 329 738 l 1
 329 611 l 1
 355 611 l 2
 365 611 377 608 387 608 c 0
 399 608 416 604 425 601 c 2
 436 598 l 2
 441 597 448 594 458 591 c 1
 438 530 l 1
 394 542 359 548 333 548 c 0
 276 548 240 542 218 511 c 0
 210 500 206 489 206 476 c 0
 206 442 248 426 278 416 c 0
 321 402 373 384 412 365 c 0
 445 349 485 312 485 268 c 0
 485 227 478 208 460 182 c 0
 435 145 391 121 329 113 c 1
 329 -32 l 1
 270 -32 l 1
 270 110 l 1
 221 111 168 123 111 146 c 1
 133 207 l 1
EndSplineSet
EndChar

StartChar: semicolon
Encoding: 59 59 80
Width: 278
VWidth: 1023
Flags: HW
HStem: 382 103<88 190>
VStem: 88 102<382 485>
LayerCount: 2
Fore
SplineSet
88 485 m 1
 190 485 l 1
 190 382 l 1
 88 382 l 1
 88 485 l 1
98 83 m 1
 186 83 l 1
 108 -107 l 1
 21 -107 l 1
 98 83 l 1
EndSplineSet
EndChar

StartChar: colon
Encoding: 58 58 81
Width: 278
VWidth: 1023
Flags: HW
HStem: 0 103<88 190> 382 103<88 190>
VStem: 88 102<0 103 382 485>
LayerCount: 2
Fore
SplineSet
88 103 m 1
 190 103 l 1
 190 0 l 1
 88 0 l 1
 88 103 l 1
88 485 m 1
 190 485 l 1
 190 382 l 1
 88 382 l 1
 88 485 l 1
EndSplineSet
EndChar

StartChar: equal
Encoding: 61 61 82
Width: 683
VWidth: 1023
Flags: HW
HStem: 171 74<107 576> 393 73<107 576>
LayerCount: 2
Fore
SplineSet
107 466 m 1
 576 466 l 1
 576 393 l 1
 107 393 l 1
 107 466 l 1
107 245 m 1
 576 245 l 1
 576 171 l 1
 107 171 l 1
 107 245 l 1
EndSplineSet
EndChar

StartChar: quotedbl
Encoding: 34 34 83
Width: 388
VWidth: 1023
Flags: HW
HStem: 529 209<54 144 244 334>
VStem: 54 90<529 738> 244 90<529 738>
LayerCount: 2
Fore
SplineSet
54 738 m 1
 144 738 l 1
 144 529 l 1
 54 529 l 1
 54 738 l 1
244 738 m 1
 334 738 l 1
 334 529 l 1
 244 529 l 1
 244 738 l 1
EndSplineSet
EndChar

StartChar: quotesingle
Encoding: 39 39 84
Width: 197
VWidth: 1023
Flags: HW
HStem: 529 209<54 144>
VStem: 54 90<529 738>
LayerCount: 2
Fore
SplineSet
54 738 m 1
 144 738 l 1
 144 529 l 1
 54 529 l 1
 54 738 l 1
EndSplineSet
EndChar

StartChar: underscore
Encoding: 95 95 85
Width: 566
VWidth: 1023
Flags: HW
HStem: 0 73<73 493>
LayerCount: 2
Fore
SplineSet
73 73 m 1
 493 73 l 1
 493 0 l 1
 73 0 l 1
 73 73 l 1
EndSplineSet
EndChar

StartChar: percent
Encoding: 37 37 86
Width: 648
VWidth: 1023
Flags: HW
HStem: 0 21G<42 138.631> 27 46<435.365 526.667> 262 47<433.542 528.356> 394 45<116.357 203.882> 619 47<113.571 206.539> 674 20G<501.369 598>
VStem: 48 48<456.413 600.141> 223 48<458.867 603.13> 365 47<97.2353 239.63> 549 48<96.0068 241.745>
LayerCount: 2
Fore
SplineSet
223 519 m 0
 223 583 212 619 152 619 c 0
 118 619 96 582 96 543 c 0
 96 484 109 439 161 439 c 0
 199 439 223 476 223 519 c 0
48 528 m 0
 48 607 89 666 160 666 c 0
 232 666 271 615 271 533 c 0
 271 457 231 394 159 394 c 0
 86 394 48 448 48 528 c 0
480 262 m 0
 440 262 412 224 412 181 c 0
 412 138 419 111 438 92 c 0
 452 79 467 73 483 73 c 0
 499 73 514 81 528 96 c 0
 542 111 549 136 549 170 c 0
 549 217 534 246 503 258 c 0
 496 261 488 262 480 262 c 0
597 180 m 0
 597 97 556 27 481 27 c 0
 449 27 422 39 399 62 c 0
 376 85 365 121 365 167 c 0
 365 213 376 247 400 272 c 0
 424 297 449 309 477 309 c 0
 505 309 532 300 558 281 c 0
 584 262 597 229 597 180 c 0
515 694 m 1
 598 694 l 1
 125 0 l 1
 42 0 l 1
 515 694 l 1
EndSplineSet
EndChar

StartChar: braceright
Encoding: 125 125 87
Width: 389
VWidth: 1023
Flags: HW
HStem: -201 63<40.3333 82.7361> 235 67<293.076 346> 675 63<40.3333 82.6609>
VStem: 27 319
CounterMasks: 1 e0
LayerCount: 2
Fore
SplineSet
27 -138 m 1
 106 -128 141 -60 149 32 c 1
 149 63 154 105 159 134 c 0
 169 191 201 242 242 269 c 1
 196 299 167 348 157 414 c 0
 155 425 153 454 150 503 c 0
 144 598 106 662 27 675 c 1
 42 738 l 1
 150 731 209 641 220 528 c 0
 220 523 222 511 223 492 c 0
 225 446 230 408 249 373 c 0
 271 333 304 309 346 302 c 1
 346 235 l 1
 304 228 272 205 250 166 c 0
 222 116 226 55 219 -13 c 0
 209 -112 137 -193 42 -201 c 1
 27 -138 l 1
EndSplineSet
EndChar

StartChar: asciitilde
Encoding: 126 126 88
Width: 515
VWidth: 1023
Flags: HW
HStem: 281 149
LayerCount: 2
Fore
SplineSet
383 430 m 5
 435 422 l 5
 427 381 l 6
 421 350 413 329 404 317 c 4
 386 293 364 282 339 282 c 0
 327 282 313 284 299 290 c 4
 281 297 265 309 249 323 c 6
 232 338 l 6
 226 344 221 350 216 354 c 4
 204 365 192 370 181 370 c 0
 167 370 155 361 148 346 c 4
 145 339 141 326 137 306 c 6
 133 281 l 5
 80 289 l 5
 88 331 l 6
 94 362 102 383 111 395 c 4
 129 419 151 430 177 430 c 0
 189 430 203 428 217 422 c 4
 235 415 250 403 266 389 c 6
 283 373 l 6
 297 359 315 342 334 342 c 0
 341 342 347 344 354 349 c 5
 370 362 372 374 378 405 c 6
 383 430 l 5
EndSplineSet
EndChar

StartChar: grave
Encoding: 96 96 89
Width: 547
VWidth: 1023
Flags: HW
HStem: 570 204
VStem: 134 281
LayerCount: 2
Fore
SplineSet
168 774 m 1
 415 623 l 1
 384 570 l 1
 134 714 l 1
 168 774 l 1
EndSplineSet
EndChar

StartChar: asciicircum
Encoding: 94 94 90
Width: 722
VWidth: 1023
Flags: HW
HStem: 537 215
VStem: 186 326
LayerCount: 2
Fore
SplineSet
354 752 m 1
 512 580 l 5
 467 537 l 5
 348 666 l 1
 229 540 l 1
 186 578 l 1
 354 752 l 1
EndSplineSet
EndChar

StartChar: ampersand
Encoding: 38 38 91
Width: 775
VWidth: 1023
Flags: HW
HStem: 0 21G<590.612 709>
LayerCount: 2
Fore
SplineSet
335 703 m 0
 337 703 338 703 339 703 c 0
 418 703 470 677 496 626 c 0
 504 611 507 594 507 576 c 0
 507 568 506 559 505 550 c 0
 501 521 483 490 452 458 c 2
 437 443 l 2
 431 438 425 433 418 427 c 2
 355 377 l 1
 525 196 l 1
 683 368 l 1
 729 322 l 1
 571 147 l 1
 709 0 l 1
 610 0 l 1
 515 98 l 1
 447 32 391 -14 284 -22 c 0
 277 -23 270 -23 263 -23 c 0
 163 -23 88 37 88 133 c 0
 88 203 117 264 172 315 c 0
 188 330 207 345 228 362 c 2
 246 376 l 1
 208 417 l 2
 167 461 147 504 147 547 c 0
 147 560 149 573 153 586 c 0
 164 624 188 653 224 673 c 0
 260 693 297 703 335 703 c 0
310 425 m 1
 353 458 l 2
 378 477 394 492 402 501 c 0
 418 519 427 536 427 552 c 0
 427 585 413 608 388 621 c 0
 372 629 354 633 337 633 c 0
 300 633 266 617 249 595 c 0
 236 578 229 561 229 543 c 0
 229 522 239 500 258 479 c 0
 264 472 273 463 285 451 c 2
 310 425 l 1
469 146 m 1
 293 328 l 1
 243 287 l 2
 194 246 169 204 169 160 c 0
 169 156 170 152 170 148 c 0
 176 90 226 49 289 49 c 0
 341 49 396 75 453 130 c 1
 469 146 l 1
EndSplineSet
EndChar

StartChar: less
Encoding: 60 60 92
Width: 523
VWidth: 1023
Flags: HW
LayerCount: 2
Fore
SplineSet
475 551 m 1
 475 475 l 1
 134 303 l 1
 475 139 l 1
 475 59 l 1
 49 260 l 1
 49 341 l 1
 475 551 l 1
EndSplineSet
EndChar

StartChar: greater
Encoding: 62 62 93
Width: 523
VWidth: 1023
Flags: HW
LayerCount: 2
Fore
SplineSet
49 551 m 1
 475 341 l 1
 475 260 l 1
 49 59 l 1
 49 139 l 1
 390 303 l 1
 49 475 l 1
 49 551 l 1
EndSplineSet
EndChar

StartChar: braceleft
Encoding: 123 123 94
Width: 389
VWidth: 1023
Flags: HW
HStem: -201 63<307.339 349.556> 235 67<44 96.9239> 675 63<307.416 349.556>
VStem: 44 318
CounterMasks: 1 e0
LayerCount: 2
Fore
SplineSet
241 32 m 1
 249 -61 282 -128 362 -138 c 1
 348 -201 l 1
 243 -192 180 -107 169 3 c 0
 166 29 164 73 161 103 c 0
 154 171 103 225 44 235 c 1
 44 302 l 1
 105 312 151 367 161 433 c 0
 165 460 169 503 169 528 c 1
 178 623 216 687 282 720 c 0
 303 730 325 736 348 738 c 1
 362 675 l 1
 288 664 247 606 240 499 c 0
 237 453 233 419 230 398 c 0
 222 344 186 295 147 269 c 1
 199 235 229 176 236 93 c 0
 237 80 241 45 241 32 c 1
EndSplineSet
EndChar

StartChar: sterling
Encoding: 163 163 95
Width: 634
VWidth: 1023
Flags: HW
HStem: 0 66<74 193 273 561> 323 66<107 193 273 532> 632 67<348.298 527.361>
VStem: 193 80<66 323 389 556.917>
LayerCount: 2
Fore
SplineSet
74 66 m 1
 193 66 l 1
 193 323 l 1
 107 323 l 1
 107 389 l 1
 193 389 l 1
 193 458 l 2
 193 500 197 532 204 555 c 0
 231 639 318 699 431 699 c 0
 469 699 506 692 545 680 c 1
 522 621 l 1
 493 629 465 632 438 632 c 0
 390 632 354 617 330 598 c 0
 300 574 279 541 275 492 c 0
 274 477 273 462 273 445 c 2
 273 389 l 1
 532 389 l 1
 532 323 l 1
 273 323 l 1
 273 66 l 1
 561 66 l 1
 561 0 l 1
 74 0 l 1
 74 66 l 1
EndSplineSet
EndChar

StartChar: exclamdown
Encoding: 161 161 96
Width: 317
VWidth: 1023
Flags: HW
HStem: 547 98<110 208>
VStem: 110 98<547 645> 117 83<-200 421>
LayerCount: 2
Fore
SplineSet
117 421 m 1xa0
 200 421 l 1
 200 -200 l 1
 117 -200 l 1
 117 421 l 1xa0
110 645 m 1xc0
 208 645 l 1
 208 547 l 1
 110 547 l 1
 110 645 l 1xc0
EndSplineSet
EndChar

StartChar: cent
Encoding: 162 162 97
Width: 498
VWidth: 1023
Flags: HW
HStem: 137 55<358.178 419.545>
VStem: 265 59<-32 113.123 606 738>
LayerCount: 2
Fore
SplineSet
73 347 m 0
 73 489 142 587 265 604 c 1
 265 738 l 1
 324 738 l 1
 324 606 l 1
 364 604 403 595 442 578 c 1
 423 519 l 1
 386 532 352 538 323 538 c 0
 321 538 318 538 316 538 c 0
 206 533 150 476 150 366 c 0
 150 360 151 353 151 346 c 0
 157 243 209 188 308 176 c 0
 315 175 322 175 329 175 c 0
 356 175 385 181 417 192 c 1
 437 137 l 1
 400 122 362 114 324 111 c 1
 324 -32 l 1
 265 -32 l 1
 265 112 l 1
 145 125 73 211 73 347 c 0
EndSplineSet
EndChar

StartChar: currency
Encoding: 164 164 98
Width: 634
Flags: HW
HStem: 193 69<256.116 377.553> 462 69<257.244 377.167>
VStem: 148 72<298.581 424.126>
LayerCount: 2
Fore
SplineSet
151 589 m 1
 233 508 l 1
 258 523 286 531 316 531 c 0
 346 531 375 524 402 508 c 1
 483 588 l 1
 544 527 l 1
 463 447 l 1
 478 422 486 393 486 363 c 0
 486 333 479 305 463 278 c 1
 543 197 l 1
 482 136 l 1
 402 217 l 1
 375 201 346 193 316 193 c 0
 286 193 258 201 233 216 c 1
 152 135 l 1
 91 196 l 1
 172 277 l 1
 157 302 148 330 148 361 c 0
 148 392 156 420 172 447 c 1
 90 528 l 1
 151 589 l 1
318 462 m 0
 263 462 220 416 220 361 c 0
 220 307 263 262 316 262 c 0
 372 262 411 305 415 358 c 0
 415 360 415 362 415 364 c 0
 415 415 369 462 318 462 c 0
EndSplineSet
EndChar

StartChar: yen
Encoding: 165 165 99
Width: 634
VWidth: 1023
Flags: HW
HStem: 0 21G<275 353> 122 61<141 275 353 494> 280 61<141 271 356 494> 674 20G<70 170.644 468.017 565>
VStem: 275 78<0 122 183 280>
LayerCount: 2
Fore
SplineSet
70 694 m 1
 160 694 l 1
 317 399 l 1
 479 694 l 1
 565 694 l 1
 356 341 l 1
 494 341 l 1
 494 280 l 1
 353 280 l 1
 353 183 l 1
 494 183 l 1
 494 122 l 1
 353 122 l 1
 353 0 l 1
 275 0 l 1
 275 122 l 1
 141 122 l 1
 141 183 l 1
 275 183 l 1
 275 280 l 1
 141 280 l 1
 141 341 l 1
 271 341 l 1
 70 694 l 1
EndSplineSet
EndChar

StartChar: brokenbar
Encoding: 166 166 100
Width: 431
VWidth: 1023
Flags: HW
VStem: 176 80<-150 225 409 782>
LayerCount: 2
Fore
SplineSet
176 782 m 1
 256 782 l 1
 256 409 l 1
 176 409 l 1
 176 782 l 1
176 225 m 1
 256 225 l 1
 256 -150 l 1
 176 -150 l 1
 176 225 l 1
EndSplineSet
EndChar

StartChar: section
Encoding: 167 167 101
Width: 554
VWidth: 1023
Flags: HW
HStem: -10 63<126.871 350.091> 634 66<212.548 434.078>
VStem: 95 88<334.175 423.009 519.057 606.017> 384 92<85.0452 182.157 271.427 365.168>
LayerCount: 2
Fore
SplineSet
310 634 m 0
 247 634 183 616 183 560 c 0
 183 523 227 500 259 490 c 0
 304 476 358 456 400 437 c 0
 438 420 476 384 476 333 c 0
 476 293 462 259 435 231 c 1
 462 209 476 182 476 149 c 0
 476 90 445 51 411 28 c 0
 375 3 323 -10 256 -10 c 0
 191 -10 131 1 78 22 c 1
 101 83 l 1
 157 63 206 53 249 53 c 0
 339 53 384 82 384 140 c 0
 384 167 365 187 327 202 c 0
 310 209 292 214 271 220 c 0
 230 232 185 247 152 267 c 0
 114 290 95 323 95 367 c 0
 95 402 109 434 138 461 c 1
 110 484 96 513 96 550 c 0
 96 578 105 605 125 629 c 0
 157 669 227 700 300 700 c 0
 332 700 354 700 367 698 c 2
 386 695 l 2
 391 694 397 694 404 692 c 2
 419 688 l 2
 422 687 427 686 435 684 c 2
 450 679 l 1
 428 615 l 1
 388 628 348 634 310 634 c 0
207 425 m 1
 191 412 183 397 183 382 c 0
 183 349 199 335 223 323 c 0
 255 307 274 301 313 288 c 0
 334 281 351 276 363 271 c 1
 377 285 384 302 384 323 c 0
 384 356 353 381 290 399 c 2
 248 411 l 2
 232 416 218 421 207 425 c 1
EndSplineSet
EndChar

StartChar: copyright
Encoding: 169 169 102
Width: 859
VWidth: 1023
Flags: HW
HStem: -7 65<321.828 538.727> 156 48<378.053 520.642> 609 65<321.096 538.188>
VStem: 83 65<227.422 439.078> 273 57<252.932 422.361> 711 65<227.422 439.331>
LayerCount: 2
Fore
SplineSet
441 156 m 0
 335 156 273 218 273 327 c 0
 273 382 287 427 315 462 c 0
 343 497 392 515 444 515 c 0
 477 515 511 508 541 494 c 1
 526 452 l 1
 499 462 473 466 450 466 c 0
 430 466 411 463 394 456 c 0
 352 438 330 399 330 339 c 0
 330 335 330 331 330 327 c 0
 334 251 370 213 442 204 c 0
 447 203 453 203 458 203 c 0
 478 203 499 207 522 215 c 1
 537 175 l 1
 504 162 472 156 441 156 c 0
430 609 m 0
 347 609 276 572 231 529 c 0
 186 485 148 416 148 333 c 0
 148 251 186 181 231 138 c 0
 276 94 347 58 430 58 c 0
 513 58 583 95 628 138 c 0
 673 181 711 251 711 333 c 0
 711 416 673 485 628 529 c 0
 583 573 513 609 430 609 c 0
185 575 m 0
 240 629 327 674 428 674 c 0
 530 674 618 630 673 576 c 0
 729 522 776 436 776 333 c 0
 776 231 730 146 674 92 c 0
 618 38 532 -7 430 -7 c 0
 327 -7 242 38 186 92 c 0
 130 146 83 230 83 333 c 0
 83 435 129 521 185 575 c 0
EndSplineSet
EndChar

StartChar: guillemotleft
Encoding: 171 171 103
Width: 457
VWidth: 1023
Flags: HW
HStem: 462 20G<147.067 251 328.067 433>
LayerCount: 2
Fore
SplineSet
342 482 m 1
 433 482 l 1
 299 304 l 1
 433 126 l 1
 342 126 l 1
 218 304 l 1
 342 482 l 1
161 482 m 1
 251 482 l 1
 118 304 l 1
 251 126 l 1
 161 126 l 1
 37 304 l 1
 161 482 l 1
EndSplineSet
EndChar

StartChar: guillemotright
Encoding: 187 187 104
Width: 457
VWidth: 1023
Flags: HW
HStem: 462 20G<24 128.933 206 309.933>
LayerCount: 2
Fore
SplineSet
115 482 m 1
 239 304 l 1
 115 126 l 1
 24 126 l 1
 158 304 l 1
 24 482 l 1
 115 482 l 1
296 482 m 1
 420 304 l 1
 296 126 l 1
 206 126 l 1
 339 304 l 1
 206 482 l 1
 296 482 l 1
EndSplineSet
EndChar

StartChar: registered
Encoding: 174 174 105
Width: 601
VWidth: 1023
Flags: HW
HStem: 256 55<207.632 394.289> 480 38<254 309> 605 40<254 352.884> 708 54<207.602 393.154>
VStem: 44 54<418.746 599.254> 208 46<379 480 518 605> 503 55<418.746 598.56>
LayerCount: 2
Fore
SplineSet
208 643 m 1
 317 645 l 2
 318 645 320 645 321 645 c 0
 358 645 383 631 396 604 c 0
 402 593 404 581 404 568 c 0
 404 558 403 547 399 535 c 0
 392 511 376 495 352 487 c 1
 407 379 l 1
 358 379 l 1
 309 481 l 1
 298 481 283 480 266 480 c 2
 254 480 l 1
 254 379 l 1
 208 379 l 1
 208 643 l 1
301 762 m 0
 377 762 440 729 482 689 c 0
 523 649 558 584 558 509 c 0
 558 434 523 370 482 330 c 0
 441 290 376 256 301 256 c 0
 225 256 161 290 120 330 c 0
 79 370 44 434 44 509 c 0
 44 584 79 649 120 689 c 0
 162 729 224 762 301 762 c 0
503 509 m 0
 503 626 409 708 300 708 c 0
 245 708 197 688 158 650 c 0
 118 611 98 564 98 509 c 0
 98 454 118 407 158 368 c 0
 197 330 245 311 301 311 c 0
 357 311 404 330 443 368 c 0
 483 407 503 454 503 509 c 0
254 518 m 1
 270 518 l 2
 282 518 292 518 301 518 c 0
 332 518 350 521 358 546 c 0
 360 552 361 557 361 562 c 0
 361 588 336 604 315 605 c 1
 254 605 l 1
 254 518 l 1
EndSplineSet
EndChar

StartChar: paragraph
Encoding: 182 182 106
Width: 653
VWidth: 1023
Flags: HW
HStem: 0 21G<276.94 360 478 561> 665 73<360 478>
VStem: 63 297<449.609 648.755> 277 83<0 337.067> 478 83<0 665>
LayerCount: 2
Fore
SplineSet
63 553 m 0
 63 644 112 710 189 728 c 0
 218 735 254 738 298 738 c 2
 561 738 l 1
 561 0 l 1
 478 0 l 1
 478 665 l 1
 360 665 l 1
 360 0 l 1
 277 0 l 1xd8
 276 335 l 1
 213 341 179 349 142 377 c 0
 95 412 63 474 63 553 c 0
EndSplineSet
EndChar

StartChar: periodcentered
Encoding: 183 183 107
Width: 288
VWidth: 1023
Flags: HW
HStem: 307 102<93 195>
VStem: 93 102<307 409>
LayerCount: 2
Fore
SplineSet
93 409 m 1
 195 409 l 1
 195 307 l 1
 93 307 l 1
 93 409 l 1
EndSplineSet
EndChar

StartChar: questiondown
Encoding: 191 191 108
Width: 511
VWidth: 1023
Flags: HW
HStem: -69 70<193.079 385.872>
VStem: 62 81<47.6794 174.961> 248 83<361.917 482>
LayerCount: 2
Fore
SplineSet
275 1 m 0
 203 1 143 43 143 110 c 0
 143 154 165 181 192 202 c 2
 222 226 l 2
 249 248 268 267 279 284 c 0
 316 336 331 389 331 482 c 1
 248 482 l 1
 248 361 206 315 136 258 c 0
 123 248 111 237 100 225 c 0
 75 199 62 166 62 126 c 0
 62 42 117 -15 174 -45 c 0
 205 -61 236 -69 268 -69 c 0
 323 -69 380 -55 441 -26 c 1
 416 34 l 1
 363 12 316 1 275 1 c 0
338 596 m 1
 338 693 l 1
 241 693 l 1
 241 596 l 1
 338 596 l 1
EndSplineSet
EndChar

StartChar: uni00B5
Encoding: 181 181 109
Width: 579
VWidth: 1023
Flags: HW
HStem: 0 21G<426.909 492> 462 20G<93 173 412 492>
VStem: 93 80<-200 26 109.372 482> 412 80<82.5762 482>
LayerCount: 2
Fore
SplineSet
93 482 m 1
 173 482 l 1
 173 221 l 2
 173 171 176 144 194 111 c 0
 213 76 243 58 283 55 c 0
 285 55 288 55 290 55 c 0
 320 55 361 67 412 92 c 1
 412 482 l 1
 492 482 l 1
 492 0 l 1
 436 0 l 1
 421 33 l 1
 373 2 327 -13 283 -13 c 0
 239 -13 202 0 173 26 c 1
 173 -200 l 1
 93 -200 l 1
 93 482 l 1
EndSplineSet
EndChar

StartChar: uni00AD
Encoding: 173 173 110
Width: 524
VWidth: 1023
Flags: HW
HStem: 288 67<107 417>
VStem: 107 310<288 355>
LayerCount: 2
Fore
SplineSet
107 355 m 1
 417 355 l 1
 417 288 l 1
 107 288 l 1
 107 355 l 1
EndSplineSet
EndChar

StartChar: plusminus
Encoding: 177 177 111
Width: 683
VWidth: 1023
Flags: HW
HStem: 73 67<107 576> 426 67<107 306 377 576> 674 20G<306 377>
VStem: 306 71<225 426 493 694>
LayerCount: 2
Fore
SplineSet
306 694 m 1
 377 694 l 1
 377 493 l 1
 576 493 l 1
 576 426 l 1
 377 426 l 1
 377 225 l 1
 306 225 l 1
 306 426 l 1
 107 426 l 1
 107 493 l 1
 306 493 l 1
 306 694 l 1
107 140 m 1
 576 140 l 1
 576 73 l 1
 107 73 l 1
 107 140 l 1
EndSplineSet
EndChar

StartChar: ae
Encoding: 230 230 112
Width: 817
VWidth: 0
Flags: HW
HStem: -10 64<175.46 322.541 521.204 707.97> 213 60<175.214 354 438 677> 422 69<116.073 312.665 499.39 632.455>
VStem: 60 80<86.6745 183.143> 354 80<132.791 213 274 348.164> 677 77<273 369.381>
LayerCount: 2
Fore
SplineSet
140 134 m 0
 140 86 198 54 247 54 c 0
 288 54 324 70 354 101 c 1
 354 213 l 1
 346 213 333 214 317 214 c 0
 258 214 214 208 184 196 c 0
 154 184 140 164 140 134 c 0
677 290 m 0
 677 359 640 422 573 422 c 0
 544 422 520 415 500 401 c 0
 462 374 441 331 438 273 c 1
 677 273 l 1
 677 277 677 278 677 290 c 0
408 406 m 1
 445 451 506 491 582 491 c 0
 697 491 754 409 754 245 c 0
 754 230 753 219 753 213 c 1
 434 213 l 1
 434 210 434 210 434 207 c 0
 434 165 451 130 484 100 c 0
 518 70 561 55 612 55 c 0
 639 55 672 60 712 72 c 1
 726 18 l 1
 677 0 629 -9 581 -9 c 0
 502 -9 442 15 401 64 c 1
 364 15 307 -10 231 -10 c 0
 166 -10 113 19 84 58 c 0
 68 80 60 104 60 130 c 0
 60 166 75 197 105 223 c 0
 147 259 226 274 308 274 c 0
 345 274 346 274 354 274 c 1
 354 299 l 2
 354 383 311 425 225 425 c 0
 201 425 163 417 111 403 c 1
 91 461 l 1
 145 481 199 491 253 491 c 0
 329 491 381 463 408 406 c 1
EndSplineSet
EndChar

StartChar: germandbls
Encoding: 223 223 113
Width: 615
VWidth: 1023
Flags: HW
HStem: -13 65<258.341 450.001> 0 21G<98.96 180> 626 72<219.281 344.01>
VStem: 99 81<0 585.028> 253 80<315.192 390.186> 382 78<485.075 590.291> 472 85<70.7451 178.514>
LayerCount: 2
Fore
SplineSet
98 500 m 2
 98 617 172 698 294 698 c 0x7e
 361 698 407 665 433 624 c 0
 451 597 460 568 460 538 c 0
 460 508 452 481 435 460 c 0
 422 444 408 430 393 419 c 0
 368 401 333 381 333 352 c 0
 333 339 336 329 341 322 c 0
 349 310 366 299 391 289 c 2
 426 276 l 2
 478 257 503 247 528 216 c 1
 547 194 557 164 557 127 c 0
 557 81 533 43 510 22 c 1
 483 -1 446 -13 397 -13 c 0
 348 -13 298 -5 246 10 c 1
 261 67 l 1
 312 57 352 52 380 52 c 0xbe
 436 52 472 70 472 126 c 0
 472 181 428 198 381 215 c 2
 345 228 l 1
 301 245 273 269 261 300 c 0
 256 313 253 327 253 343 c 0
 253 408 295 434 332 462 c 0
 341 469 349 474 356 481 c 0
 373 496 382 515 382 538 c 0
 382 585 329 626 282 626 c 0
 253 626 229 616 208 594 c 0
 188 573 179 541 179 499 c 2
 180 0 l 1
 99 0 l 1
 98 500 l 2
EndSplineSet
EndChar

StartChar: multiply
Encoding: 215 215 114
Width: 634
VWidth: 1023
Flags: HW
LayerCount: 2
Fore
SplineSet
141 95 m 1
 89 146 l 1
 262 319 l 1
 93 488 l 1
 144 540 l 1
 320 363 l 1
 493 537 l 1
 544 485 l 1
 372 312 l 1
 541 143 l 1
 490 91 l 1
 313 268 l 1
 141 95 l 1
EndSplineSet
EndChar

StartChar: divide
Encoding: 247 247 115
Width: 683
VWidth: 1023
Flags: HW
HStem: 41 95<294 389> 287 68<61 623> 507 95<294 389>
VStem: 294 95<41 136 507 602>
LayerCount: 2
Fore
SplineSet
61 355 m 1
 623 355 l 1
 623 287 l 1
 61 287 l 1
 61 355 l 1
294 136 m 1
 389 136 l 1
 389 41 l 1
 294 41 l 1
 294 136 l 1
294 602 m 1
 389 602 l 1
 389 507 l 1
 294 507 l 1
 294 602 l 1
EndSplineSet
EndChar

StartChar: oslash
Encoding: 248 248 116
Width: 569
VWidth: 1023
Flags: HW
HStem: -10 65<201.366 356.188> 426 64<201.263 354.656> 466 20G<472.515 512.714>
VStem: 46 83<136.024 343.789> 427 83<134.537 345.226>
LayerCount: 2
Fore
SplineSet
492 486 m 1xb8
 521 458 l 1
 66 -7 l 1
 38 20 l 1
 492 486 l 1xb8
EndSplineSet
Refer: 6 111 N 1 0 0 1 0 0 2
EndChar

StartChar: OE
Encoding: 338 338 118
Width: 975
VWidth: 1023
Flags: HW
HStem: 0 73<328.073 513 596 897> 321 73<596 871> 621 73<334.314 513 596 897>
VStem: 105 83<219.154 467.523> 513 83<73 321 394 621>
LayerCount: 2
Fore
SplineSet
393 616 m 0
 262 595 193 499 188 345 c 0
 188 341 188 338 188 334 c 0
 188 195 275 96 386 77 c 0
 402 74 424 73 451 73 c 2
 513 73 l 1
 513 621 l 1
 485 621 l 2
 445 621 414 619 393 616 c 0
340 679 m 0
 381 689 441 694 519 694 c 2
 897 694 l 1
 897 621 l 1
 596 621 l 1
 596 394 l 1
 871 394 l 1
 871 321 l 1
 596 321 l 1
 596 73 l 1
 897 73 l 1
 897 0 l 1
 475 0 l 2
 313 0 221 35 159 132 c 0
 123 188 105 258 105 342 c 0
 105 344 105 347 105 349 c 0
 107 531 190 642 340 679 c 0
EndSplineSet
EndChar

StartChar: oe
Encoding: 339 339 119
Width: 880
VWidth: 0
Flags: HW
HStem: -11 69<217.066 360.304 569.415 773.734> 199 60<501 740> 421 68<209.912 351.585 563.176 691.704>
VStem: 63 79<143.854 344.08> 425 74<128.969 199 259 341.009> 740 77<259 371.047>
LayerCount: 2
Fore
SplineSet
278 421 m 0
 191 421 142 336 142 245 c 0
 142 172 169 115 212 83 c 0
 235 66 258 58 282 58 c 0
 334 58 360 75 385 102 c 0
 412 132 425 176 425 235 c 0
 425 338 373 421 278 421 c 0
740 269 m 0
 740 361 710 417 624 417 c 0
 586 417 555 402 534 370 c 0
 513 338 502 301 501 259 c 1
 740 259 l 1
 740 264 740 264 740 269 c 0
63 238 m 0
 63 384 147 489 290 489 c 0
 372 489 432 457 469 393 c 1
 510 456 568 487 645 487 c 0
 739 487 797 427 813 331 c 0
 816 313 817 285 817 246 c 2
 817 199 l 1
 499 199 l 1
 500 153 521 115 561 85 c 0
 590 63 628 53 674 53 c 0
 704 53 738 58 776 70 c 1
 789 16 l 1
 741 -2 693 -11 643 -11 c 0
 557 -11 495 18 458 78 c 1
 417 19 358 -11 281 -11 c 0
 143 -11 63 96 63 238 c 0
EndSplineSet
EndChar

StartChar: AE
Encoding: 198 198 120
Width: 935
VWidth: 1023
Flags: HW
HStem: 0 73<555 857> 202 72<249 472> 321 73<555 830> 621 73<383 472 555 857>
VStem: 472 83<73 202 274 321 394 621>
LayerCount: 2
Fore
SplineSet
334 694 m 1
 857 694 l 1
 857 621 l 1
 555 621 l 1
 555 394 l 1
 830 394 l 1
 830 321 l 1
 555 321 l 1
 555 73 l 1
 857 73 l 1
 857 0 l 1
 472 0 l 1
 472 202 l 1
 221 202 l 1
 143 0 l 1
 63 0 l 1
 334 694 l 1
249 274 m 1
 472 274 l 1
 472 621 l 1
 383 621 l 1
 249 274 l 1
EndSplineSet
EndChar

StartChar: onequarter
Encoding: 188 188 121
Width: 864
VWidth: 0
Flags: HW
HStem: 0 21G<175 272.556 691 756> 95 54<573 691 756 808> 674 20G<94.6923 221 564.444 662>
VStem: 156 65<302 630> 691 65<0 95 149 336>
LayerCount: 2
Fore
SplineSet
576 694 m 1
 662 694 l 1
 261 0 l 1
 175 0 l 1
 576 694 l 1
167 694 m 1
 221 694 l 1
 221 302 l 1
 156 302 l 1
 156 630 l 1
 88 611 l 1
 73 668 l 1
 167 694 l 1
679 408 m 1
 756 408 l 1
 756 149 l 1
 808 149 l 1
 808 95 l 1
 756 95 l 1
 756 0 l 1
 691 0 l 1
 691 95 l 1
 500 95 l 1
 500 139 l 1
 679 408 l 1
691 336 m 1
 573 149 l 1
 691 149 l 1
 691 336 l 1
EndSplineSet
EndChar

StartChar: onehalf
Encoding: 189 189 122
Width: 877
VWidth: 0
Flags: HW
HStem: 0 57<639 824> 355 56<587.013 733.272> 674 20G<94.6923 221 564.444 662>
VStem: 156 65<302 630> 753 64<255.542 337.416>
LayerCount: 2
Fore
SplineSet
576 694 m 1
 662 694 l 1
 261 0 l 1
 175 0 l 1
 576 694 l 1
753 297 m 0
 753 332 714 355 676 355 c 0
 654 355 621 347 576 329 c 1
 556 377 l 1
 602 399 644 411 683 411 c 0
 753 411 817 372 817 305 c 0
 817 262 789 228 762 203 c 2
 729 172 l 1
 682 130 661 107 639 57 c 1
 824 57 l 1
 824 0 l 1
 564 0 l 1
 564 35 l 1
 584 100 628 162 695 221 c 0
 722 244 738 261 744 271 c 0
 750 281 753 290 753 297 c 0
167 694 m 1
 221 694 l 1
 221 302 l 1
 156 302 l 1
 156 630 l 1
 88 611 l 1
 73 668 l 1
 167 694 l 1
EndSplineSet
EndChar

StartChar: threequarters
Encoding: 190 190 123
Width: 903
VWidth: 0
Flags: HW
HStem: 0 21G<220 317.527 730 795> 95 54<613 730 795 848> 293 59<81.0076 236.154> 489 55<143 225.29> 650 58<96.834 233.099> 674 20G<609.444 706>
VStem: 248 62<563.593 636.83> 264 63<375.829 464.459> 730 65<0 95 149 336>
LayerCount: 2
Fore
SplineSet
621 694 m 1xf480
 706 694 l 1
 306 0 l 1
 220 0 l 1
 621 694 l 1xf480
719 408 m 1
 795 408 l 1
 795 149 l 1
 848 149 l 1
 848 95 l 1
 795 95 l 1
 795 0 l 1
 730 0 l 1
 730 95 l 1
 540 95 l 1
 540 139 l 1
 719 408 l 1
730 336 m 1
 613 149 l 1
 730 149 l 1
 730 336 l 1
186 708 m 0xfa80
 255 708 310 671 310 603 c 0xfa80
 310 570 295 544 264 524 c 1
 306 507 327 477 327 434 c 0
 327 348 258 293 171 293 c 2
 169 293 l 2
 136 293 101 301 61 317 c 1
 79 369 l 1
 122 358 154 352 176 352 c 0
 219 352 264 379 264 421 c 0xf980
 264 437 259 450 248 460 c 0
 228 479 197 489 156 489 c 2
 143 489 l 1
 143 544 l 1
 151 544 l 1
 186 545 211 551 226 563 c 0
 241 575 248 587 248 601 c 0
 248 635 215 650 177 650 c 0
 154 650 125 642 90 625 c 1
 68 676 l 1
 110 697 150 708 186 708 c 0xfa80
EndSplineSet
EndChar

StartChar: degree
Encoding: 176 176 124
Width: 287
Flags: HW
HStem: 493 45<97.25 188.861> 668 44<98.3312 189.394>
VStem: 37 44<554.894 650.193> 206 45<555.487 651.747>
LayerCount: 2
Fore
SplineSet
206 603 m 0
 206 637 178 668 144 668 c 0
 108 668 81 639 81 603 c 0
 81 567 107 538 143 538 c 0
 179 538 206 568 206 603 c 0
37 603 m 0
 37 663 85 712 144 712 c 0
 202 712 251 662 251 603 c 0
 251 544 203 493 144 493 c 0
 85 493 37 543 37 603 c 0
EndSplineSet
EndChar

StartChar: cedilla
Encoding: 184 184 126
Width: 537
VWidth: 0
Flags: HW
VStem: 188 211
LayerCount: 2
Fore
SplineSet
267 11 m 1
 329 11 l 1
 310 -66 l 1
 322 -70 l 2
 364 -83 396 -100 399 -146 c 0
 399 -149 399 -152 399 -155 c 0
 399 -182 387 -205 364 -223 c 0
 345 -237 324 -242 302 -242 c 0
 271 -242 238 -233 205 -223 c 2
 188 -218 l 1
 201 -173 l 1
 216 -178 l 1
 259 -191 287 -196 300 -196 c 0
 326 -195 343 -187 349 -170 c 0
 351 -166 351 -162 351 -158 c 0
 351 -141 336 -128 325 -123 c 0
 318 -120 310 -117 300 -114 c 2
 239 -95 l 1
 267 11 l 1
EndSplineSet
EndChar

StartChar: Ccedilla
Encoding: 199 199 127
Width: 692
VWidth: 0
Flags: HW
HStem: -10 75<362.126 608.264> 593 68<582.984 632.268> 623 74<358.734 605.483>
VStem: 109 94<227.273 463.76>
LayerCount: 2
Fore
SplineSet
365 12 m 1x90
 435 9 l 1
 417 -66 l 1
 465 -81 499 -97 504 -147 c 0
 504 -150 504 -153 504 -156 c 0
 504 -183 492 -206 469 -225 c 0
 448 -241 426 -247 402 -247 c 0
 370 -247 337 -236 301 -226 c 1
 285 -221 l 1
 300 -170 l 1
 314 -175 l 1
 361 -189 391 -195 403 -195 c 0
 427 -194 441 -187 447 -172 c 0
 449 -168 450 -164 450 -160 c 0
 450 -144 436 -132 427 -127 c 0
 421 -124 412 -121 402 -118 c 2
 335 -98 l 1
 365 12 l 1x90
EndSplineSet
Refer: 54 67 N 1 0 0 1 0 0 3
EndChar

StartChar: dieresis
Encoding: 168 168 128
Width: 585
VWidth: 0
Flags: HW
HStem: 603 90<138 229 357 448>
VStem: 138 91<603 693> 357 91<603 693>
LayerCount: 2
Fore
SplineSet
357 693 m 1
 448 693 l 1
 448 603 l 1
 357 603 l 1
 357 693 l 1
138 693 m 1
 229 693 l 1
 229 603 l 1
 138 603 l 1
 138 693 l 1
EndSplineSet
EndChar

StartChar: Idieresis
Encoding: 207 207 131
Width: 327
VWidth: 0
Flags: HW
HStem: 0 21G<142 225> 674 20G<142 225> 800 91<43 133 233 323>
VStem: 43 90<800 891> 142 83<0 694> 233 90<800 891>
LayerCount: 2
Fore
SplineSet
233 891 m 1
 323 891 l 1
 323 800 l 1
 233 800 l 1
 233 891 l 1
43 891 m 1
 133 891 l 1
 133 800 l 1
 43 800 l 1
 43 891 l 1
142 694 m 1
 225 694 l 1
 225 0 l 1
 142 0 l 1
 142 694 l 1
EndSplineSet
EndChar

StartChar: idieresis
Encoding: 239 239 136
Width: 255
VWidth: 0
Flags: HW
HStem: 0 21<88 168> 462 20<88 168> 604 90<-7 83 173 263>
VStem: -7 90<604 694> 88 80<0 482> 173 90<604 694>
CounterMasks: 1 1c
LayerCount: 2
Fore
SplineSet
173 694 m 1
 263 694 l 1
 263 604 l 1
 173 604 l 1
 173 694 l 1
-7 694 m 1
 83 694 l 1
 83 604 l 1
 -7 604 l 1
 -7 694 l 1
EndSplineSet
Refer: 140 305 N 1 0 0 1 0 0 3
EndChar

StartChar: dotlessi
Encoding: 305 305 140
Width: 255
VWidth: 1023
Flags: HW
HStem: 0 21G<88 168> 462 20G<88 168>
VStem: 88 80<0 482>
LayerCount: 2
Fore
SplineSet
88 482 m 1
 168 482 l 1
 168 0 l 1
 88 0 l 1
 88 482 l 1
EndSplineSet
EndChar

StartChar: uni00B2
Encoding: 178 178 146
Width: 390
VWidth: 0
Flags: HW
HStem: 370 51<140 307> 693 51<87.9536 229.611>
VStem: 243 58<601.54 678.402>
LayerCount: 2
Fore
SplineSet
243 640 m 0
 243 672 207 693 173 693 c 0
 153 693 123 685 82 669 c 1
 63 713 l 1
 105 734 144 744 179 744 c 0
 243 744 301 708 301 647 c 0
 301 601 265 568 236 541 c 2
 201 508 l 1
 173 483 153 454 140 421 c 1
 307 421 l 1
 307 370 l 1
 71 370 l 1
 72 402 l 1
 86 447 107 485 136 517 c 0
 160 544 181 564 198 579 c 0
 228 605 243 626 243 640 c 0
EndSplineSet
EndChar

StartChar: uni00B3
Encoding: 179 179 147
Width: 390
VWidth: 1023
Flags: HW
HStem: 366 53<78.7285 225.545> 544 50<135 215.983> 690 53<86.4071 224.001>
VStem: 231 56<610.477 680.51> 246 56<439.663 523.928>
LayerCount: 2
Fore
SplineSet
175 743 m 0
 236 743 287 708 287 647 c 0xf0
 287 617 274 594 246 576 c 1
 284 560 302 533 302 494 c 0
 302 415 240 366 161 366 c 2
 160 366 l 2
 130 366 97 374 61 388 c 1
 77 435 l 1
 114 425 143 419 164 419 c 0
 202 419 246 444 246 480 c 0xe8
 246 497 238 512 223 525 c 0
 208 538 182 544 147 544 c 2
 135 544 l 1
 135 594 l 1
 185 595 216 607 227 629 c 0
 230 635 231 642 231 651 c 0
 231 660 226 668 215 677 c 0
 204 686 188 690 167 690 c 0
 146 690 120 683 87 668 c 1
 68 714 l 1
 107 733 143 743 175 743 c 0
EndSplineSet
EndChar

StartChar: acute
Encoding: 180 180 148
Width: 547
VWidth: 1023
Flags: HW
HStem: 570 204
VStem: 134 280
LayerCount: 2
Fore
SplineSet
380 774 m 1
 414 714 l 1
 164 570 l 1
 134 623 l 1
 380 774 l 1
EndSplineSet
EndChar

StartChar: uni00B9
Encoding: 185 185 149
Width: 265
VWidth: 0
Flags: HW
HStem: 665 47<40.0638 54.3077>
VStem: 112 55<371 685>
LayerCount: 2
Fore
SplineSet
123 738 m 1
 167 738 l 1
 167 371 l 1
 112 371 l 1
 112 685 l 1
 42 665 l 1
 29 712 l 1
 123 738 l 1
EndSplineSet
EndChar

StartChar: ordmasculine
Encoding: 186 186 150
Width: 372
VWidth: 1023
Flags: HW
HStem: 367 49<127.88 245.072> 691 51<125.226 246.852>
VStem: 33 55<459.267 653.149> 284 55<457.687 651.198>
LayerCount: 2
Fore
SplineSet
191 691 m 0
 119 691 88 644 88 561 c 0
 88 496 104 453 135 432 c 0
 150 422 166 416 181 416 c 0
 214 416 232 424 250 442 c 0
 272 463 284 502 284 558 c 0
 284 618 268 657 237 677 c 0
 222 687 207 691 191 691 c 0
339 558 m 0
 339 453 284 367 186 367 c 0
 144 367 108 380 80 407 c 0
 48 437 33 489 33 560 c 0
 33 620 49 665 81 697 c 0
 111 727 145 742 182 742 c 0
 219 742 238 737 264 722 c 0
 315 693 339 642 339 558 c 0
EndSplineSet
EndChar

StartChar: agrave
Encoding: 224 224 166
Width: 491
VWidth: 0
Flags: HW
HStem: 0 73 217 73<197 355> 408 73
VStem: 345 82<91 224 284 384>
LayerCount: 2
Fore
SplineSet
217 756 m 1
 395 598 l 1
 356 549 l 1
 172 703 l 1
 217 756 l 1
EndSplineSet
Refer: 0 97 N 1 0 0 1 0 0 3
EndChar

StartChar: aacute
Encoding: 225 225 167
Width: 491
VWidth: 0
Flags: HW
HStem: 0 73 217 73<197 355> 408 73
VStem: 345 82<91 224 284 384>
LayerCount: 2
Fore
SplineSet
330 756 m 1
 375 703 l 1
 191 549 l 1
 152 598 l 1
 330 756 l 1
EndSplineSet
Refer: 0 97 N 1 0 0 1 0 0 3
EndChar

StartChar: egrave
Encoding: 232 232 171
Width: 523
VWidth: 0
Flags: HW
HStem: 0 73 217 73 408 73
VStem: 59 75<139 218 281 352> 395 75<281 374>
LayerCount: 2
Fore
SplineSet
230 756 m 1
 407 598 l 1
 368 549 l 1
 185 703 l 1
 230 756 l 1
EndSplineSet
Refer: 2 101 N 1 0 0 1 0 0 3
EndChar

StartChar: eacute
Encoding: 233 233 172
Width: 523
VWidth: 0
Flags: HW
HStem: 0 73 217 73 408 73
VStem: 59 75<139 218 281 352> 395 75<281 374>
LayerCount: 2
Fore
SplineSet
384 756 m 1
 429 703 l 1
 245 549 l 1
 206 598 l 1
 384 756 l 1
EndSplineSet
Refer: 2 101 N 1 0 0 1 0 0 3
EndChar

StartChar: igrave
Encoding: 236 236 174
Width: 255
VWidth: 0
Flags: HW
HStem: 0 21<88 168> 462 20<88 168>
VStem: -5 223 88 80<0 482>
LayerCount: 2
Fore
SplineSet
40 756 m 1xe0
 218 598 l 1
 179 549 l 1
 -5 703 l 1
 40 756 l 1xe0
EndSplineSet
Refer: 140 305 N 1 0 0 1 0 0 3
EndChar

StartChar: iacute
Encoding: 237 237 175
Width: 255
VWidth: 0
Flags: HW
HStem: 0 21<88 168> 462 20<88 168>
VStem: 55 222 88 80<0 482>
LayerCount: 2
Fore
SplineSet
232 756 m 1xe0
 277 703 l 1
 94 549 l 1
 55 598 l 1
 232 756 l 1xe0
EndSplineSet
Refer: 140 305 N 1 0 0 1 0 0 3
EndChar

StartChar: ograve
Encoding: 242 242 177
Width: 569
VWidth: 0
Flags: HW
HStem: -10 65<201.366 356.188> 426 64<201.263 354.656>
VStem: 46 83<136.024 343.789> 427 83<134.537 345.226>
LayerCount: 2
Fore
SplineSet
242 756 m 1
 420 598 l 1
 381 549 l 1
 197 703 l 1
 242 756 l 1
EndSplineSet
Refer: 6 111 N 1 0 0 1 0 0 3
EndChar

StartChar: oacute
Encoding: 243 243 178
Width: 569
VWidth: 0
Flags: HW
HStem: -10 65<201.366 356.188> 426 64<201.263 354.656>
VStem: 46 83<136.024 343.789> 427 83<134.537 345.226>
LayerCount: 2
Fore
SplineSet
329 756 m 1
 374 703 l 1
 190 549 l 1
 151 598 l 1
 329 756 l 1
EndSplineSet
Refer: 6 111 N 1 0 0 1 0 0 3
EndChar

StartChar: ugrave
Encoding: 249 249 181
Width: 521
VWidth: 0
Flags: HW
HStem: 0 73 408 73
VStem: 66 81<88 480> 391 82<83 480>
LayerCount: 2
Fore
SplineSet
116 756 m 1
 294 598 l 1
 255 549 l 1
 71 703 l 1
 116 756 l 1
EndSplineSet
Refer: 14 117 N 1 0 0 1 0 0 3
EndChar

StartChar: uacute
Encoding: 250 250 182
Width: 521
VWidth: 0
Flags: HW
HStem: 0 73 408 73
VStem: 66 81<88 480> 391 82<83 480>
LayerCount: 2
Fore
SplineSet
257 756 m 1
 302 703 l 1
 118 549 l 1
 79 598 l 1
 257 756 l 1
EndSplineSet
Refer: 14 117 N 1 0 0 1 0 0 3
EndChar

StartChar: yacute
Encoding: 253 253 184
Width: 507
VWidth: 0
Flags: HW
HStem: 462 20<22 110.384 397.616 481>
LayerCount: 2
Fore
SplineSet
374 756 m 1
 419 703 l 1
 235 549 l 1
 196 598 l 1
 374 756 l 1
EndSplineSet
Refer: 26 121 N 1 0 0 1 0 0 3
EndChar

StartChar: eth
Encoding: 240 240 186
Width: 611
VWidth: 1023
Flags: HW
HStem: 394 66<210.449 377.288>
VStem: 446 77<146.315 349.079>
LayerCount: 2
Fore
SplineSet
446 337 m 1
 386 375 333 394 290 394 c 0
 289 394 288 394 287 394 c 0
 199 392 141 324 141 236 c 0
 141 230 141 224 142 217 c 0
 148 149 182 99 229 73 c 0
 251 61 273 55 295 55 c 0
 346 55 393 86 417 130 c 0
 437 165 446 226 446 311 c 0
 446 319 446 328 446 337 c 1
436 604 m 1
 491 543 523 464 523 350 c 0
 523 276 520 220 511 182 c 0
 493 104 468 60 411 21 c 0
 383 2 348 -7 308 -9 c 0
 302 -9 296 -9 291 -9 c 0
 156 -9 63 73 63 208 c 0
 63 211 63 214 63 217 c 0
 66 346 149 460 278 460 c 0
 282 460 285 460 289 460 c 0
 334 457 384 440 441 407 c 1
 431 477 410 520 365 563 c 1
 278 513 l 1
 251 559 l 1
 321 599 l 1
 291 620 257 637 220 649 c 1
 250 712 l 1
 304 697 353 673 395 641 c 1
 483 692 l 1
 510 646 l 1
 436 604 l 1
EndSplineSet
EndChar

StartChar: thorn
Encoding: 254 254 187
Width: 596
VWidth: 1023
Flags: HW
HStem: 421 68<228.703 372.875> 674 20G<93 173>
VStem: 93 80<-259 41 112.971 363.293 432 694> 455 78<138.052 334.787>
LayerCount: 2
Fore
SplineSet
93 694 m 1
 173 694 l 1
 173 432 l 1
 206 468 257 490 313 490 c 0
 341 490 370 484 398 473 c 0
 481 439 533 358 533 245 c 0
 533 136 477 44 394 7 c 0
 366 -6 336 -12 308 -12 c 0
 256 -12 207 8 173 41 c 1
 173 -259 l 1
 93 -259 l 1
 93 694 l 1
310 58 m 0
 395 64 455 136 455 226 c 0
 455 275 447 313 430 340 c 0
 397 393 354 420 300 421 c 1
 204 421 168 337 168 238 c 0
 168 182 175 142 190 119 c 0
 216 78 253 58 300 58 c 0
 303 58 307 58 310 58 c 0
EndSplineSet
EndChar

StartChar: Eth
Encoding: 208 208 188
Width: 783
VWidth: 1023
Flags: HW
HStem: 0 73<247 498.662> 321 74<57 164 247 372> 621 73<247 502.592>
VStem: 164 83<73 321 395 621> 645 83<226.906 471.748>
LayerCount: 2
Fore
SplineSet
164 694 m 1
 357 694 l 2
 522 694 616 655 683 553 c 0
 713 506 729 446 729 372 c 0
 729 363 728 354 728 345 c 0
 718 125 602 6 376 0 c 1
 164 0 l 1
 164 321 l 1
 57 321 l 1
 57 395 l 1
 164 395 l 1
 164 694 l 1
247 321 m 1
 247 73 l 1
 348 73 l 2
 388 73 421 76 448 80 c 0
 524 91 582 139 612 200 c 0
 632 240 643 290 645 349 c 0
 645 353 645 356 645 360 c 0
 645 498 556 598 446 617 c 0
 430 620 408 621 381 621 c 2
 247 621 l 1
 247 395 l 1
 372 395 l 1
 372 321 l 1
 247 321 l 1
EndSplineSet
EndChar

StartChar: Oslash
Encoding: 216 216 189
Width: 857
VWidth: 0
Flags: HW
HStem: -7 72<336.08 530.593> 628 73<330.495 527.929>
VStem: 105 85<227.865 479.861> 672 85<219.112 469.686>
LayerCount: 2
Fore
SplineSet
435 701 m 1
 536 701 619 658 670 602 c 1
 760 688 l 1
 791 656 l 1
 698 567 l 1
 738 509 757 440 757 358 c 0
 757 354 757 350 757 346 c 0
 753 138 624 -7 424 -7 c 0
 334 -7 258 25 196 89 c 1
 106 2 l 1
 75 34 l 1
 168 123 l 1
 126 184 105 258 105 346 c 0
 105 555 235 701 431 701 c 0
 432 701 434 701 435 701 c 1
433 628 m 1
 280 626 190 512 190 356 c 0
 190 353 190 349 190 346 c 0
 191 283 206 229 232 184 c 1
 609 544 l 1
 575 586 509 628 433 628 c 1
258 147 m 1
 296 102 358 65 437 65 c 0
 516 65 580 106 616 156 c 0
 653 206 672 266 672 335 c 0
 672 404 659 462 634 507 c 1
 258 147 l 1
EndSplineSet
EndChar

StartChar: logicalnot
Encoding: 172 172 190
Width: 683
VWidth: 1023
Flags: HW
HStem: 285 72<61 550>
VStem: 550 73<138 285>
LayerCount: 2
Fore
SplineSet
61 357 m 1
 623 357 l 1
 623 138 l 1
 550 138 l 1
 550 285 l 1
 61 285 l 1
 61 357 l 1
EndSplineSet
EndChar

StartChar: macron
Encoding: 175 175 191
Width: 683
VWidth: 1023
Flags: HW
HStem: 728 73<139 544>
LayerCount: 2
Fore
SplineSet
139 801 m 1
 544 801 l 1
 544 728 l 1
 139 728 l 1
 139 801 l 1
EndSplineSet
EndChar

StartChar: ordfeminine
Encoding: 170 170 192
Width: 374
VWidth: 1023
Flags: HW
HStem: 362 39<147.506 237.587> 498 40<146.939 255> 615 39<99.9282 240.419>
VStem: 85 48<413.985 483.515> 255 47<416.144 498 538 590.62>
LayerCount: 2
Fore
SplineSet
85 447 m 0
 85 530 163 536 255 538 c 1
 255 547 l 2
 255 568 252 583 245 591 c 0
 231 607 211 615 185 615 c 0
 159 615 132 611 103 602 c 1
 94 636 l 1
 126 648 156 654 183 654 c 0
 263 654 303 629 303 552 c 2
 302 371 l 1
 269 371 l 1
 258 397 l 1
 237 374 213 362 184 362 c 0
 129 362 85 393 85 447 c 0
133 449 m 0
 133 419 163 401 197 401 c 0
 218 401 237 415 255 441 c 1
 255 498 l 1
 246 498 l 2
 195 498 161 491 147 479 c 0
 137 471 133 461 133 449 c 0
EndSplineSet
EndChar

StartChar: Thorn
Encoding: 222 222 193
Width: 647
VWidth: 1023
Flags: HW
HStem: 0 21G<142 225> 162 74<225 464.729> 487 73<225 462.996> 674 20G<142 225>
VStem: 142 83<0 162 236 487 560 694>
LayerCount: 2
Fore
SplineSet
142 694 m 1
 225 694 l 1
 225 560 l 1
 273 565 316 567 353 567 c 0
 405 567 447 562 479 553 c 0
 559 530 604 477 604 386 c 0
 604 375 603 365 602 353 c 0
 591 258 545 198 465 175 c 0
 426 163 370 159 312 159 c 0
 283 159 253 160 225 162 c 1
 225 0 l 1
 142 0 l 1
 142 694 l 1
225 487 m 1
 225 236 l 1
 263 233 297 232 326 232 c 0
 376 232 412 236 437 244 c 0
 487 261 515 298 519 356 c 0
 519 360 519 364 519 368 c 0
 519 424 492 461 439 479 c 0
 413 488 375 492 327 492 c 0
 297 492 263 490 225 487 c 1
EndSplineSet
EndChar

StartChar: quotedblleft
Encoding: 8220 8220 194
Width: 405
VWidth: 1023
Flags: HW
HStem: 482 212<81 115 266 300>
LayerCount: 2
Fore
SplineSet
176 694 m 1
 115 482 l 1
 20 482 l 1
 81 694 l 1
 176 694 l 1
361 694 m 1
 300 482 l 1
 205 482 l 1
 266 694 l 1
 361 694 l 1
EndSplineSet
EndChar

StartChar: quotedblright
Encoding: 8221 8221 195
Width: 405
VWidth: 1023
Flags: HW
HStem: 482 212<81 115 266 300>
LayerCount: 2
Fore
SplineSet
81 694 m 1
 176 694 l 1
 115 482 l 1
 20 482 l 1
 81 694 l 1
266 694 m 1
 361 694 l 1
 300 482 l 1
 205 482 l 1
 266 694 l 1
EndSplineSet
EndChar

StartChar: Euro
Encoding: 8364 8364 201
Width: 651
VWidth: 1023
Flags: HW
HStem: -10 76<345.559 559.486> 246 64<24 124 212 412> 414 64<56 127 224 443> 625 74<338.062 553.681>
VStem: 123 74<310 412.97> 133 79<196.566 246>
LayerCount: 2
Fore
SplineSet
212 246 m 1
 244 149 326 66 448 66 c 0
 493 66 540 76 590 96 c 1
 613 34 l 1
 551 4 494 -10 441 -10 c 0
 388 -10 342 -1 304 17 c 0
 215 59 158 135 133 246 c 1xf4
 24 246 l 1
 24 310 l 1
 124 310 l 1
 123 322 123 336 123 354 c 0
 123 372 124 392 127 414 c 1
 56 414 l 1
 56 478 l 1
 142 478 l 1
 145 488 l 1
 176 576 230 637 307 672 c 0
 346 690 391 699 442 699 c 0
 493 699 547 687 604 662 c 1
 582 593 l 1
 525 615 476 625 438 625 c 0
 364 625 306 597 262 542 c 0
 247 523 234 502 224 478 c 1
 443 478 l 1
 443 414 l 1
 204 414 l 1
 199 392 197 372 197 354 c 0xf8
 197 336 198 322 199 310 c 1
 412 310 l 1
 412 246 l 1
 212 246 l 1
EndSplineSet
EndChar

StartChar: emdash
Encoding: 8212 8212 202
Width: 675
VWidth: 1023
Flags: HW
HStem: 288 67<0 676>
LayerCount: 2
Fore
SplineSet
0 355 m 1
 676 355 l 1
 676 288 l 1
 0 288 l 1
 0 355 l 1
EndSplineSet
EndChar

StartChar: endash
Encoding: 8211 8211 203
Width: 565
VWidth: 1023
Flags: HW
HStem: 288 67<0 566>
LayerCount: 2
Fore
SplineSet
0 355 m 1
 566 355 l 1
 566 288 l 1
 0 288 l 1
 0 355 l 1
EndSplineSet
EndChar

StartChar: afii00208
Encoding: 8213 8213 204
Width: 781
VWidth: 1023
Flags: HW
HStem: 288 67<0 781>
LayerCount: 2
Fore
SplineSet
0 355 m 1
 781 355 l 1
 781 288 l 1
 0 288 l 1
 0 355 l 1
EndSplineSet
EndChar

StartChar: bullet
Encoding: 8226 8226 206
Width: 680
VWidth: 0
Flags: HW
HStem: 99 476<242.083 437.917>
VStem: 102 476<239.083 434.917>
LayerCount: 2
Back
SplineSet
475 205 m 1
 205 205 l 1
 205 475 l 1
 475 475 l 1
 475 205 l 1
EndSplineSet
Fore
SplineSet
340 170 m 132
 249 170 173 246 173 337 c 132
 173 428 249 504 340 504 c 132
 431 504 507 428 507 337 c 132
 507 246 431 170 340 170 c 132
EndSplineSet
EndChar

StartChar: interrobang
Encoding: 8253 8253 207
Width: 510
VWidth: 1023
Flags: HW
HStem: 0 98<152 250>
VStem: 152 98<0 98> 164 73<191 274.948 369 527> 347 81<453.482 584.949>
LayerCount: 2
Fore
SplineSet
152 98 m 1xd0
 250 98 l 1
 250 0 l 1
 152 0 l 1
 152 98 l 1xd0
49 668 m 1
 95 690 144 702 196 702 c 0
 350 702 427 647 428 536 c 0
 428 483 412 437 380 398 c 1
 360 376 304 329 283 308 c 0
 260 285 237 241 237 198 c 2
 237 191 l 1
 164 191 l 1
 164 527 l 1
 237 527 l 1
 237 369 l 1xb0
 255 384 l 2
 298 421 347 459 347 522 c 0
 347 599 280 632 196 632 c 0
 182 632 168 631 153 629 c 0
 125 625 98 619 74 609 c 1
 49 668 l 1
EndSplineSet
EndChar

StartChar: quoteleft
Encoding: 8216 8216 208
Width: 219
VWidth: 1023
Flags: HW
HStem: 482 212<105 139>
VStem: 44 156
LayerCount: 2
Fore
SplineSet
44 694 m 1
 139 694 l 1
 200 482 l 1
 105 482 l 1
 44 694 l 1
EndSplineSet
EndChar

StartChar: quoteright
Encoding: 8217 8217 209
Width: 219
VWidth: 1023
Flags: HW
HStem: 482 212<81 115>
VStem: 20 156
LayerCount: 2
Fore
SplineSet
81 694 m 1
 176 694 l 1
 115 482 l 1
 20 482 l 1
 81 694 l 1
EndSplineSet
EndChar

StartChar: fraction
Encoding: 8260 8260 210
Width: 505
VWidth: 0
Flags: HW
HStem: 0 21G<10 107.527> 674 20G<399.444 496>
LayerCount: 2
Fore
SplineSet
411 694 m 1
 496 694 l 1
 96 0 l 1
 10 0 l 1
 411 694 l 1
EndSplineSet
EndChar

StartChar: florin
Encoding: 402 402 211
Width: 400
VWidth: 1023
Flags: HW
HStem: -278 67<-48.3591 107.568> 419 63<53 136 217 378> 631 67<247.572 403.359>
VStem: 136 81<-182.765 419 482 599.453>
LayerCount: 2
Fore
SplineSet
26 -211 m 0
 101 -211 136 -183 136 -109 c 2
 136 419 l 1
 53 419 l 1
 53 482 l 1
 136 482 l 1
 136 535 l 2
 136 644 192 698 299 698 c 0
 333 698 371 692 413 679 c 1
 401 619 l 1
 371 627 347 631 329 631 c 0
 255 631 217 601 217 528 c 2
 217 482 l 1
 378 482 l 1
 378 419 l 1
 217 419 l 1
 217 -130 l 2
 217 -138 216 -144 216 -147 c 0
 216 -150 215 -154 215 -159 c 0
 215 -169 214 -170 212 -179 c 1
 212 -187 208 -192 205 -198 c 0
 184 -249 126 -278 56 -278 c 0
 22 -278 -16 -272 -58 -259 c 1
 -46 -200 l 1
 -16 -208 8 -211 26 -211 c 0
EndSplineSet
EndChar

StartChar: guilsinglleft
Encoding: 8249 8249 212
Width: 275
VWidth: 1023
Flags: HW
HStem: 462 20G<147.067 251>
VStem: 37 214
LayerCount: 2
Fore
SplineSet
161 482 m 1
 251 482 l 1
 118 304 l 1
 251 126 l 1
 161 126 l 1
 37 304 l 1
 161 482 l 1
EndSplineSet
EndChar

StartChar: guilsinglright
Encoding: 8250 8250 213
Width: 275
VWidth: 1023
Flags: HW
HStem: 462 20G<24 128.933>
VStem: 24 215
LayerCount: 2
Fore
SplineSet
24 482 m 1
 115 482 l 1
 239 304 l 1
 115 126 l 1
 24 126 l 1
 158 304 l 1
 24 482 l 1
EndSplineSet
EndChar

StartChar: dagger
Encoding: 8224 8224 214
Width: 459
VWidth: 1023
Flags: HW
HStem: 569 54<83 195 265 377>
VStem: 195 70<72 574 618 738>
LayerCount: 2
Fore
SplineSet
195 72 m 1
 195 574 l 1
 83 569 l 1
 83 623 l 1
 195 618 l 1
 195 738 l 1
 265 738 l 1
 265 618 l 1
 377 623 l 1
 377 569 l 1
 265 574 l 1
 265 72 l 1
 195 72 l 1
EndSplineSet
EndChar

StartChar: daggerdbl
Encoding: 8225 8225 215
Width: 459
VWidth: 1023
Flags: HW
HStem: -2 53<83 195 265 377> 569 54<83 195 265 377>
VStem: 195 70<-117 2 46 574 618 738>
LayerCount: 2
Fore
SplineSet
195 46 m 1
 195 574 l 1
 83 569 l 1
 83 623 l 1
 195 618 l 1
 195 738 l 1
 265 738 l 1
 265 618 l 1
 377 623 l 1
 377 569 l 1
 265 574 l 1
 265 46 l 1
 377 51 l 1
 377 -2 l 1
 265 2 l 1
 265 -117 l 1
 195 -117 l 1
 195 2 l 1
 83 -2 l 1
 83 51 l 1
 195 46 l 1
EndSplineSet
EndChar

StartChar: quotesinglbase
Encoding: 8218 8218 216
Width: 219
VWidth: 1023
Flags: HW
HStem: -105 211<81 115>
VStem: 20 156
LayerCount: 2
Fore
SplineSet
81 106 m 1
 176 106 l 1
 115 -105 l 1
 20 -105 l 1
 81 106 l 1
EndSplineSet
EndChar

StartChar: quotedblbase
Encoding: 8222 8222 217
Width: 405
VWidth: 1023
Flags: HW
HStem: -107 211<81 115 266 300>
LayerCount: 2
Fore
SplineSet
81 104 m 1
 176 104 l 1
 115 -107 l 1
 20 -107 l 1
 81 104 l 1
266 104 m 1
 361 104 l 1
 300 -107 l 1
 205 -107 l 1
 266 104 l 1
EndSplineSet
EndChar

StartChar: perthousand
Encoding: 8240 8240 218
Width: 937
VWidth: 1023
Flags: HW
HStem: 0 21G<42 138.631> 32 46<430.593 521.503 729.357 817.503> 257 47<430.443 523.265 726.08 819.527> 394 45<116.357 203.882> 619 47<113.571 206.539> 674 20G<501.369 598>
VStem: 48 48<456.413 600.141> 223 48<458.867 603.13> 365 47<96.3054 239.14> 540 48<96.9432 240.504> 661 47<96.3054 239.14> 836 48<96.9432 240.504>
LayerCount: 2
Fore
SplineSet
223 519 m 0
 223 583 212 619 152 619 c 0
 118 619 96 582 96 543 c 0
 96 484 109 439 161 439 c 0
 199 439 223 476 223 519 c 0
48 528 m 0
 48 607 89 666 160 666 c 0
 232 666 271 615 271 533 c 0
 271 457 231 394 159 394 c 0
 86 394 48 448 48 528 c 0
540 157 m 0
 540 221 528 257 468 257 c 0
 434 257 412 220 412 181 c 0
 412 139 416 114 435 95 c 0
 447 84 462 78 478 78 c 0
 517 78 540 114 540 157 c 0
472 304 m 0
 546 304 588 260 588 180 c 0
 588 97 551 32 476 32 c 0
 402 32 365 86 365 167 c 0
 365 213 376 247 398 270 c 0
 420 293 444 304 472 304 c 0
836 157 m 0
 836 222 824 257 764 257 c 0
 730 257 708 220 708 181 c 0
 708 123 722 78 774 78 c 0
 813 78 836 114 836 157 c 0
769 304 m 0
 842 304 884 259 884 180 c 0
 884 97 847 32 772 32 c 0
 699 32 661 87 661 167 c 0
 661 213 672 247 694 270 c 0
 716 293 741 304 769 304 c 0
515 694 m 1
 598 694 l 1
 125 0 l 1
 42 0 l 1
 515 694 l 1
EndSplineSet
EndChar

StartChar: circumflex
Encoding: 710 710 219
Width: 722
VWidth: 1023
Flags: HW
HStem: 570 182
VStem: 216 263
LayerCount: 2
Fore
SplineSet
354 752 m 1
 479 613 l 1
 434 570 l 1
 348 666 l 1
 259 570 l 1
 216 608 l 1
 354 752 l 1
EndSplineSet
EndChar

StartChar: tilde
Encoding: 732 732 220
Width: 683
VWidth: 1023
Flags: HW
HStem: 604 149
LayerCount: 2
Fore
SplineSet
502 753 m 1
 554 730 l 1
 541 704 l 2
 526 673 512 651 502 640 c 0
 480 616 457 604 431 604 c 0
 419 604 406 607 393 612 c 0
 375 619 357 630 341 646 c 0
 317 669 302 683 295 687 c 0
 287 691 280 693 273 693 c 0
 254 693 239 679 224 651 c 1
 201 604 l 1
 149 627 l 1
 163 654 l 2
 178 685 191 706 201 717 c 0
 223 741 247 753 273 753 c 0
 285 753 298 750 311 745 c 0
 329 738 346 727 362 711 c 0
 386 688 401 675 408 671 c 0
 416 667 423 665 430 665 c 0
 449 665 464 679 479 707 c 2
 502 753 l 1
EndSplineSet
EndChar

StartChar: breve
Encoding: 728 728 222
Width: 526
VWidth: 0
Flags: HW
HStem: 550 157
LayerCount: 2
Fore
SplineSet
399 707 m 1
 454 669 l 1
 417 620 346 557 271 550 c 0
 263 549 255 549 248 549 c 0
 193 549 148 568 111 609 c 0
 93 628 81 651 72 675 c 1
 132 707 l 1
 149 672 169 648 193 634 c 0
 214 622 235 616 256 616 c 0
 284 616 312 626 340 647 c 0
 362 663 381 683 399 707 c 1
EndSplineSet
EndChar

StartChar: trademark
Encoding: 8482 8482 225
Width: 695
VWidth: 1023
Flags: HW
HStem: 699 39<54 139 187 272>
VStem: 139 48<460 699> 337 48<460 680> 569 48<460 678>
LayerCount: 2
Fore
SplineSet
187 460 m 1
 139 460 l 1
 139 699 l 1
 54 699 l 1
 54 738 l 1
 272 738 l 1
 272 699 l 1
 187 699 l 1
 187 460 l 1
337 738 m 1
 394 738 l 1
 478 583 l 1
 559 738 l 1
 617 738 l 1
 617 460 l 1
 569 460 l 1
 569 678 l 1
 491 535 l 1
 458 535 l 1
 385 680 l 1
 385 460 l 1
 337 460 l 1
 337 738 l 1
EndSplineSet
EndChar

StartChar: Amacron
Encoding: 256 256 226
Width: 648
VWidth: 0
Flags: HW
HStem: 0 21<30 113.931 527.069 618> 202 72<202 438> 674 20<269.882 378.118> 766 63<145 506>
LayerCount: 2
Fore
SplineSet
145 829 m 1
 506 829 l 1
 506 766 l 1
 145 766 l 1
 145 829 l 1
EndSplineSet
Refer: 32 65 N 1 0 0 1 0 0 3
EndChar

StartChar: amacron
Encoding: 257 257 227
Width: 491
VWidth: 0
Flags: HW
HStem: 0 73 217 73<197 355> 408 73 588 63<129 389>
VStem: 345 82<91 224 284 384>
LayerCount: 2
Fore
SplineSet
129 651 m 1
 389 651 l 1
 389 588 l 1
 129 588 l 1
 129 651 l 1
EndSplineSet
Refer: 0 97 N 1 0 0 1 0 0 3
EndChar

StartChar: cacute
Encoding: 263 263 231
Width: 467
VWidth: 0
Flags: HW
HStem: -10 67<209.074 393.763> 408 68<206.038 398.764>
LayerCount: 2
Fore
SplineSet
323 756 m 1
 368 703 l 1
 184 549 l 1
 145 598 l 1
 323 756 l 1
EndSplineSet
Refer: 18 99 N 1 0 0 1 0 0 3
EndChar

StartChar: dcaron
Encoding: 271 271 239
Width: 695
VWidth: 0
Flags: HW
HStem: 0 73 408 73 651 20
VStem: 56 85<138 347> 420 83<79 415 471 671>
LayerCount: 2
Fore
SplineSet
590 738 m 1
 671 738 l 1
 613 547 l 1
 533 547 l 1
 590 738 l 1
EndSplineSet
Refer: 1 100 N 1 0 0 1 0 0 2
EndChar

StartChar: Emacron
Encoding: 274 274 241
Width: 556
VWidth: 0
Flags: HW
HStem: 0 73<173 496> 321 73<173 469> 621 73<173 496> 766 63<124 482>
VStem: 90 83<73 321 394 621>
LayerCount: 2
Fore
SplineSet
124 829 m 1
 482 829 l 1
 482 766 l 1
 124 766 l 1
 124 829 l 1
EndSplineSet
Refer: 34 69 N 1 0 0 1 0 0 3
EndChar

StartChar: Itilde
Encoding: 296 296 258
Width: 328
VWidth: 0
Flags: HW
HStem: 0 21<140.4 223.4> 674 20<140.4 223.4>
VStem: 19 314 140 83<0 694>
LayerCount: 2
Fore
SplineSet
70 773 m 1xe0
 19 787 l 1
 32 835 l 2
 44 879 69 904 107 910 c 0
 112 911 117 911 121 911 c 0
 149 911 167 895 182 875 c 2
 205 844 l 2
 214 831 222 824 227 822 c 0
 231 821 235 820 238 820 c 0
 256 820 262 841 269 862 c 2
 282 910 l 1
 333 896 l 1
 320 849 l 2
 308 806 291 768 250 759 c 0
 244 757 238 757 232 757 c 0
 214 757 198 763 185 777 c 0
 181 781 176 787 170 794 c 2
 147 825 l 2
 137 838 129 846 123 848 c 0
 119 850 115 850 111 850 c 0
 98 850 88 841 83 821 c 2
 70 773 l 1xe0
EndSplineSet
Refer: 40 73 N 1 0 0 1 0 0 3
EndChar

StartChar: itilde
Encoding: 297 297 259
Width: 255
VWidth: 0
Flags: HW
HStem: -4 21<88 168> 458 20<88 168> 674 20G<228.583 285>
VStem: -29 314 88 80<-4 478>
LayerCount: 2
Fore
SplineSet
22 558 m 1xf0
 -29 571 l 1
 -16 619 l 2
 -4 663 21 688 59 694 c 0
 64 695 69 695 73 695 c 0
 101 695 119 679 134 659 c 2
 157 628 l 2
 166 615 174 608 179 606 c 0
 183 605 187 604 190 604 c 0
 208 604 214 625 221 646 c 2
 234 694 l 1
 285 680 l 1
 272 633 l 2
 260 590 243 552 202 543 c 0
 196 541 189 541 183 541 c 0
 165 541 150 547 137 561 c 0
 133 565 128 571 122 578 c 2
 99 609 l 2
 89 622 81 630 75 632 c 0
 71 634 67 634 63 634 c 0
 50 634 40 625 35 605 c 2
 22 558 l 1xf0
EndSplineSet
Refer: 140 305 N 1 0 0 1 0 -4 3
EndChar

StartChar: Imacron
Encoding: 298 298 260
Width: 328
VWidth: 0
Flags: HW
HStem: 0 21<140.4 223.4> 674 20<140.4 223.4> 766 63<82.4004 282.4>
VStem: 82 200<766 829> 140 83<0 694>
LayerCount: 2
Fore
SplineSet
82 829 m 1xf0
 282 829 l 1
 282 766 l 1
 82 766 l 1
 82 829 l 1xf0
EndSplineSet
Refer: 40 73 N 1 0 0 1 0 0 3
EndChar

StartChar: imacron
Encoding: 299 299 261
Width: 255
VWidth: 0
Flags: HW
HStem: 0 21<88 168> 462 20<88 168> 588 63<39 217>
VStem: 39 178<588 651> 88 80<0 482>
LayerCount: 2
Fore
SplineSet
39 651 m 1xf0
 217 651 l 1
 217 588 l 1
 39 588 l 1
 39 651 l 1xf0
EndSplineSet
Refer: 140 305 N 1 0 0 1 0 0 3
EndChar

StartChar: Ibreve
Encoding: 300 300 262
Width: 328
VWidth: 0
Flags: HW
HStem: 0 21<120.4 203.4> 674 20<120.4 203.4>
VStem: 4 313 120 83<0 694>
LayerCount: 2
Fore
SplineSet
272 914 m 1xe0
 317 876 l 1
 287 826 233 770 169 762 c 0
 161 761 153 761 146 761 c 0
 93 761 52 786 24 836 c 0
 16 851 9 866 4 883 c 1
 64 915 l 1
 75 884 91 862 113 847 c 0
 128 837 144 832 159 832 c 0
 187 832 216 848 246 882 c 0
 254 892 263 902 272 914 c 1xe0
EndSplineSet
Refer: 40 73 N 1 0 0 1 -20 0 3
EndChar

StartChar: ibreve
Encoding: 301 301 263
Width: 255
VWidth: 0
Flags: HW
HStem: 0 21<88 168> 462 20<88 168> 680 21G<5.63636 48 246.5 274.684>
VStem: -18 314 88 80<0 482>
LayerCount: 2
Fore
SplineSet
251 700 m 1xf0
 296 662 l 1
 265 610 213 556 148 548 c 0
 140 547 132 547 125 547 c 0
 71 547 30 572 2 622 c 0
 -6 637 -13 651 -18 668 c 1
 42 701 l 1
 54 670 71 648 92 633 c 0
 107 623 122 617 138 617 c 0
 166 617 195 634 225 667 c 0
 233 677 242 688 251 700 c 1xf0
EndSplineSet
Refer: 140 305 N 1 0 0 1 0 0 3
EndChar

StartChar: lcaron
Encoding: 318 318 276
Width: 393
VWidth: 0
Flags: HW
HStem: 0 21<98 178> 651 20<98 178>
VStem: 60 80<0 671.443>
LayerCount: 2
Fore
SplineSet
288 738 m 1
 369 738 l 1
 311 547 l 1
 230 547 l 1
 288 738 l 1
EndSplineSet
Refer: 10 108 N 1 0 0 1.00066 0 0 2
EndChar

StartChar: Omacron
Encoding: 332 332 285
Width: 811
VWidth: 0
Flags: HW
HStem: -8 74<322.31 515.429> 626 74<322.31 515.429> 766 63<250 611>
VStem: 90 94<221.501 470.277> 654 94<221.501 470.11>
LayerCount: 2
Fore
SplineSet
250 829 m 1
 611 829 l 1
 611 766 l 1
 250 766 l 1
 250 829 l 1
EndSplineSet
Refer: 31 79 N 1 0 0 1 0 0 3
EndChar

StartChar: omacron
Encoding: 333 333 286
Width: 569
VWidth: 0
Flags: HW
HStem: -10 65<201.366 356.188> 426 64<201.263 354.656> 588 63<107 468>
VStem: 46 83<136.024 343.789> 427 83<134.537 345.226>
LayerCount: 2
Fore
SplineSet
107 651 m 1
 468 651 l 1
 468 588 l 1
 107 588 l 1
 107 651 l 1
EndSplineSet
Refer: 6 111 N 1 0 0 1 0 0 3
EndChar

StartChar: racute
Encoding: 341 341 290
Width: 391
VWidth: 0
Flags: HW
HStem: 0 21<88 171> 402 79<299.077 364> 418 72<207.126 357.922>
VStem: 88 83<0 395.646>
LayerCount: 2
Fore
SplineSet
296 756 m 1x90
 341 703 l 1
 157 549 l 1
 118 598 l 1
 296 756 l 1x90
EndSplineSet
Refer: 20 114 N 1 0 0 1 0 0 3
EndChar

StartChar: sacute
Encoding: 347 347 296
Width: 497
VWidth: 0
Flags: HW
HStem: -10 68<112.539 330.762> 408 67<295.706 414.2>
VStem: 80 85 360 85
LayerCount: 2
Fore
SplineSet
337 756 m 1
 382 703 l 1
 198 549 l 1
 159 598 l 1
 337 756 l 1
EndSplineSet
Refer: 7 115 N 1 0 0 1 0 0 3
EndChar

StartChar: Scedilla
Encoding: 350 350 299
Width: 599
VWidth: 0
Flags: HW
HStem: -9 81<162.242 386.841> 622 78<230.37 485.598>
VStem: 74 91<457.824 569.074> 449 90<123.688 240.321>
LayerCount: 2
Fore
SplineSet
266 12 m 1
 337 9 l 1
 318 -66 l 1
 366 -81 400 -97 405 -147 c 0
 405 -150 405 -153 405 -156 c 0
 405 -183 393 -207 370 -226 c 0
 350 -242 328 -247 304 -247 c 0
 272 -247 238 -237 203 -227 c 2
 186 -222 l 1
 201 -171 l 1
 215 -175 l 2
 262 -189 291 -195 303 -195 c 0
 327 -194 342 -187 348 -172 c 0
 350 -168 351 -164 351 -160 c 0
 351 -145 337 -133 328 -128 c 0
 321 -125 312 -122 302 -119 c 2
 236 -99 l 1
 266 12 l 1
EndSplineSet
Refer: 55 83 N 1 0 0 1 0 0 3
EndChar

StartChar: Tcommaaccent
Encoding: 354 354 301
Width: 590
VWidth: 0
Flags: HW
HStem: 621 73<42 273 356 588>
VStem: 273 83<-67.2031 621>
LayerCount: 2
Fore
SplineSet
42 694 m 1
 588 694 l 1
 588 621 l 1
 356 621 l 1
 356 78 l 2
 356 17 355 5 341 -44 c 2
 333 -71 l 1
 364 -80 387 -91 402 -115 c 0
 411 -129 415 -143 415 -157 c 0
 415 -187 397 -215 377 -230 c 0
 356 -245 334 -250 311 -250 c 0
 280 -250 247 -241 212 -230 c 2
 195 -225 l 1
 210 -174 l 1
 225 -179 l 1
 269 -192 298 -199 310 -199 c 0
 335 -199 351 -191 358 -175 c 0
 360 -171 360 -167 360 -163 c 0
 360 -155 357 -147 350 -140 c 0
 344 -134 330 -128 307 -121 c 2
 246 -102 l 1
 261 -48 l 2
 272 -5 273 6 273 48 c 0
 273 55 273 63 273 73 c 2
 273 621 l 1
 42 621 l 1
 42 694 l 1
EndSplineSet
EndChar

StartChar: Umacron
Encoding: 362 362 307
Width: 709
VWidth: 0
Flags: HW
HStem: -10 72<253.432 454.377> 674 20<91 174 535 618> 766 63<142 547>
VStem: 91 83<136.866 694> 535 83<139.491 694>
LayerCount: 2
Fore
SplineSet
142 829 m 1
 547 829 l 1
 547 766 l 1
 142 766 l 1
 142 829 l 1
EndSplineSet
Refer: 51 85 N 1 0 0 1 0 0 3
EndChar

StartChar: umacron
Encoding: 363 363 308
Width: 521
VWidth: 0
Flags: HW
HStem: 0 73 408 73 588 63<26 318>
VStem: 66 81<88 480> 391 82<83 480>
LayerCount: 2
Fore
SplineSet
26 651 m 1
 318 651 l 1
 318 588 l 1
 26 588 l 1
 26 651 l 1
EndSplineSet
Refer: 14 117 N 1 0 0 1 0 0 3
EndChar

StartChar: zacute
Encoding: 378 378 318
Width: 526
VWidth: 0
Flags: HW
HStem: 0 63<177 453> 419 63<73 336>
LayerCount: 2
Fore
SplineSet
335 756 m 1
 380 703 l 1
 196 549 l 1
 157 598 l 1
 335 756 l 1
EndSplineSet
Refer: 25 122 N 1 0 0 1 0 0 3
EndChar

StartChar: zdotaccent
Encoding: 380 380 320
Width: 526
VWidth: 0
Flags: HW
HStem: 0 63<177 453> 419 63<73 336> 602 92<211 306>
VStem: 211 95<602 694>
LayerCount: 2
Fore
SplineSet
211 694 m 1
 306 694 l 1
 306 602 l 1
 211 602 l 1
 211 694 l 1
73 482 m 1
 441 482 l 1
 441 440 l 1
 177 63 l 1
 453 63 l 1
 453 0 l 1
 73 0 l 1
 73 42 l 1
 336 419 l 1
 73 419 l 1
 73 482 l 1
EndSplineSet
EndChar

StartChar: eng
Encoding: 331 331 322
Width: 574
VWidth: 1023
Flags: HW
HStem: 0 21G<88 168> 462 20G<88 152.5>
VStem: 88 80<0 392.62> 406 80<-81.7498 373.103>
LayerCount: 2
Fore
SplineSet
88 482 m 1
 144 482 l 1
 161 442 l 1
 201 464 241 479 282 487 c 0
 299 491 316 492 331 492 c 0
 374 492 410 478 439 450 c 0
 484 406 486 351 486 257 c 2
 486 -8 l 2
 486 -51 481 -82 472 -100 c 0
 447 -147 409 -170 352 -170 c 0
 330 -170 305 -166 277 -160 c 1
 242 -151 l 1
 254 -92 l 1
 292 -98 l 1
 304 -100 316 -101 326 -101 c 0
 373 -101 399 -79 405 -36 c 0
 406 -29 406 -19 406 -5 c 2
 406 291 l 2
 406 358 387 397 339 413 c 0
 326 417 311 420 296 420 c 0
 259 420 216 407 168 382 c 1
 168 0 l 1
 88 0 l 1
 88 482 l 1
EndSplineSet
EndChar

StartChar: uni0237
Encoding: 567 567 323
Width: 255
VWidth: 1023
Flags: HW
HStem: 462 20G<86 166.073>
VStem: 87 81<-154.025 482>
LayerCount: 2
Fore
SplineSet
168 -64 m 2
 168 -132 162 -143 144 -180 c 0
 124 -221 83 -247 38 -263 c 1
 8 -202 l 1
 61 -177 87 -136 87 -78 c 0
 87 -76 87 -73 87 -71 c 1
 87 -68 l 1
 86 482 l 1
 166 482 l 1
 168 -64 l 2
EndSplineSet
EndChar

StartChar: Eng
Encoding: 330 330 324
Width: 804
VWidth: 1023
Flags: HW
HStem: -161 59<445.576 599.156> 0 21G<142 225> 675 20G<142 205.362>
VStem: 142 83<0 584.521> 619 83<-82.5481 555.035>
LayerCount: 2
Fore
SplineSet
142 695 m 1
 196 695 l 1
 218 648 l 1
 259 667 296 682 331 694 c 0
 387 714 437 723 482 723 c 0
 533 723 577 711 613 685 c 0
 662 650 690 599 699 530 c 0
 701 511 702 482 702 445 c 2
 702 -8 l 2
 702 -84 689 -122 639 -154 c 0
 624 -163 603 -171 578 -176 c 0
 569 -178 558 -179 546 -179 c 0
 517 -179 480 -173 435 -161 c 1
 447 -102 l 1
 473 -107 497 -110 519 -110 c 0
 571 -110 608 -92 617 -41 c 0
 619 -33 619 -21 619 -5 c 2
 619 410 l 2
 619 492 616 535 581 582 c 0
 551 622 508 642 451 642 c 0
 417 642 379 635 336 621 c 0
 301 610 265 594 225 575 c 1
 225 0 l 1
 142 0 l 1
 142 695 l 1
EndSplineSet
EndChar

StartChar: Lslash
Encoding: 321 321 325
Width: 537
VWidth: 1023
Flags: HW
HStem: 0 73<210.8 521.8> 674 20<127.8 210.8>
VStem: 128 83<73 694>
LayerCount: 2
Fore
SplineSet
57 314 m 1
 338 477 l 1
 338 393 l 1
 57 230 l 1
 57 314 l 1
EndSplineSet
Refer: 33 76 N 1 0 0 1 0 0 2
EndChar

StartChar: lslash
Encoding: 322 322 326
Width: 335
VWidth: 1023
Flags: HW
HStem: 0 21<113 193> 651 20<113 193>
VStem: 44 252 75 80<0 671>
LayerCount: 2
Fore
SplineSet
44 328 m 1xe0
 296 474 l 1
 296 401 l 1
 44 255 l 1
 44 328 l 1xe0
EndSplineSet
Refer: 10 108 N 1 0 0 1 15 0 2
EndChar

StartChar: kgreenlandic
Encoding: 312 312 327
Width: 523
VWidth: 0
Flags: HW
HStem: 0 21G<88 168 373.591 489> 462 20G<88 168 362.638 463>
VStem: 88 80<0 482>
LayerCount: 2
Fore
SplineSet
88 482 m 1
 168 482 l 1
 168 0 l 1
 88 0 l 1
 88 482 l 1
380 482 m 1
 463 482 l 1
 267 257 l 1
 489 0 l 1
 391 0 l 1
 176 247 l 1
 380 482 l 1
EndSplineSet
EndChar

StartChar: napostrophe
Encoding: 329 329 328
Width: 659
VWidth: 1023
Flags: HW
HStem: 0 73 408 73 482 21G<36.0996 110.1> 674 20G<36.0996 110.1>
VStem: 36 74<481.934 693.934> 149 82<0 397> 487 81<0 392>
LayerCount: 2
Fore
SplineSet
36 694 m 5
 110 694 l 5
 110 482 l 5
 36 482 l 5
 36 694 l 5
EndSplineSet
Refer: 5 110 N 1 0 0 1 83 0 2
EndChar

StartChar: ogonek
Encoding: 731 731 329
Width: 529
VWidth: 0
Flags: HW
HStem: 16 54<407.306 439.944>
VStem: 224 229
LayerCount: 2
Fore
SplineSet
438 70 m 1
 453 16 l 1
 423 5 397 -9 374 -27 c 0
 322 -68 295 -108 295 -146 c 0
 295 -148 295 -150 295 -152 c 0
 296 -167 302 -180 311 -188 c 0
 320 -197 332 -201 346 -201 c 0
 367 -201 395 -191 427 -172 c 1
 450 -216 l 1
 407 -247 367 -264 330 -266 c 0
 328 -266 327 -266 325 -266 c 0
 265 -266 224 -221 224 -169 c 0
 224 -167 224 -166 224 -164 c 0
 226 -126 238 -90 260 -57 c 0
 304 8 363 50 438 70 c 1
EndSplineSet
EndChar

StartChar: Tbar
Encoding: 358 358 333
Width: 585
VWidth: 1023
Flags: HW
HStem: 0 21<268.8 351.8> 294 74<119.8 526.8> 621 73<37.7998 268.8 351.8 583.8>
VStem: 269 83<0 621>
LayerCount: 2
Fore
SplineSet
120 368 m 1
 527 368 l 1
 527 294 l 1
 120 294 l 1
 120 368 l 1
EndSplineSet
Refer: 39 84 N 1 0 0 1 0 0 2
EndChar

StartChar: tbar
Encoding: 359 359 334
Width: 387
VWidth: 1023
Flags: HW
HStem: -9 68<205.12 345.524> 234 53<8 300> 415 68<25 106 187 347>
VStem: 106 81<82.7104 415 483 603>
LayerCount: 2
Fore
SplineSet
8 287 m 1
 300 287 l 1
 300 234 l 1
 8 234 l 1
 8 287 l 1
EndSplineSet
Refer: 19 116 N 1 0 0 1 0 0 2
EndChar

StartChar: Hbar
Encoding: 294 294 335
Width: 740
VWidth: 1023
Flags: HW
HStem: 0 21<90 177 562 650> 311 75<177 562> 553 68<40 724>
VStem: 90 87<0 311 386 692> 562 88<0 311 386 692>
LayerCount: 2
Fore
SplineSet
40 621 m 1
 724 621 l 1
 724 553 l 1
 40 553 l 1
 40 621 l 1
EndSplineSet
Refer: 29 72 S 1 0 0 1 0 0 2
EndChar

StartChar: hbar
Encoding: 295 295 336
Width: 520
VWidth: 1023
Flags: HW
HStem: 0 73 408 73 558 63<16 301>
VStem: 60 83<0 400 452 670> 390 82<0 395>
LayerCount: 2
Fore
SplineSet
16 621 m 1
 301 621 l 1
 301 558 l 1
 16 558 l 1
 16 621 l 1
EndSplineSet
Refer: 3 104 N 1 0 0 1 0 0 2
EndChar

StartChar: dcroat
Encoding: 273 273 337
Width: 604
VWidth: 1023
Flags: HW
HStem: 0 73 408 73 558 63<276 561> 651 20
VStem: 56 85<138 347> 420 83<79 415 471 671>
LayerCount: 2
Fore
SplineSet
276 621 m 1
 561 621 l 1
 561 558 l 1
 276 558 l 1
 276 621 l 1
EndSplineSet
Refer: 1 100 N 1 0 0 1 0 0 2
EndChar

StartChar: ohungarumlaut
Encoding: 337 337 339
Width: 569
VWidth: 0
Flags: HW
HStem: -10 65<201.366 356.188> 426 64<201.263 354.656>
VStem: 46 83<136.024 343.789> 427 83<134.537 345.226>
LayerCount: 2
Fore
SplineSet
292 756 m 1
 337 703 l 1
 153 549 l 1
 114 598 l 1
 292 756 l 1
506 756 m 1
 551 703 l 1
 367 549 l 1
 328 598 l 1
 506 756 l 1
EndSplineSet
Refer: 6 111 N 1 0 0 1 0 0 3
EndChar

StartChar: Aogonek
Encoding: 260 260 340
Width: 675
VWidth: 0
Flags: HW
HStem: 0 21G<63 146.931> 202 72<235 471> 674 20G<302.882 411.118>
LayerCount: 2
Fore
SplineSet
310 694 m 1
 404 694 l 1
 651 0 l 1
 644 0 l 2
 558 0 517 -33 478 -86 c 0
 461 -109 453 -129 453 -146 c 0
 455 -181 475 -201 505 -201 c 0
 517 -201 530 -198 544 -192 c 0
 556 -187 570 -180 585 -172 c 1
 608 -216 l 1
 560 -250 519 -266 481 -266 c 0
 480 -266 479 -266 478 -266 c 0
 452 -265 432 -258 417 -244 c 0
 394 -223 382 -197 382 -167 c 0
 382 -162 382 -156 383 -151 c 0
 389 -106 414 -62 460 -20 c 0
 490 8 522 27 554 38 c 1
 497 202 l 1
 210 202 l 1
 140 0 l 1
 63 0 l 1
 310 694 l 1
354 613 m 1
 235 274 l 1
 471 274 l 1
 354 613 l 1
EndSplineSet
EndChar

StartChar: aogonek
Encoding: 261 261 341
Width: 521
VWidth: 0
Flags: HW
HStem: 213 61<177.199 354> 397 59<104.22 163.861> 465 20G<213.5 295>
VStem: 354 79<82.8254 213 274 382.234>
LayerCount: 2
Fore
SplineSet
91 456 m 1
 143 476 191 485 236 485 c 0
 354 485 419 445 432 364 c 0
 434 353 434 335 434 314 c 2
 433 -22 l 1
 387 -45 356 -62 339 -71 c 0
 296 -95 275 -124 275 -155 c 0
 275 -157 275 -159 275 -161 c 0
 276 -174 281 -185 290 -193 c 0
 299 -201 311 -205 326 -205 c 0
 347 -205 375 -197 407 -179 c 1
 430 -219 l 1
 382 -250 341 -266 305 -266 c 0
 285 -266 266 -261 249 -251 c 0
 224 -236 205 -210 205 -173 c 0
 205 -171 205 -169 205 -167 c 0
 208 -104 264 -47 375 4 c 1
 359 42 l 1
 312 10 263 -9 216 -9 c 0
 186 -9 157 -2 129 16 c 0
 84 44 60 81 60 128 c 0
 60 163 74 194 103 220 c 0
 124 239 150 251 180 258 c 0
 220 267 278 273 354 274 c 1
 354 293 l 2
 354 322 352 342 349 352 c 0
 343 373 331 389 312 401 c 0
 293 413 267 419 235 419 c 0
 200 419 157 412 106 397 c 1
 91 456 l 1
354 97 m 1
 354 213 l 1
 347 213 338 213 325 213 c 0
 264 212 224 209 204 203 c 0
 174 194 140 171 140 136 c 0
 140 83 188 59 239 57 c 0
 240 57 242 57 243 57 c 0
 281 57 317 70 354 97 c 1
EndSplineSet
EndChar

StartChar: Eogonek
Encoding: 280 280 342
Width: 626
VWidth: 0
Flags: HW
HStem: -265 65<399.581 501.679> 0 73<225 435> 321 73<225 521> 621 73<225 548>
VStem: 142 83<73 321 394 621> 322 70<-191.662 -93.592>
LayerCount: 2
Fore
SplineSet
392 -151 m 1
 392 -185 416 -200 450 -200 c 0
 468 -200 492 -190 524 -171 c 1
 547 -215 l 1
 502 -248 461 -264 421 -265 c 0
 398 -265 379 -261 364 -250 c 0
 336 -230 322 -204 322 -171 c 0
 322 -138 330 -109 347 -83 c 0
 364 -57 390 -31 426 -6 c 2
 435 0 l 1
 142 0 l 1
 142 694 l 1
 548 694 l 1
 548 621 l 1
 225 621 l 1
 225 394 l 1
 521 394 l 1
 521 321 l 1
 225 321 l 1
 225 73 l 1
 548 73 l 1
 548 14 l 1
 462 -47 l 1
 414 -83 391 -118 392 -151 c 1
EndSplineSet
EndChar

StartChar: eogonek
Encoding: 281 281 343
Width: 538
VWidth: 0
Flags: HW
HStem: 199 60<145 397> 417 70<207.48 347.904>
VStem: 63 80<129.145 199 259 343.98> 397 78<259 367.828>
LayerCount: 2
Fore
SplineSet
307 -11 m 1
 304 -11 301 -11 298 -11 c 0
 142 -11 63 70 63 227 c 0
 63 337 116 425 187 461 c 0
 221 478 258 486 295 486 c 0
 344 486 391 471 422 438 c 0
 464 393 475 338 475 246 c 2
 475 199 l 1
 143 199 l 1
 144 166 155 138 175 116 c 0
 213 73 263 52 325 52 c 0
 358 52 394 58 434 70 c 1
 448 16 l 1
 415 5 387 -11 364 -31 c 0
 315 -74 290 -114 290 -152 c 0
 290 -155 290 -157 290 -160 c 0
 294 -190 314 -206 342 -206 c 0
 355 -206 370 -202 386 -196 c 0
 398 -191 410 -186 422 -179 c 1
 445 -220 l 1
 398 -251 355 -266 315 -266 c 0
 256 -266 220 -221 220 -169 c 0
 220 -116 249 -63 307 -11 c 1
397 259 m 1
 397 264 397 268 397 273 c 0
 397 363 363 411 279 417 c 0
 276 417 272 417 269 417 c 0
 219 417 185 381 165 345 c 0
 152 321 146 292 145 259 c 1
 397 259 l 1
EndSplineSet
EndChar

StartChar: Iogonek
Encoding: 302 302 344
Width: 356
VWidth: 0
Flags: HW
HStem: -266 65<94.3372 193.693> 674 20G<156 239>
VStem: 156 83<13.125 694>
LayerCount: 2
Fore
SplineSet
156 694 m 1
 239 694 l 1
 239 15 l 1
 166 -25 119 -65 98 -105 c 0
 90 -120 86 -135 86 -149 c 0
 86 -178 103 -200 136 -201 c 0
 137 -201 138 -201 139 -201 c 0
 160 -201 186 -191 217 -172 c 1
 241 -216 l 1
 196 -248 154 -265 116 -266 c 0
 115 -266 113 -266 112 -266 c 0
 55 -266 15 -220 15 -173 c 0
 15 -119 37 -70 84 -26 c 0
 105 -6 130 11 156 24 c 1
 156 694 l 1
EndSplineSet
EndChar

StartChar: iogonek
Encoding: 303 303 345
Width: 255
VWidth: 0
Flags: HW
HStem: 462 20G<88 168> 602 92<81 175>
VStem: 81 94<602 694> 88 80<27.6183 482>
LayerCount: 2
Fore
SplineSet
88 482 m 1xd0
 168 482 l 1
 168 11 l 1
 137 0 110 -15 87 -33 c 0
 35 -74 10 -112 10 -151 c 0
 10 -153 10 -156 10 -158 c 0
 11 -173 17 -184 26 -192 c 0
 36 -201 48 -206 62 -206 c 0
 75 -206 90 -202 106 -195 c 0
 117 -190 129 -184 142 -177 c 1
 166 -220 l 1
 125 -251 89 -268 57 -270 c 0
 53 -270 48 -270 44 -270 c 0
 -18 -270 -60 -235 -60 -170 c 0
 -60 -167 -60 -165 -60 -162 c 0
 -58 -128 -46 -95 -25 -63 c 0
 4 -19 42 15 88 40 c 1
 88 482 l 1xd0
81 694 m 1xe0
 175 694 l 1
 175 602 l 1
 81 602 l 1
 81 694 l 1xe0
EndSplineSet
EndChar

StartChar: Uogonek
Encoding: 370 370 346
Width: 771
VWidth: 0
Flags: HW
HStem: -11 73<304.125 400> 674 20G<142 225 586 669>
VStem: 142 83<139.016 694> 586 83<139.079 694>
LayerCount: 2
Fore
SplineSet
142 694 m 1
 225 694 l 1
 225 244 l 2
 225 182 232 150 263 115 c 0
 293 81 343 62 405 62 c 0
 492 62 560 101 579 172 c 0
 584 191 586 215 586 244 c 2
 586 694 l 1
 669 694 l 1
 669 223 l 1
 668 135 644 75 594 42 c 0
 579 32 558 20 532 7 c 0
 491 -13 460 -32 442 -51 c 0
 408 -87 391 -119 391 -147 c 0
 391 -151 391 -154 392 -157 c 0
 394 -169 399 -180 407 -188 c 0
 417 -198 429 -202 443 -202 c 0
 464 -202 491 -192 523 -171 c 1
 547 -216 l 1
 505 -248 463 -265 422 -266 c 0
 420 -266 419 -266 417 -266 c 0
 355 -266 321 -221 321 -166 c 0
 321 -132 329 -102 346 -75 c 0
 363 -48 381 -27 400 -11 c 1
 252 -11 154 57 143 187 c 0
 141 208 141 230 141 255 c 0
 141 280 142 296 142 303 c 2
 142 694 l 1
EndSplineSet
EndChar

StartChar: uogonek
Encoding: 371 371 347
Width: 576
VWidth: 0
Flags: HW
HStem: 462 20G<89.8444 170 409 489>
VStem: 89 81<103.421 482> 409 80<89.3463 482>
LayerCount: 2
Fore
SplineSet
409 482 m 1
 489 482 l 1
 489 -22 l 1
 442 -46 412 -62 396 -71 c 0
 367 -88 347 -107 337 -129 c 0
 332 -139 330 -148 330 -157 c 0
 330 -171 336 -183 347 -193 c 0
 356 -201 368 -205 383 -205 c 0
 404 -205 431 -197 463 -179 c 1
 486 -219 l 1
 443 -247 403 -263 366 -265 c 0
 364 -265 362 -265 360 -265 c 0
 300 -265 261 -225 261 -172 c 0
 261 -170 261 -168 261 -166 c 0
 264 -114 302 -66 376 -24 c 0
 393 -15 411 -6 431 3 c 1
 416 40 l 1
 377 18 336 3 295 -5 c 0
 278 -8 261 -10 246 -10 c 0
 202 -10 166 4 137 32 c 1
 91 75 88 132 88 225 c 2
 90 482 l 1
 170 482 l 1
 170 191 l 2
 170 125 191 84 238 68 c 0
 251 64 265 62 280 62 c 0
 317 62 360 75 409 100 c 1
 409 482 l 1
EndSplineSet
EndChar

StartChar: uhungarumlaut
Encoding: 369 369 349
Width: 521
VWidth: 0
Flags: HW
HStem: 0 73 408 73
VStem: 66 81<88 480> 391 82<83 480>
LayerCount: 2
Fore
SplineSet
410 756 m 1
 455 703 l 1
 271 549 l 1
 232 598 l 1
 410 756 l 1
186 756 m 1
 231 703 l 1
 47 549 l 1
 8 598 l 1
 186 756 l 1
EndSplineSet
Refer: 14 117 N 1 0 0 1 0 0 3
EndChar

StartChar: quotereversed
Encoding: 8219 8219 350
Width: 219
VWidth: 1023
Flags: HW
HStem: 482 212<105 139>
VStem: 44 156
LayerCount: 2
Fore
SplineSet
139 694 m 1
 200 482 l 1
 105 482 l 1
 44 694 l 1
 139 694 l 1
EndSplineSet
EndChar

StartChar: uni201F
Encoding: 8223 8223 351
Width: 405
VWidth: 1023
Flags: HW
HStem: 482 212<195 229 381 415>
LayerCount: 2
Fore
SplineSet
325 694 m 1
 386 482 l 1
 291 482 l 1
 229 694 l 1
 325 694 l 1
139 694 m 1
 200 482 l 1
 105 482 l 1
 44 694 l 1
 139 694 l 1
EndSplineSet
EndChar

StartChar: uni2035
Encoding: 8245 8245 357
Width: 197
VWidth: 1023
Flags: HW
HStem: 482 212<68 129>
VStem: 34 130
LayerCount: 2
Fore
SplineSet
34 694 m 1
 129 694 l 1
 164 482 l 1
 68 482 l 1
 34 694 l 1
EndSplineSet
EndChar

StartChar: uni0191
Encoding: 401 401 358
Width: 609
VWidth: 1023
Flags: HW
HStem: -257 60<-40 118.542> 321 73<225 514> 621 73<225 543>
VStem: 142 83<-174.854 321 394 621>
LayerCount: 2
Fore
SplineSet
-52 -257 m 1
 -40 -197 l 1
 -12 -205 14 -209 37 -209 c 0
 102 -209 142 -177 142 -106 c 2
 142 694 l 1
 543 694 l 1
 543 621 l 1
 225 621 l 1
 225 394 l 1
 514 394 l 1
 514 321 l 1
 225 321 l 1
 225 -109 l 2
 225 -202 184 -256 104 -271 c 0
 89 -274 74 -275 58 -275 c 0
 25 -275 -12 -269 -52 -257 c 1
EndSplineSet
EndChar

StartChar: wgrave
Encoding: 7809 7809 374
Width: 817
VWidth: 0
Flags: HW
HStem: 0 21<195.697 285.598 527.555 622.303> 462 20<27 118.485 365.614 457.139 699.515 791>
LayerCount: 2
Fore
SplineSet
369 756 m 1
 546 598 l 1
 507 549 l 1
 324 703 l 1
 369 756 l 1
EndSplineSet
Refer: 11 119 N 1 0 0 1 0 0 3
EndChar

StartChar: wacute
Encoding: 7811 7811 376
Width: 817
VWidth: 0
Flags: HW
HStem: 0 21<195.697 285.598 527.555 622.303> 462 20<27 118.485 365.614 457.139 699.515 791>
LayerCount: 2
Fore
SplineSet
511 756 m 1
 556 703 l 1
 372 549 l 1
 333 598 l 1
 511 756 l 1
EndSplineSet
Refer: 11 119 N 1 0 0 1 0 0 3
EndChar

StartChar: ygrave
Encoding: 7923 7923 378
Width: 507
VWidth: 0
Flags: HW
HStem: 462 20<22 110.384 397.616 481>
LayerCount: 2
Fore
SplineSet
217 756 m 1
 395 598 l 1
 356 549 l 1
 172 703 l 1
 217 756 l 1
EndSplineSet
Refer: 26 121 N 1 0 0 1 0 0 3
EndChar

StartChar: uniFB00
Encoding: 64256 64256 382
Width: 720
VWidth: 0
Flags: HW
HStem: 0 21G<105.952 187 405.952 487> 419 63<35 105 186 405 486 648>
VStem: 105 81<0 419 482 598.575> 405 81<0 419 482 598.575>
LayerCount: 2
Fore
SplineSet
621 693 m 4
 642 690 662 685 682 679 c 5
 670 619 l 5
 639 627 613 631 591 631 c 0
 576 631 564 630 553 626 c 4
 504 609 486 584 486 528 c 6
 486 482 l 5
 648 482 l 5
 648 419 l 5
 486 419 l 5
 487 0 l 5
 406 0 l 5
 405 419 l 5
 186 419 l 5
 187 0 l 5
 106 0 l 5
 105 419 l 5
 35 419 l 5
 35 482 l 5
 105 482 l 5
 105 531 l 6
 105 573 110 604 120 622 c 4
 149 672 198 698 266 698 c 0
 283 698 301 696 321 693 c 4
 342 690 362 685 382 679 c 5
 369 619 l 5
 338 627 313 631 291 631 c 0
 276 631 264 630 253 626 c 4
 203 609 186 584 186 528 c 6
 186 482 l 5
 405 482 l 5
 405 531 l 6
 405 573 410 604 420 622 c 4
 449 672 498 698 566 698 c 0
 583 698 601 696 621 693 c 4
EndSplineSet
EndChar

StartChar: uniFB03
Encoding: 64259 64259 385
Width: 932
VWidth: 0
Flags: HW
HStem: 0 21G<136.952 218 456.952 538 778 858> 419 63<66 136 217 456 537 699> 602 92<770 865>
VStem: 136 81<0 419 482 598.575> 456 81<0 419 482 598.575> 770 95<602 694> 778 80<0 482>
LayerCount: 2
Fore
SplineSet
778 482 m 1xfa
 858 482 l 1
 858 0 l 1
 778 0 l 1
 778 482 l 1xfa
770 694 m 1xfc
 865 694 l 1
 865 602 l 1
 770 602 l 1
 770 694 l 1xfc
672 693 m 0
 693 690 713 685 733 679 c 1
 721 619 l 1
 690 627 664 631 642 631 c 0
 627 631 615 630 604 626 c 0
 555 609 537 584 537 528 c 2
 537 482 l 1
 699 482 l 1
 699 419 l 1
 537 419 l 1
 538 0 l 1
 457 0 l 1
 456 419 l 1
 217 419 l 1
 218 0 l 1
 137 0 l 1
 136 419 l 1
 66 419 l 1
 66 482 l 1
 136 482 l 1
 136 531 l 2
 136 573 141 604 151 622 c 0
 180 672 229 698 297 698 c 0
 314 698 332 696 352 693 c 0
 373 690 393 685 413 679 c 1
 400 619 l 1
 369 627 344 631 322 631 c 0
 307 631 295 630 284 626 c 0
 234 609 217 584 217 528 c 2
 217 482 l 1
 456 482 l 1
 456 531 l 2
 456 573 461 604 471 622 c 0
 500 672 549 698 617 698 c 0
 634 698 652 696 672 693 c 0
EndSplineSet
EndChar

StartChar: uniFB04
Encoding: 64260 64260 386
Width: 991
VWidth: 0
Flags: HW
HStem: -10 75<869.457 975.438> 0 21G<135.952 217 452.952 534> 419 63<59 135 216 452 533 695> 651 20G<780.986 861>
VStem: 135 81<0 419 482 598.575> 452 81<0 419 482 598.575> 781 80<74.7623 671>
LayerCount: 2
Fore
SplineSet
924 65 m 0xbe
 943 65 960 69 982 76 c 1
 982 14 l 1
 965 8 932 -10 885 -10 c 0
 822 -10 782 37 781 105 c 1
 781 671 l 1
 861 671 l 1
 861 134 l 2
 861 97 862 65 924 65 c 0xbe
668 693 m 0
 689 690 709 685 729 679 c 1
 717 619 l 1
 686 627 660 631 638 631 c 0
 623 631 611 630 600 626 c 0
 551 609 533 584 533 528 c 2
 533 482 l 1
 695 482 l 1
 695 419 l 1
 533 419 l 1
 534 0 l 1
 453 0 l 1
 452 419 l 1
 216 419 l 1
 217 0 l 1
 136 0 l 1x7e
 135 419 l 1
 59 419 l 1
 59 482 l 1
 135 482 l 1
 135 531 l 2
 135 573 140 604 150 622 c 0
 179 672 228 698 296 698 c 0
 313 698 331 696 351 693 c 0
 372 690 392 685 412 679 c 1
 399 619 l 1
 368 627 343 631 321 631 c 0
 306 631 294 630 283 626 c 0
 233 609 216 584 216 528 c 2
 216 482 l 1
 452 482 l 1
 452 531 l 2
 452 573 457 604 467 622 c 0
 496 672 545 698 613 698 c 0
 630 698 648 696 668 693 c 0
EndSplineSet
EndChar

StartChar: H18533
Encoding: 9679 9679 387
Width: 680
VWidth: 0
Flags: HW
HStem: 99 476<102 578>
VStem: 102 476<99 575>
LayerCount: 2
Back
SplineSet
102 337 m 4
 102 468.376 208.624 575 340 575 c 4
 471.376 575 578 468.376 578 337 c 4
 578 205.624 471.376 99 340 99 c 4
 208.624 99 102 205.624 102 337 c 4
EndSplineSet
Fore
SplineSet
578 99 m 1
 102 99 l 1
 102 575 l 1
 578 575 l 1
 578 99 l 1
EndSplineSet
EndChar
